SplineFontDB: 3.2
FontName: NewCMMono10-BoldOblique
FullName: NewComputerModernMono10-BoldOblique
FamilyName: NewComputerModernMono10
Weight: Bold
Copyright: (C) 2019-2021 Antonis Tsolomitis. This work is released under the GUST Font License --  see http://tug.org/fonts/licenses/GUST-FONT-LICENSE.txt for details.
Version: 3.93
ItalicAngle: 0
UnderlinePosition: -163
UnderlineWidth: 82
Ascent: 783
Descent: 217
InvalidEm: 0
LayerCount: 2
Layer: 0 0 "Back" 1
Layer: 1 0 "Fore" 0
XUID: [1021 210 1223046955 16525319]
StyleMap: 0x0020
FSType: 8
OS2Version: 3
OS2_WeightWidthSlopeOnly: 0
OS2_UseTypoMetrics: 0
CreationTime: 1254996125
ModificationTime: 1633795170
PfmFamily: 81
TTFWeight: 700
TTFWidth: 5
LineGap: 0
VLineGap: 0
Panose: 0 0 8 9 0 0 0 0 0 0
OS2TypoAscent: 783
OS2TypoAOffset: 0
OS2TypoDescent: -217
OS2TypoDOffset: 0
OS2TypoLinegap: 200
OS2WinAscent: 1039
OS2WinAOffset: 0
OS2WinDescent: 308
OS2WinDOffset: 0
HheadAscent: 1039
HheadAOffset: 0
HheadDescent: -308
HheadDOffset: 0
OS2SubXSize: 650
OS2SubYSize: 600
OS2SubXOff: 0
OS2SubYOff: 75
OS2SupXSize: 650
OS2SupYSize: 600
OS2SupXOff: 0
OS2SupYOff: 350
OS2StrikeYSize: 82
OS2StrikeYPos: 258
OS2CapHeight: 611
OS2XHeight: 431
OS2Vendor: 'UKWN'
OS2CodePages: 20000193.00000000
OS2UnicodeRanges: 20000007.00000000.00000000.00000000
Lookup: 1 0 0 "'aalt' Access All Alternates lookup 0" { "'aalt' Access All Alternates lookup 0 subtable"  } ['aalt' ('DFLT' <'dflt' > 'cyrl' <'dflt' > 'latn' <'AZE ' 'CRT ' 'MOL ' 'ROM ' 'TRK ' 'dflt' > ) ]
Lookup: 3 0 0 "'aalt' Access All Alternates lookup 1" { "'aalt' Access All Alternates lookup 1 subtable"  } ['aalt' ('DFLT' <'dflt' > 'cyrl' <'dflt' > 'latn' <'AZE ' 'CRT ' 'MOL ' 'ROM ' 'TRK ' 'dflt' > ) ]
Lookup: 1 0 0 "'locl' Localized Forms in Latin lookup 2" { "'locl' Localized Forms in Latin lookup 2 subtable"  } ['locl' ('latn' <'MOL ' 'ROM ' > ) ]

StartChar: acute.dup
Encoding: 1114113 -1 1
Width: 525
Flags: HMW
HStem: 476 21G<176.5 196> 602 20G<332 344>
LayerCount: 2
Fore
SplineSet
497.283203125 580 m 0
 494.51953125 567 487.119140625 551 456.568359375 539 c 2
 315.239257812 481 l 2
 307.6015625 478 301.176757812 476 293.176757812 476 c 0
 267.650469417 476 262.373847884 501.087285924 262.373847884 514.971496646 c 0
 262.373847884 517.948747555 262.616477844 520.410857921 262.954101562 522 c 0
 267.630859375 544 281.119140625 551 299.606445312 558 c 2
 440.934570312 616 l 2
 455.209960938 622 464.209960938 622 464.209960938 622 c 1
 484.924142948 622 498.318554724 608.591333239 498.318554724 589.489265377 c 0
 498.318554724 586.459171397 497.981519668 583.28581799 497.283203125 580 c 0
EndSplineSet
Validated: 1
EndChar

StartChar: AE.dup
Encoding: 1114114 -1 2
Width: 525
Flags: HMW
HStem: 0 75<59 68 68 69 55.5 137 326 431> 178 75<176 255 176 256 162 255> 279 75<326 431 326 431> 536 75<163 446 233 233 233 255 326 326 326 423>
VStem: 163 70<536 536> 256 70<75 178 178 178> 423 70<492 536 536 536> 431 70<75 134>
LayerCount: 2
Fore
SplineSet
511.203125 48 m 2xb5
 503.125976562 10 492 0 454 0 c 2
 265 0 l 2
 248.199751774 0 223.747438787 0.781851358581 223.747438787 26.5421536281 c 0
 223.747438787 29.9150960906 224.166652907 33.7162728607 225.077148438 38 c 0
 231.666015625 69 254.729492188 74 271.94140625 75 c 1
 293.834960938 178 l 1
 199.834960938 178 l 1
 156.94140625 75 l 1
 176.527087343 74.1405297862 193.267661398 70.3263033786 193.267661398 48.9550523863 c 0
 193.267661398 45.4606935542 192.820107384 41.496953158 191.864257812 37 c 0
 184.212890625 1 155 0 137 0 c 2
 68 0 l 2
 52.0395847186 0 27.5981424223 0.78621869122 27.5981424223 26.061145611 c 0
 27.5981424223 29.2910336684 27.9972793907 32.9208305628 28.8642578125 37 c 0
 36.091796875 71 57.94140625 75 84.94140625 75 c 1
 276.930664062 536 l 1
 261.742617623 536.853832531 246.600847501 541.352815018 246.600847501 561.946337913 c 0
 246.600847501 565.471740153 247.044591719 569.468808464 248.0078125 574 c 0
 255.659179688 610 283.872070312 611 301.872070312 611 c 2
 575.872070312 611 l 2
 605.721042654 611 615.773536908 604.317791376 615.773536908 585.966947618 c 0
 615.773536908 579.726199347 614.610924139 572.135924892 612.668945312 563 c 2
 597.578125 492 l 2
 593.96484375 475 585.375 444 552.375 444 c 0
 530.145710685 444 524.839411849 457.251194123 524.839411849 471.177293701 c 0
 524.839411849 478.551352619 526.327216523 486.114644657 527.578125 492 c 2
 536.930664062 536 l 1xde
 439.930664062 536 l 1
 401.245117188 354 l 1
 506.245117188 354 l 2
 522.913902405 354 545.576138829 353.23033684 545.576138829 328.057997551 c 0
 545.576138829 324.537517282 545.132877911 320.53973405 544.16796875 316 c 0
 536.515625 280 507.303710938 279 490.303710938 279 c 2
 385.303710938 279 l 1
 341.94140625 75 l 1
 446.94140625 75 l 1
 459.482421875 134 l 2
 463.095703125 151 470.685546875 182 504.685546875 182 c 0
 526.714526035 182 531.992865971 168.185901187 531.992865971 153.94379571 c 0
 531.992865971 146.850846243 530.683675932 139.651738009 529.482421875 134 c 2
 511.203125 48 l 2xb5
308.776367188 253 m 1
 368.930664062 536 l 1
 346.930664062 536 l 1
 229.776367188 253 l 1
 308.776367188 253 l 1
EndSplineSet
Validated: 1
EndChar

StartChar: ae.dup
Encoding: 1114115 -1 3
Width: 525
Flags: HMW
HStem: -6 75<135.5 156 135.5 174 371.5 398.5> 186 74<303 437 303 459 300 437> 369 75<154 179.5 360.5 392>
VStem: 31 68<111 142.5 111 164> 391 68
LayerCount: 2
Fore
SplineSet
530.231445312 114 m 0
 525.767578125 93 473.724609375 -6 384.724609375 -6 c 0
 329.724609375 -6 299.65234375 36 287.903320312 56 c 1
 251.401367188 16 196.724609375 -6 148.724609375 -6 c 0
 85.1874024248 -6 54.11912222 42.084877634 54.11912222 94.4789363565 c 0
 54.11912222 103.931386047 55.1303334348 113.524091079 57.14453125 123 c 0
 74.57421875 205 170.989257812 254 281.626953125 257 c 1
 286.94140625 282 l 2
 289.307032436 293.130166393 290.475231706 303.272764196 290.475231706 312.380685683 c 0
 290.475231706 349.098099169 271.489710041 369 235.43359375 369 c 0
 229.43359375 369 225.220703125 368 217.370117188 364 c 1
 204.16796875 316 165.530273438 313 156.530273438 313 c 0
 132.415153425 313 114.10516641 326.351661017 114.10516641 351.77729691 c 0
 114.10516641 355.873297428 114.58035324 360.282645729 115.583007812 365 c 0
 123.022460938 400 157.375 444 254.375 444 c 0
 305.375 444 336.2734375 420 352.984375 381 c 1
 392.76171875 427 437.375 444 470.375 444 c 0
 528.061632842 444 565.250961635 399.030437722 565.250961635 315.249796395 c 0
 565.250961635 291.557230276 562.276864274 264.760872519 555.951171875 235 c 0
 548.298828125 199 540.53515625 186 498.53515625 186 c 2
 339.53515625 186 l 1
 339.123651709 180.554649067 338.924501257 175.270661159 338.924501257 170.154262149 c 0
 338.924501257 106.680567999 369.575175712 69 405.666015625 69 c 0
 420.666015625 69 438.004882812 80 451.680664062 102 c 0
 464.995117188 127 477.670898438 149 502.670898438 149 c 0
 520.005982803 149 531.030165557 136.979794002 531.030165557 121.404465461 c 0
 531.030165557 119.01007639 530.769633353 116.531669853 530.231445312 114 c 0
492.264648438 260 m 1
 494.448961555 275.773608496 495.447654372 289.53734709 495.447654372 301.475835518 c 0
 495.447654372 350.843392751 478.370460159 369 457.43359375 369 c 0
 420.43359375 369 376.955078125 315 358.264648438 260 c 1
 492.264648438 260 l 1
263.110351562 184 m 1
 194.259765625 180 133.221679688 161 125.357421875 124 c 0
 124.538125012 120.146120199 124.122287626 116.226327428 124.122287626 112.344835292 c 0
 124.122287626 90.0400422438 137.853930741 69 167.666015625 69 c 0
 173.666015625 69 199.091796875 71 223.705078125 88 c 0
 244.893554688 103 248.931640625 122 252.333007812 138 c 2
 263.110351562 184 l 1
EndSplineSet
Validated: 1
EndChar

StartChar: cedilla.dup
Encoding: 1114116 -1 4
Width: 525
Flags: HMW
HStem: -203 76<202.5 241 202.5 244>
VStem: 253 83<5 11 11 22.5> 350 82<-111 -87>
LayerCount: 2
Fore
SplineSet
411.806640625 -95 m 0
 389.701171875 -199 248.850585938 -203 152.850585938 -203 c 0
 136.494299355 -203 121.713521063 -195.589249009 121.713521063 -175.664068416 c 0
 121.713521063 -172.443504444 122.099671589 -168.89599872 122.927734375 -165 c 0
 130.3671875 -130 154.004882812 -127 197.004882812 -127 c 0
 229.929812783 -127 330.209268889 -128.057572057 330.209268889 -91.2646391084 c 0
 330.209268889 -77.0128355146 312.079502303 -65.8418503382 278.396484375 -64 c 0
 252.986244648 -62.6474992603 246.538035212 -51.691392704 246.538035212 -37.6261223163 c 0
 246.538035212 -30.8924829877 248.015927101 -23.4462414939 249.598632812 -16 c 2
 255.337890625 11 l 2
 260.2265625 34 266.541015625 59 307.541015625 59 c 0
 333.034907463 59 341.247096778 51.4039325518 341.247096778 34.2490950684 c 0
 341.247096778 26.5066359396 339.574298475 16.8170840585 337.0625 5 c 1
 392.745817809 -8.58137789886 413.725128911 -43.0579157326 413.725128911 -77.0234126032 c 0
 413.725128911 -83.0721141428 413.059795106 -89.1046086285 411.806640625 -95 c 0
EndSplineSet
Validated: 33
EndChar

StartChar: circumflex.dup
Encoding: 1114117 -1 5
Width: 525
Flags: HMW
HStem: 475 21G
LayerCount: 2
Fore
SplineSet
520.766601562 507 m 0
 515.302734375 486 500.96484375 475 473.96484375 475 c 0
 464.96484375 475 446.727539062 488 435.427734375 496 c 2
 376.35546875 538 l 1
 299.427734375 496 l 2
 286.940429688 489 260.96484375 475 251.96484375 475 c 0
 228.45502812 475 218.090411855 483.339953005 218.090411855 499.359688114 c 0
 218.090411855 501.737921528 218.318841003 504.285412157 218.766601562 507 c 0
 222.655273438 530 241.780273438 540 274.819335938 559 c 2
 377.147460938 617 l 2
 382.891601562 620.5 388.763671875 622.25 394.263671875 622.25 c 0
 399.763671875 622.25 404.891601562 620.5 409.147460938 617 c 2
 486.819335938 559 l 2
 508.648887436 542.044365507 522.096486133 532.994803393 522.096486133 516.618078028 c 0
 522.096486133 513.677655018 521.662965039 510.501020333 520.766601562 507 c 0
EndSplineSet
Validated: 1
EndChar

StartChar: dieresis.dup
Encoding: 1114118 -1 6
Width: 525
Flags: HMW
HStem: 498 103<165.5 194.5 330.5 359.5>
VStem: 128 104<535.5 564.5> 293 104<535.5 564.5>
LayerCount: 2
Fore
SplineSet
348.90625 550 m 0
 342.7421875 521 314.853515625 498 285.853515625 498 c 0
 260.674178394 498 243.703411121 515.338855574 243.703411121 538.889317609 c 0
 243.703411121 542.462818082 244.094153307 546.179337231 244.90625 550 c 0
 251.0703125 579 278.74609375 601 307.74609375 601 c 0
 332.95657511 601 350.099055409 584.373954639 350.099055409 560.976502004 c 0
 350.099055409 557.459509146 349.711726888 553.78951864 348.90625 550 c 0
513.90625 550 m 0
 507.7421875 521 479.853515625 498 450.853515625 498 c 0
 425.674178394 498 408.703411121 515.338855574 408.703411121 538.889317609 c 0
 408.703411121 542.462818082 409.094153307 546.179337231 409.90625 550 c 0
 416.0703125 579 443.74609375 601 472.74609375 601 c 0
 497.95657511 601 515.099055409 584.373954639 515.099055409 560.976502004 c 0
 515.099055409 557.459509146 514.711726888 553.78951864 513.90625 550 c 0
EndSplineSet
Validated: 1
EndChar

StartChar: Gcedilla
Encoding: 1114119 -1 7
Width: 525
Flags: HMW
HStem: -225 21G<217 237.5> -124 107<248 262 262 265> -11 75<226 285> 204 75<324.5 450 334 366 452 459 334 464.5> 547 75<228.5 281>
VStem: 36 83<236 377 236 396.5> 208 123<-85.5 -72 -140 -55.5> 287 83 369 83 415 83
LayerCount: 2
Fore
SplineSet
549.438476562 242 m 0x3d
 542.424804688 209 520.361328125 204 495.361328125 204 c 1
 462.203125 48 l 2x1080
 457.313476562 25 451 0 411 0 c 0
 383.486913969 0 376.267609623 10.2399674695 376.267609623 25.1271856652 c 0
 376.267609623 27.0139405364 376.383567219 28.9753402759 376.588867188 31 c 1
 349.125976562 10 306.662109375 -11 258.662109375 -11 c 0
 160.791989464 -11 90.8367552652 78.9617632515 90.8367552652 213.268645939 c 0
 90.8367552652 242.265119315 94.0974792569 273.328588771 101.041992188 306 c 0
 139.514648438 487 273.209960938 622 393.209960938 622 c 0
 433.209960938 622 468.447265625 609 495.920898438 583 c 1
 516.296875 613 526.209960938 622 547.209960938 622 c 0x2d40
 571.085977021 622 576.855391212 609.243935049 576.855391212 595.109196397 c 0
 576.855391212 587.931728285 575.367748304 580.398769289 574.0078125 574 c 2
 545.3125 439 l 2
 540.2109375 415 534.109375 391 493.109375 391 c 0
 465.512362838 391 459.29357496 402.09503759 459.29357496 419.346566201 c 0
 459.29357496 421.473852361 459.388133859 423.694750175 459.548828125 426 c 0x0080
 459.873411094 431.317537666 460.029605628 436.412927804 460.029605628 441.294693342 c 0
 460.029605628 527.299879352 411.549754634 547 381.268554688 547 c 0
 308.268554688 547 214.4375 449 183.830078125 305 c 0
 177.81880203 276.719364531 175.017767593 249.908630448 175.017767593 225.153044681 c 0
 175.017767593 129.10968873 217.178358347 64 277.603515625 64 c 0
 325.603515625 64 376.53125 106 409.361328125 204 c 1
 377.361328125 204 l 2
 360.624995907 204 337.070625861 204.775913618 337.070625861 230.249224167 c 0
 337.070625861 233.694609431 337.501525666 237.591804846 338.438476562 242 c 0
 345.877929688 277 375.303710938 279 393.303710938 279 c 2
 509.303710938 279 l 2
 525.356529061 279 550.614886695 277.409302656 550.614886695 252.239284924 c 0
 550.614886695 249.186200911 550.243252579 245.786186983 549.438476562 242 c 0x3d
310.381835938 -97 m 0
 292.102539062 -183 202.174804688 -225 177.174804688 -225 c 0
 162.89501654 -225 152.289857372 -211.458945539 152.289857372 -198.594732867 c 0
 152.289857372 -176.678574713 175.222467895 -168.95506927 184.715820312 -166 c 0
 192.140625 -164 220.053710938 -155 238.642578125 -124 c 1
 235.642578125 -124 l 2
 211.289638698 -124 191.987408162 -107.357851414 191.987408162 -81.3107906063 c 0
 191.987408162 -77.4100208937 192.420311241 -73.2983213902 193.333984375 -69 c 0
 199.072265625 -42 225.38671875 -17 259.38671875 -17 c 0
 289.800157994 -17 312.807388948 -38.4115112656 312.807388948 -75.2049254911 c 0
 312.807388948 -81.9634062511 312.031101907 -89.2408878395 310.381835938 -97 c 0
EndSplineSet
Validated: 1
EndChar

StartChar: gcedilla
Encoding: 1114120 -1 8
Width: 525
Flags: HMW
HStem: -223 74<216 308 216 327> 4 71<212 277> 113 74<215.5 256.5 209 281> 367 74<209.5 255.5 186 257> 462 107<224 227 227 241 224 243> 650 20G<251.5 272>
VStem: 27 72<-92.5 -66.5> 65 82<257.5 302.5 253 321.5> 151 82 158 123<517 530.5> 319 84<252.5 292 232.5 301.5> 425 72<-92.5 -53 -115 -34>
LayerCount: 2
Fore
SplineSet
398.872070312 611 m 0xfc30
 391.447265625 609 363.534179688 600 344.944335938 569 c 1
 347.944335938 569 l 2
 372.297396759 569 391.600437076 552.357685496 391.600437076 526.310401084 c 0
 391.600437076 522.409747171 391.167548972 518.298178317 390.25390625 514 c 0
 384.514648438 487 358.201171875 462 324.201171875 462 c 0
 293.787732631 462 270.780501677 483.411511266 270.780501677 520.204925491 c 0
 270.780501677 526.963406251 271.556788718 534.240887839 273.206054688 542 c 0
 291.485351562 628 381.413085938 670 406.413085938 670 c 0
 420.69240672 670 431.297339053 656.459831898 431.297339053 643.595995972 c 0
 431.297339053 621.679036662 408.366764116 613.955486814 398.872070312 611 c 0xfc30
593.046875 386 m 0
 585.8203125 352 555.84375 338 535.84375 338 c 0
 524.84375 338 502.33203125 345 498.858398438 371 c 1
 487.43359375 369 472.795898438 366 456.307617188 359 c 1
 462.269287886 342.638437205 465.374603352 325.880867402 465.374603352 308.727290591 c 0
 465.374603352 298.622285648 464.296974021 288.379855451 462.090820312 278 c 0
 442.748046875 187 352.018554688 113 258.018554688 113 c 0
 221.018554688 113 191.782226562 126 179.482421875 134 c 1
 175.995117188 127 173.719726562 121 173.08203125 118 c 2
 173.08203125 118 170.04296875 99 176.705078125 88 c 0
 183.888253348 76.4285714286 195.571338887 74.362244898 207.782248628 74.362244898 c 0
 214.566087372 74.362244898 221.512834821 75 227.94140625 75 c 2
 296.94140625 75 l 2
 386.94140625 75 424.265625 53 435.77734375 46 c 0
 471.741905729 24.131740233 484.465448399 -12.3759313269 484.465448399 -45.4199470055 c 0
 484.465448399 -54.6853079696 483.465109635 -63.6783525409 481.696289062 -72 c 0
 463.416015625 -158 344.599609375 -223 214.599609375 -223 c 0
 95.8544079074 -223 9.31783925889 -169.601948889 9.31783925889 -94.0523918373 c 0
 9.31783925889 -86.8917231676 10.0952364798 -79.5320574794 11.6962890625 -72 c 0
 14.0341796875 -61 28.0625 5 106.840820312 51 c 1
 102.819828245 60.3442928003 99.2056057499 73.6979849448 99.2056057499 90.7637351522 c 0
 99.2056057499 99.2665868721 100.102814141 108.690934058 102.293945312 119 c 0
 108.24609375 147 120.921875 169 134.323242188 185 c 1
 126.739247847 199.111038802 120.425041443 219.195720085 120.425041443 244.20036509 c 0
 120.425041443 254.635556027 121.524751478 265.927629543 124.090820312 278 c 0
 142.583007812 365 231.737304688 441 327.737304688 441 c 0
 370.737304688 441 400.336914062 425 415.998046875 414 c 1
 468.587890625 445 515.799804688 446 526.799804688 446 c 0
 577.879782045 446 594.151326967 419.765945694 594.151326967 396.499566136 c 0
 594.151326967 392.892081121 593.760143723 389.355941798 593.046875 386 c 0
378.090820312 278 m 0
 379.413419973 284.222294862 380.051357433 290.356955154 380.051357433 296.318126998 c 0
 380.051357433 335.384566807 352.653128385 367 311.0078125 367 c 0
 264.0078125 367 216.71875 328 205.877929688 277 c 0
 204.50498575 270.540447937 203.843307807 264.189556845 203.843307807 258.035064374 c 0
 203.843307807 218.456410686 231.207598938 187 272.748046875 187 c 0
 319.748046875 187 367.25 227 378.090820312 278 c 0
409.696289062 -72 m 0
 410.801238526 -66.801620903 411.330007855 -61.9588095065 411.330007855 -57.4472450776 c 0
 411.330007855 4 313.241808491 4 236.850585938 4 c 0
 167.850585938 4 158.850585938 4 133.874023438 -10 c 0
 101.048828125 -28 87.0966796875 -56 83.6962890625 -72 c 0
 83.1593626139 -74.5260331708 82.8959754518 -77.033087033 82.8959754518 -79.5139117656 c 0
 82.8959754518 -117.299309668 143.997273556 -149 230.329101562 -149 c 0
 322.329101562 -149 400.981445312 -113 409.696289062 -72 c 0
EndSplineSet
Validated: 1
EndChar

StartChar: germandbls.dup
Encoding: 1114121 -1 9
Width: 525
Flags: HMW
HStem: -6 75<308.5 335 308.5 357.5> 0 75<53 107 62 107 62 143> 361 75<53 107 62 107> 542 75<275 314.5>
VStem: 107 83<75 361 361 361 436 489> 203 94<71 81.5 71 90.5> 311 83 386 82<493 512.5> 414 83<143 202 122 204>
LayerCount: 2
Fore
SplineSet
534.834960938 178 m 0x02
 511.028320312 66 402.724609375 -6 309.724609375 -6 c 0x8280
 245.343511828 -6 217.463066046 26.6678326697 217.463066046 61.1347467113 c 0
 217.463066046 65.7489422019 217.962740207 70.3953808813 218.94140625 75 c 0x44
 225.53125 106 253.357421875 124 277.357421875 124 c 0
 292.357421875 124 304.65625 116 311.318359375 105 c 0
 313.903926159 99.6962732639 315.220093534 96.3616127382 315.220093534 91.2662365996 c 0
 315.220093534 86.7544508459 314.188150888 80.8621738542 312.091796875 71 c 1
 315.87890625 70 320.666015625 69 325.666015625 69 c 0
 373.666015625 69 436.956054688 108 451.834960938 178 c 0x8680
 454.328924572 189.733395973 456.216588998 205.081715488 456.216588998 221.908108258 c 0
 456.216588998 279.652830794 433.985161767 354.805137842 337.733398438 361 c 1
 337.733398438 361 314.61539851 365.828726553 314.61539851 389.20370098 c 0
 314.61539851 391.884889616 314.919558936 394.810088749 315.59765625 398 c 0
 321.548828125 426 342.25 434 388.099609375 438 c 0
 458.576179886 447.908696361 493.043349382 483.999995739 493.043349382 505.201643206 c 0
 493.043349382 524.892348509 454.395308351 542 402.206054688 542 c 0
 378.206054688 542 354.35546875 538 330.442382812 529 c 0
 299.678710938 516 297.553710938 506 293.940429688 489 c 2
 200.203125 48 l 2
 192.125976562 10 181 0 143 0 c 2
 62 0 l 2
 46.0395847186 0 21.5981424223 0.78621869122 21.5981424223 26.061145611 c 0
 21.5981424223 29.2910336684 21.9972793907 32.9208305628 22.8642578125 37 c 0
 30.7294921875 74 58.94140625 75 77.94140625 75 c 2
 122.94140625 75 l 1
 183.733398438 361 l 1
 138.733398438 361 l 2
 122.773148619 361 98.3312798559 361.78620239 98.3312798559 387.060359537 c 0
 98.3312798559 390.290444731 98.7304968304 393.920499637 99.59765625 398 c 0
 107.461914062 435 135.674804688 436 154.674804688 436 c 2
 199.674804688 436 l 1
 212.427734375 496 l 2
 232.62109375 591 354.147460938 617 419.147460938 617 c 0
 509.632509827 617 576.73512044 577.737213406 576.73512044 519.826892623 c 0
 576.73512044 514.377334312 576.140896583 508.762643681 574.916015625 503 c 0x79
 568.751953125 474 547.186523438 429 477.322265625 392 c 1
 527.938761396 345.828154405 541.037846483 285.825171316 541.037846483 237.034546607 c 0
 541.037846483 213.968340872 538.11018723 193.408108992 534.834960938 178 c 0x02
EndSplineSet
Validated: 1
EndChar

StartChar: hyphen.dup
Encoding: 1114122 -1 10
Width: 525
Flags: HMW
HStem: 264 84<100 417 107 417>
LayerCount: 2
Fore
SplineSet
536.041992188 306 m 0
 527.327148438 265 487.115234375 264 473.115234375 264 c 2
 163.115234375 264 l 2
 150.473959815 264 116.807261116 264.815315421 116.807261116 295.157261794 c 0
 116.807261116 298.418513201 117.196200765 302.020875496 118.041992188 306 c 0
 126.756835938 347 166.969726562 348 180.969726562 348 c 2
 490.969726562 348 l 2
 503.610972107 348 537.276749069 347.184688322 537.276749069 316.842947137 c 0
 537.276749069 313.581640655 536.887801672 309.979209478 536.041992188 306 c 0
EndSplineSet
Validated: 1
EndChar

StartChar: Kcedilla
Encoding: 1114123 -1 11
Width: 525
Flags: HMW
HStem: -225 21G<217 237.5> -124 107<248 262 262 265> 0 75<62.5 86 72 86 156 169 443 449> 536 75<62.5 169 72 86 156 156 156 169 428 439 439 447>
VStem: 86 70<75 194 307 536> 208 123<-85.5 -72 -140 -55.5> 306 70
LayerCount: 2
Fore
SplineSet
504.864257812 37 m 0x7a
 497.212890625 1 467 0 449 0 c 2
 376 0 l 2
 359.199751774 0 334.747438787 0.781851358581 334.747438787 26.5421536281 c 0
 334.747438787 29.9150960906 335.166652907 33.7162728607 336.077148438 38 c 0
 342.028320312 66 361.516601562 73 377.729492188 74 c 1
 300.12890625 297 l 1
 197.236328125 194 l 1
 171.94140625 75 l 1
 184.94140625 75 l 2
 201.741483291 75 226.194232666 74.2181645745 226.194232666 48.4586338109 c 0
 226.194232666 45.0854955213 225.774937269 41.2840604987 224.864257812 37 c 0
 217.212890625 1 187 0 169 0 c 2
 72 0 l 2
 55.1997517742 0 30.747438787 0.781851358581 30.747438787 26.5421536281 c 0
 30.747438787 29.9150960906 31.1666529072 33.7162728607 32.0771484375 38 c 0
 39.7294921875 74 69.94140625 75 87.94140625 75 c 2
 101.94140625 75 l 1
 199.930664062 536 l 1
 185.930664062 536 l 2
 169.130587021 536 144.677837647 536.781835425 144.677837647 562.541366189 c 0
 144.677837647 565.914504479 145.097133043 569.715939501 146.0078125 574 c 0
 153.659179688 610 183.872070312 611 201.872070312 611 c 2
 298.872070312 611 l 2
 315.672318538 611 340.124631525 610.218148641 340.124631525 584.457846372 c 0
 340.124631525 581.084903909 339.705417405 577.283727139 338.794921875 573 c 0
 331.142578125 537 300.930664062 536 282.930664062 536 c 2
 269.930664062 536 l 1
 221.254882812 307 l 1
 452.142578125 537 l 1
 439.65690626 538.713391583 426.638706791 544.830349239 426.638706791 562.895906013 c 0
 426.638706791 565.917830882 427.002970198 569.274090575 427.794921875 573 c 0
 435.659179688 610 465.872070312 611 483.872070312 611 c 2
 568.872070312 611 l 2
 584.046997312 611 610.207646173 610.203188895 610.207646173 584.426465971 c 0
 610.207646173 581.326325783 609.829242128 577.864860471 609.0078125 574 c 0
 601.780273438 540 579.930664062 536 541.930664062 536 c 1
 360.669921875 356 l 1
 458.94140625 75 l 1
 485.948410447 75 506.238751974 71.9640862613 506.238751974 48.7006111054 c 0
 506.238751974 45.2610974898 505.795210494 41.3794147513 504.864257812 37 c 0x7a
310.381835938 -97 m 0
 292.102539062 -183 202.174804688 -225 177.174804688 -225 c 0
 162.89501654 -225 152.289857372 -211.458945539 152.289857372 -198.594732867 c 0
 152.289857372 -176.678574713 175.222467895 -168.95506927 184.715820312 -166 c 0
 192.140625 -164 220.053710938 -155 238.642578125 -124 c 1
 235.642578125 -124 l 2
 211.289638698 -124 191.987408162 -107.357851414 191.987408162 -81.3107906063 c 0
 191.987408162 -77.4100208937 192.420311241 -73.2983213902 193.333984375 -69 c 0xc4
 199.072265625 -42 225.38671875 -17 259.38671875 -17 c 0
 289.800157994 -17 312.807388948 -38.4115112656 312.807388948 -75.2049254911 c 0
 312.807388948 -81.9634062511 312.031101907 -89.2408878395 310.381835938 -97 c 0
EndSplineSet
Validated: 1
EndChar

StartChar: kcedilla
Encoding: 1114124 -1 12
Width: 525
Flags: HMW
HStem: -225 21G<217 237.5> -124 107<248 262 262 265> 0 75<56.5 106 66 106 176 216 435 462> 361 75<281 440 290 307 409 409 409 440> 536 75<56.5 130 66 106>
VStem: 106 70<75 143 238 536 536 536> 208 123<-85.5 -72 -140 -55.5> 440 70
LayerCount: 2
Fore
SplineSet
517.864257812 37 m 0
 510.212890625 1 480 0 462 0 c 2
 347 0 l 2
 331.039584719 0 306.598142422 0.78621869122 306.598142422 26.061145611 c 0
 306.598142422 29.2910336684 306.997279391 32.9208305628 307.864257812 37 c 0
 314.454101562 68 331.729492188 74 362.94140625 75 c 1
 288.999023438 207 l 1
 206.395507812 143 l 1
 191.94140625 75 l 1
 231.94140625 75 l 2
 248.677565495 75 272.232379349 74.2241024203 272.232379349 48.751565639 c 0
 272.232379349 45.3059861572 271.801396661 41.4085319965 270.864257812 37 c 0
 263.212890625 1 234 0 216 0 c 2
 66 0 l 2
 49.2636677819 0 25.7092977364 0.77591361805 25.7092977364 26.2492241673 c 0
 25.7092977364 29.6946094306 26.1401975407 33.5918048458 27.0771484375 38 c 0
 34.7294921875 74 63.94140625 75 81.94140625 75 c 2
 121.94140625 75 l 1
 219.930664062 536 l 1
 179.930664062 536 l 2
 163.194504817 536 139.639690963 536.77589758 139.639690963 562.248434361 c 0
 139.639690963 565.694013843 140.070673651 569.591468004 141.0078125 574 c 0
 148.659179688 610 177.872070312 611 195.872070312 611 c 2
 259.872070312 611 l 2
 288.904340366 611 298.790055236 604.35011673 298.790055236 586.100062834 c 0
 298.790055236 579.83422112 297.624752901 572.200981489 295.668945312 563 c 2
 226.588867188 238 l 1
 383.733398438 361 l 1
 366.733398438 361 l 2
 350.832957008 361 327.294665554 361.780321104 327.294665554 386.777257773 c 0
 327.294665554 390.077954351 327.705070478 393.800882859 328.59765625 398 c 0
 336.461914062 435 363.674804688 436 382.674804688 436 c 2
 532.674804688 436 l 2
 548.679880095 436 573.836592111 434.418750378 573.836592111 408.76023385 c 0
 573.836592111 405.562072997 573.445758957 401.989849184 572.59765625 398 c 0
 564.9453125 362 534.733398438 361 516.733398438 361 c 2
 485.733398438 361 l 1
 351.202148438 255 l 1
 450.94140625 75 l 1
 477.94140625 75 l 2
 493.911082047 75 519.159529394 74.2128686881 519.159529394 48.1964885556 c 0
 519.159529394 44.8888643482 518.75142313 41.1734441946 517.864257812 37 c 0
310.381835938 -97 m 0
 292.102539062 -183 202.174804688 -225 177.174804688 -225 c 0
 162.89501654 -225 152.289857372 -211.458945539 152.289857372 -198.594732867 c 0
 152.289857372 -176.678574713 175.222467895 -168.95506927 184.715820312 -166 c 0
 192.140625 -164 220.053710938 -155 238.642578125 -124 c 1
 235.642578125 -124 l 2
 211.289638698 -124 191.987408162 -107.357851414 191.987408162 -81.3107906063 c 0
 191.987408162 -77.4100208937 192.420311241 -73.2983213902 193.333984375 -69 c 0
 199.072265625 -42 225.38671875 -17 259.38671875 -17 c 0
 289.800157994 -17 312.807388948 -38.4115112656 312.807388948 -75.2049254911 c 0
 312.807388948 -81.9634062511 312.031101907 -89.2408878395 310.381835938 -97 c 0
EndSplineSet
Validated: 1
EndChar

StartChar: Lcedilla
Encoding: 1114125 -1 13
Width: 525
Flags: HMW
HStem: -225 21G<217 237.5> -124 107<248 262 262 265> 0 75<68 105 77 105 188 407> 536 75<68 235 77 105 188 188 188 235>
VStem: 105 83<75 536 75 536> 208 123<-85.5 -72 -140 -55.5> 407 83<75 134>
LayerCount: 2
Fore
SplineSet
500.203125 48 m 2
 492.125976562 10 482 0 443 0 c 2
 77 0 l 2
 61.0395847186 0 36.5981424223 0.78621869122 36.5981424223 26.061145611 c 0
 36.5981424223 29.2910336684 36.9972793907 32.9208305628 37.8642578125 37 c 0
 45.7294921875 74 73.94140625 75 92.94140625 75 c 2
 120.94140625 75 l 1
 218.930664062 536 l 1
 190.930664062 536 l 2
 174.970414244 536 150.528545481 536.78620239 150.528545481 562.060359537 c 0
 150.528545481 565.290444731 150.927762455 568.920499637 151.794921875 573 c 0
 159.659179688 610 187.872070312 611 206.872070312 611 c 2
 364.872070312 611 l 2
 379.951310335 611 405.091371896 610.213205953 405.091371896 584.213207855 c 0
 405.091371896 580.90138606 404.683471972 577.180477598 403.794921875 573 c 0
 396.142578125 537 364.930664062 536 348.930664062 536 c 2
 301.930664062 536 l 1
 203.94140625 75 l 1
 422.94140625 75 l 1
 435.482421875 134 l 2
 440.796875 159 446.685546875 182 487.685546875 182 c 0
 514.820852264 182 521.660486326 170.955128022 521.660486326 156.358033418 c 0
 521.660486326 149.437633534 520.123172965 141.718816767 518.482421875 134 c 2
 500.203125 48 l 2
310.381835938 -97 m 0
 292.102539062 -183 202.174804688 -225 177.174804688 -225 c 0
 162.89501654 -225 152.289857372 -211.458945539 152.289857372 -198.594732867 c 0
 152.289857372 -176.678574713 175.222467895 -168.95506927 184.715820312 -166 c 0
 192.140625 -164 220.053710938 -155 238.642578125 -124 c 1
 235.642578125 -124 l 2
 211.289638698 -124 191.987408162 -107.357851414 191.987408162 -81.3107906063 c 0
 191.987408162 -77.4100208937 192.420311241 -73.2983213902 193.333984375 -69 c 0
 199.072265625 -42 225.38671875 -17 259.38671875 -17 c 0
 289.800157994 -17 312.807388948 -38.4115112656 312.807388948 -75.2049254911 c 0
 312.807388948 -81.9634062511 312.031101907 -89.2408878395 310.381835938 -97 c 0
EndSplineSet
Validated: 1
EndChar

StartChar: lcedilla
Encoding: 1114126 -1 14
Width: 525
Flags: HMW
HStem: -225 21G<217 237.5> -124 107<248 262 262 265> 0 75<93.5 221 103 221 304 423> 536 75<93.5 257 103 221>
VStem: 208 123<-85.5 -72 -140 -55.5> 221 83<75 536 536 536>
LayerCount: 2
Fore
SplineSet
477.864257812 37 m 0x74
 470.212890625 1 441 0 423 0 c 2
 102 0 l 2
 86.8760295537 0 61.6314610455 0.791468796053 61.6314610455 26.3147077494 c 0
 61.6314610455 29.4806985026 62.0198936378 33.0272315333 62.8642578125 37 c 0
 70.7294921875 74 99.94140625 75 118.94140625 75 c 2
 236.94140625 75 l 1
 334.930664062 536 l 1
 215.930664062 536 l 2
 200.806848486 536 175.561869214 536.791452587 175.561869214 562.313923681 c 0
 175.561869214 565.480112959 175.950380219 569.026903573 176.794921875 573 c 0
 184.659179688 610 213.872070312 611 232.872070312 611 c 2
 386.872070312 611 l 2
 416.721042654 611 426.773536908 604.317791376 426.773536908 585.966947618 c 0
 426.773536908 579.726199347 425.610924139 572.135924892 423.668945312 563 c 2
 319.94140625 75 l 1
 438.94140625 75 l 2
 455.677565495 75 479.232379349 74.2241024203 479.232379349 48.751565639 c 0
 479.232379349 45.3059861572 478.801396661 41.4085319965 477.864257812 37 c 0x74
310.381835938 -97 m 0
 292.102539062 -183 202.174804688 -225 177.174804688 -225 c 0
 162.89501654 -225 152.289857372 -211.458945539 152.289857372 -198.594732867 c 0
 152.289857372 -176.678574713 175.222467895 -168.95506927 184.715820312 -166 c 0
 192.140625 -164 220.053710938 -155 238.642578125 -124 c 1
 235.642578125 -124 l 2
 211.289638698 -124 191.987408162 -107.357851414 191.987408162 -81.3107906063 c 0
 191.987408162 -77.4100208937 192.420311241 -73.2983213902 193.333984375 -69 c 0xc8
 199.072265625 -42 225.38671875 -17 259.38671875 -17 c 0
 289.800157994 -17 312.807388948 -38.4115112656 312.807388948 -75.2049254911 c 0
 312.807388948 -81.9634062511 312.031101907 -89.2408878395 310.381835938 -97 c 0
EndSplineSet
Validated: 1
EndChar

StartChar: macron.dup
Encoding: 1114127 -1 15
Width: 525
Flags: HMW
HStem: 511 77<118 119 119 408>
LayerCount: 2
Fore
SplineSet
571.693359375 549 m 0
 563.829101562 512 535.616210938 511 516.616210938 511 c 2
 227.616210938 511 l 2
 210.048346589 511 186.472146093 511.771574644 186.472146093 537.713577572 c 0
 186.472146093 541.305048279 186.924013966 545.378942263 187.90625 550 c 0
 195.770507812 587 223.983398438 588 242.983398438 588 c 2
 532.983398438 588 l 2
 550.479389962 588 573.169381854 587.234725701 573.169381854 561.603558347 c 0
 573.169381854 557.935251799 572.704621782 553.757616103 571.693359375 549 c 0
EndSplineSet
Validated: 1
EndChar

StartChar: Ncedilla
Encoding: 1114128 -1 16
Width: 525
Flags: HMW
HStem: -225 21G<217 237.5> -124 107<248 262 262 265> 0 75<63.5 90 73 90 160 176> 536 75<63.5 139 73 90 348 364 434 451 434 434>
VStem: 90 70<75 487 75 536 75 536> 208 123<-85.5 -72 -140 -55.5> 364 70<124 536>
LayerCount: 2
Fore
SplineSet
619.794921875 573 m 0
 612.142578125 537 582.930664062 536 564.930664062 536 c 2
 547.930664062 536 l 1
 444.203125 48 l 2
 434.850585938 4 421 0 386 0 c 0
 357 0 339.212890625 1 333.501953125 40 c 2
 263.514648438 487 l 1
 175.94140625 75 l 1
 191.94140625 75 l 2
 208.677565495 75 232.232379349 74.2241024203 232.232379349 48.751565639 c 0
 232.232379349 45.3059861572 231.801396661 41.4085319965 230.864257812 37 c 0
 223.212890625 1 194 0 176 0 c 2
 73 0 l 2
 56.2636677819 0 32.7092977364 0.77591361805 32.7092977364 26.2492241673 c 0
 32.7092977364 29.6946094306 33.1401975407 33.5918048458 34.0771484375 38 c 0
 41.7294921875 74 70.94140625 75 88.94140625 75 c 2
 105.94140625 75 l 1
 203.930664062 536 l 1
 186.930664062 536 l 2
 170.194504817 536 146.639690963 536.77589758 146.639690963 562.248434361 c 0
 146.639690963 565.694013843 147.070673651 569.591468004 148.0078125 574 c 0
 155.659179688 610 184.872070312 611 202.872070312 611 c 2
 268.872070312 611 l 2
 298.872070312 611 315.021484375 607 320.370117188 571 c 2
 390.357421875 124 l 1
 477.930664062 536 l 1
 461.930664062 536 l 2
 445.970414244 536 421.528545481 536.78620239 421.528545481 562.060359537 c 0
 421.528545481 565.290444731 421.927762455 568.920499637 422.794921875 573 c 0
 430.659179688 610 458.872070312 611 477.872070312 611 c 2
 580.872070312 611 l 2
 597.608402531 611 621.162772576 610.224086382 621.162772576 584.750775833 c 0
 621.162772576 581.305390569 620.731872772 577.408195154 619.794921875 573 c 0
310.381835938 -97 m 0
 292.102539062 -183 202.174804688 -225 177.174804688 -225 c 0
 162.89501654 -225 152.289857372 -211.458945539 152.289857372 -198.594732867 c 0
 152.289857372 -176.678574713 175.222467895 -168.95506927 184.715820312 -166 c 0
 192.140625 -164 220.053710938 -155 238.642578125 -124 c 1
 235.642578125 -124 l 2
 211.289638698 -124 191.987408162 -107.357851414 191.987408162 -81.3107906063 c 0
 191.987408162 -77.4100208937 192.420311241 -73.2983213902 193.333984375 -69 c 0
 199.072265625 -42 225.38671875 -17 259.38671875 -17 c 0
 289.800157994 -17 312.807388948 -38.4115112656 312.807388948 -75.2049254911 c 0
 312.807388948 -81.9634062511 312.031101907 -89.2408878395 310.381835938 -97 c 0
EndSplineSet
Validated: 1
EndChar

StartChar: ncedilla
Encoding: 1114129 -1 17
Width: 525
Flags: HMW
HStem: -225 21G<217 237.5> -124 107<248 262 262 265> 0 75<49 93 58 93 176 211 211 212 318 348 431 466 466 467> 361 75<49 129 58 93> 366 75<268 313.5>
VStem: 93 83<75 240 75 361> 129 83 176 83<19 240 19 75> 208 123<-85.5 -72 -140 -55.5> 348 83<75 288 288 293 75 314.5>
LayerCount: 2
Fore
SplineSet
520.864257812 37 m 0x2c40
 513.212890625 1 483 0 467 0 c 2
 318 0 l 2
 302.825073 0 276.664424139 0.796811105369 276.664424139 26.5735340294 c 0
 276.664424139 29.6736742173 277.042828185 33.1351395292 277.864257812 37 c 0
 285.729492188 74 314.94140625 75 333.94140625 75 c 2
 363.94140625 75 l 1
 409.215820312 288 l 2
 412.337659359 302.686932102 414.157800631 315.22371565 414.157800631 325.674189766 c 0
 414.157800631 352.935820828 401.771637894 366 367.795898438 366 c 0
 321.795898438 366 246.356445312 331 227.013671875 240 c 2
 191.94140625 75 l 1
 226.94140625 75 l 2
 243.741483291 75 268.194232666 74.2181645745 268.194232666 48.4586338109 c 0
 268.194232666 45.0854955213 267.774937269 41.2840604987 266.864257812 37 c 0x6940
 259.212890625 1 229 0 212 0 c 2x22
 57 0 l 2
 42.7687404325 0 17.6301136292 0.791127925302 17.6301136292 26.2982208451 c 0
 17.6301136292 29.4683848315 18.0184276557 33.0203340269 18.8642578125 37 c 0
 26.7294921875 74 54.94140625 75 73.94140625 75 c 2
 108.94140625 75 l 1
 169.733398438 361 l 1x34
 133.733398438 361 l 2
 119.502285024 361 94.3632558393 361.791111676 94.3632558393 387.297434985 c 0
 94.3632558393 390.467797827 94.7516482366 394.02000518 95.59765625 398 c 0
 103.25 434 131.674804688 436 150.674804688 436 c 2
 221.674804688 436 l 2x12
 253.189720417 436 262.143500421 428.164182142 262.143500421 411.964885873 c 0
 262.143500421 408.117403026 261.63841189 403.798130942 260.810546875 399 c 1
 288.848632812 418 333.737304688 441 389.737304688 441 c 0
 457.433653884 441 498.990524958 411.011449947 498.990524958 342.031620988 c 0
 498.990524958 327.456782054 497.135259142 311.141215654 493.279296875 293 c 2
 446.94140625 75 l 1
 481.94140625 75 l 2
 498.677565495 75 522.232379349 74.2241024203 522.232379349 48.751565639 c 0
 522.232379349 45.3059861572 521.801396661 41.4085319965 520.864257812 37 c 0x2c40
310.381835938 -97 m 0
 292.102539062 -183 202.174804688 -225 177.174804688 -225 c 0
 162.89501654 -225 152.289857372 -211.458945539 152.289857372 -198.594732867 c 0
 152.289857372 -176.678574713 175.222467895 -168.95506927 184.715820312 -166 c 0
 192.140625 -164 220.053710938 -155 238.642578125 -124 c 1
 235.642578125 -124 l 2
 211.289638698 -124 191.987408162 -107.357851414 191.987408162 -81.3107906063 c 0
 191.987408162 -77.4100208937 192.420311241 -73.2983213902 193.333984375 -69 c 0xc080
 199.072265625 -42 225.38671875 -17 259.38671875 -17 c 0
 289.800157994 -17 312.807388948 -38.4115112656 312.807388948 -75.2049254911 c 0
 312.807388948 -81.9634062511 312.031101907 -89.2408878395 310.381835938 -97 c 0
EndSplineSet
Validated: 1
EndChar

StartChar: OE.dup
Encoding: 1114130 -1 18
Width: 525
Flags: HMW
HStem: -11 75<146.5 205> 0 75<292 434 324 434 324 457> 279 75<324 436 324 436> 536 75<324 427 324 324> 547 75<147 203.5 147 218>
VStem: 27 68<266 368> 252 72<175 279 354 436 436 484> 256 68 427 70<492 536 536 536> 434 70<75 134> 436 68
LayerCount: 2
Fore
SplineSet
514.203125 48 m 2x0020
 506.125976562 10 495 0 457 0 c 2
 296 0 l 2x4020
 288 0 275 0 255.149414062 -4 c 0
 219.662109375 -11 212.662109375 -11 192.662109375 -11 c 0
 79.662109375 -11 58.67578125 22 59.0673828125 85 c 0
 58.24609375 147 75.0380859375 226 92.0419921875 306 c 0
 118.399414062 430 132.239257812 481 155.29296875 533 c 0
 185.534179688 600 231.209960938 622 327.209960938 622 c 0x8d
 344.209960938 622 355.209960938 622 382.934570312 616 c 0
 404.872070312 611 414.872070312 611 425.872070312 611 c 2
 579.872070312 611 l 2
 609.721042654 611 619.773536908 604.317791376 619.773536908 585.966947618 c 0
 619.773536908 579.726199347 618.610924139 572.135924892 616.668945312 563 c 2
 601.578125 492 l 2
 597.96484375 475 589.375 444 556.375 444 c 0
 534.145710685 444 528.839411849 457.251194123 528.839411849 471.177293701 c 0
 528.839411849 478.551352619 530.327216523 486.114644657 531.578125 492 c 2
 540.930664062 536 l 1x1280
 437.930664062 536 l 1
 399.245117188 354 l 1
 511.245117188 354 l 2
 527.913902405 354 550.576138829 353.23033684 550.576138829 328.057997551 c 0
 550.576138829 324.537517282 550.132877911 320.53973405 549.16796875 316 c 0
 541.515625 280 512.303710938 279 495.303710938 279 c 2x3220
 383.303710938 279 l 1
 339.94140625 75 l 1
 449.94140625 75 l 1
 462.482421875 134 l 2x6240
 466.095703125 151 473.685546875 182 507.685546875 182 c 0
 529.714526035 182 534.992865971 168.185901187 534.992865971 153.94379571 c 0
 534.992865971 146.850846243 533.683675932 139.651738009 532.482421875 134 c 2
 514.203125 48 l 2x0020
289.197265625 175 m 2
 344.674804688 436 l 2
 351.562800955 468.405723142 355.121645641 491.581780238 355.121645641 508.066777791 c 0
 355.121645641 540.417591066 341.415931581 547 312.268554688 547 c 0
 211.268554688 547 200.215820312 495 161.743164062 314 c 0
 144.195200367 231.443991739 131.889048454 173.548636257 131.889048454 134.419137067 c 0
 131.889048454 83.0193761497 153.123247828 64 211.603515625 64 c 0x8e
 254.603515625 64 269.642578125 83 289.197265625 175 c 2
EndSplineSet
Validated: 33
EndChar

StartChar: oe.dup
Encoding: 1114131 -1 19
Width: 525
Flags: HMW
HStem: -6 75<144 184 144 194 379.5 407.5> 186 74<321 438 321 460 317 438> 369 75<144.5 183.5 373 398>
VStem: 17 68<181 268.5 181 284.5>
LayerCount: 2
Fore
SplineSet
531.018554688 113 m 0
 526.98046875 94 477.724609375 -6 393.724609375 -6 c 0
 338.724609375 -6 308.65234375 36 295.303710938 72 c 1
 266.439453125 35 219.724609375 -6 165.724609375 -6 c 0
 100.266786948 -6 55.6941287446 55.3876379505 55.6941287446 148.081069494 c 0
 55.6941287446 170.090016926 58.2069937654 193.863885654 63.5498046875 219 c 0
 91.39453125 350 180.375 444 261.375 444 c 0
 317.375 444 344.810546875 399 357.220703125 368 c 1
 388.72265625 408 430.375 444 479.375 444 c 0
 532.409011616 444 566.698521569 400.28379065 566.698521569 318.754191653 c 0
 566.698521569 294.209553394 563.590786864 266.237803361 556.951171875 235 c 0
 549.298828125 199 540.53515625 186 499.53515625 186 c 2
 356.53515625 186 l 1
 356.091041287 180.170700013 355.874615214 174.458413587 355.874615214 168.88794462 c 0
 355.874615214 111.388927948 378.933956527 69 412.666015625 69 c 0
 431.666015625 69 448.705078125 88 462.293945312 119 c 0
 464.569335938 125 475.670898438 149 503.670898438 149 c 0
 518.47695406 149 531.945186554 139.138924982 531.945186554 121.39872461 c 0
 531.945186554 118.770002021 531.649464933 115.968277688 531.018554688 113 c 0
493.264648438 260 m 1
 495.891774421 278.5048997 497.051264902 294.118683817 497.051264902 307.223125301 c 0
 497.051264902 354.312337615 482.079499703 369 466.43359375 369 c 0
 436.43359375 369 398.23046875 321 376.264648438 260 c 1
 493.264648438 260 l 1
290.825195312 225 m 0
 294.784276631 243.625596304 296.587950944 260.937839517 296.587950944 276.631970698 c 0
 296.587950944 333.402380224 272.987102403 369 242.43359375 369 c 0
 203.43359375 369 151.317382812 312 132.825195312 225 c 0
 128.451854782 204.425161226 126.442819003 184.943617881 126.442819003 167.168852982 c 0
 126.442819003 108.919726357 148.018215068 69 178.666015625 69 c 0
 218.666015625 69 272.120117188 137 290.825195312 225 c 0
EndSplineSet
Validated: 1
EndChar

StartChar: Oslash.dup
Encoding: 1114132 -1 20
Width: 525
Flags: HMW
HStem: -83 21G<150 162.5> -11 75<251.5 299 251.5 354.5> 547 75<225 272.5> 674 20G<361.5 374>
VStem: 53 69<283 334.5 223 450.5> 402 69<276.5 388>
LayerCount: 2
Fore
SplineSet
535.830078125 305 m 0
 474.188476562 15 444.662109375 -11 259.662109375 -11 c 0
 238.662109375 -11 219.662109375 -11 197.086914062 -9 c 1
 176.796875 -48 l 2
 168.396484375 -64 157.357421875 -83 132.357421875 -83 c 1
 132.357421875 -83 100.316099401 -80.4943119761 100.316099401 -54.1098788719 c 0
 100.316099401 -51.6244374672 100.600428923 -48.9270999337 101.22265625 -46 c 1
 101.22265625 -46 102.922851562 -38 127.700195312 8 c 1
 97.0790439322 25.1312023685 86.5697151007 53.3579848727 86.5697151007 98.0521913673 c 0
 86.5697151007 113.363507384 87.8030969674 130.607451305 89.8837890625 150 c 0
 94.8740234375 197 108.477539062 261 117.830078125 305 c 0
 179.68359375 596 208.209960938 622 394.209960938 622 c 0
 415.209960938 622 434.209960938 622 456.78515625 620 c 1
 477.075195312 659 l 2
 485.475585938 675 496.514648438 694 521.514648438 694 c 1
 521.514648438 694 553.555970912 691.494311976 553.555970912 665.109878872 c 0
 553.555970912 662.624437467 553.271641389 659.927099934 552.649414062 657 c 1
 552.649414062 657 550.94921875 649 526.171875 603 c 1
 554.155001565 587.926227571 567.027756716 561.505033216 567.027756716 511.799537837 c 0
 567.027756716 465.878051132 556.04036582 400.082519278 535.830078125 305 c 0
467.041992188 306 m 0
 486.363861024 396.901988035 493.267647484 448.171721672 493.267647484 478.541077382 c 0
 493.267647484 502.962320252 488.803364476 513.868486638 482.7421875 521 c 1
 238.81640625 65 l 1
 250.603515625 64 253.603515625 64 276.603515625 64 c 0
 348.603515625 64 388.666015625 69 415.357421875 124 c 0
 438.134765625 170 454.501953125 247 467.041992188 306 c 0
415.055664062 546 m 1
 403.268554688 547 400.268554688 547 377.268554688 547 c 0
 305.268554688 547 265.206054688 542 238.514648438 487 c 0
 215.737304688 441 199.370117188 364 186.830078125 305 c 0
 167.508209289 214.098011965 160.604422828 162.828278328 160.604422828 132.458922618 c 0
 160.604422828 108.037679748 165.068705837 97.1315133624 171.129882812 90 c 1
 415.055664062 546 l 1
EndSplineSet
Validated: 1
EndChar

StartChar: oslash.dup
Encoding: 1114133 -1 21
Width: 525
Flags: HMW
HStem: -136 21G<72.5 89.5> -6 75<253.5 304 253 321.5> 369 75<220 271.5> 552 20G<434.5 451.5>
VStem: 41 71 113 71 341 71 412 71
LayerCount: 2
Fore
SplineSet
596.717773438 535 m 0xfe
 596.080078125 532 594.379882812 524 583.616210938 511 c 2
 487.684570312 389 l 1
 516.121412529 354.816145636 532.331906912 311.976469796 532.331906912 264.42616369 c 0
 532.331906912 249.380726438 530.708978911 233.863680266 527.336914062 218 c 0
 500.767578125 93 379.724609375 -6 260.724609375 -6 c 0
 243.724609375 -6 215.149414062 -4 185.913085938 9 c 1
 88.7685546875 -114 l 2
 81.642578125 -124 70.0927734375 -136 51.0927734375 -136 c 0
 37.6871463519 -136 19.1296525907 -126.415421997 19.1296525907 -106.532447777 c 0
 19.1296525907 -104.167703826 19.3921499088 -101.657288191 19.95703125 -99 c 0
 21.6572265625 -91 35.908203125 -71 45.671875 -58 c 2
 129.990234375 47 l 1
 97.1747930523 84.0589397033 84.1872142117 127.454050165 84.1872142117 170.279102854 c 0
 84.1872142117 186.389295064 86.0251647893 202.418814962 89.3369140625 218 c 0
 115.481445312 341 234.375 444 356.375 444 c 0
 392.375 444 416.674804688 436 432.186523438 429 c 1
 527.90625 550 l 2
 536.03125 560 546.58203125 572 565.58203125 572 c 0
 578.987850239 572 597.544903388 562.415147585 597.544903388 542.531593887 c 0
 597.544903388 540.167099501 597.282483 537.656968351 596.717773438 535 c 0xfe
458.336914062 218 m 0
 460.49987493 228.176008861 461.845053276 239.262135308 461.845053276 250.743859083 c 0
 461.845053276 275.368153474 455.65786591 301.812009415 438.081054688 325 c 1
 239.729492188 74 l 1
 250.87890625 70 257.666015625 69 277.666015625 69 c 0
 359.666015625 69 440.6953125 135 458.336914062 218 c 0
379.370117188 364 m 1
 367.220703125 368 360.43359375 369 339.43359375 369 c 0
 257.43359375 369 176.192382812 302 158.336914062 218 c 0
 156.313112612 208.477687156 154.981766372 197.947880513 154.981766372 186.858284725 c 0
 154.981766372 163.010163269 161.138749062 136.573224587 179.806640625 112 c 1
 379.370117188 364 l 1
EndSplineSet
Validated: 1
EndChar

StartChar: quoteleft.dup
Encoding: 1114134 -1 22
Width: 525
Flags: HMW
HStem: 363 113<259 279 259 279.5> 659 20G<299.5 320.5>
VStem: 177 75<474 498 474 545.5> 177 142<405.5 545.5>
LayerCount: 2
Fore
SplineSet
486.036132812 640 m 0xe0
 482.209960938 622 468.509765625 614 445.958984375 602 c 0
 393.794921875 573 362.954101562 522 352.751953125 474 c 1x20
 356.96484375 475 357.176757812 476 363.176757812 476 c 0
 392.417440996 476 409.434651833 456.769501402 409.434651833 431.666616487 c 0
 409.434651833 427.580782324 408.983832449 423.339377097 408.061523438 419 c 0x90
 402.322265625 392 375.158203125 363 338.158203125 363 c 0
 303.099194808 363 274.597512232 387.595976406 274.597512232 440.581878803 c 0
 274.597512232 452.583376576 276.059759189 466.04138776 279.239257812 481 c 0
 306.659179688 610 431.326171875 679 456.326171875 679 c 0
 471.415146254 679 486.808781609 665.607226599 486.808781609 647.212678333 c 0
 486.808781609 644.883000242 486.56186246 642.47309198 486.036132812 640 c 0xe0
EndSplineSet
Validated: 1
EndChar

StartChar: quoteright.dup
Encoding: 1114135 -1 23
Width: 525
Flags: HMW
HStem: 295 21G<203.5 224.5> 498 113<245 265>
VStem: 205 142<428.5 568.5> 272 75<476 500>
LayerCount: 2
Fore
SplineSet
451.790039062 493 m 0x60
 424.370117188 364 299.704101562 295 274.704101562 295 c 0
 259.615127183 295 244.221491829 308.392773401 244.221491829 326.787321667 c 0
 244.221491829 329.116999758 244.468410978 331.52690802 244.994140625 334 c 0
 248.8203125 352 262.520507812 360 285.071289062 372 c 0
 337.235351562 401 368.075195312 452 378.278320312 500 c 1x90
 374.065429688 499 373.853515625 498 367.853515625 498 c 0
 338.612832441 498 321.595621605 517.230498598 321.595621605 542.333383513 c 0
 321.595621605 546.419217676 322.046440988 550.660622903 322.96875 555 c 0
 328.708007812 582 355.872070312 611 392.872070312 611 c 0
 427.930753103 611 456.432231923 586.404480344 456.432231923 533.419597128 c 0
 456.432231923 521.417726794 454.969848377 507.959225441 451.790039062 493 c 0x60
EndSplineSet
Validated: 1
EndChar

StartChar: Rcedilla
Encoding: 1114136 -1 24
Width: 525
Flags: HMW
HStem: 0 75<58 84 67 84 167 183> 268 75<167 229 229 235 167 167> 536 75<58 240 67 84 166 166 166 229>
VStem: 84 82<343 536 343 536 343 536> 84 83<75 268 75 536> 208 123<-85.5 -72 -140 -55.5> 328 82<133 184.5 129.5 185> 347 83 354 83<419.5 461> 440 83<82.5 112.5>
CounterMasks: 1 e0
LayerCount: 2
Fore
SplineSet
543.830078125 98 m 0xe140
 535.328125 58 494.662109375 -11 428.662109375 -11 c 0
 392.662109375 -11 366.275390625 6 355.077148438 38 c 0xf140
 350.585577428 49.7828675709 348.612468554 61.2945711414 348.612468554 74.432195106 c 0
 348.612468554 96.9738287022 354.42129189 124.302164365 363.284179688 166 c 0
 367.479675166 185.738256566 370.700288415 200.889823984 370.700288415 213.416723092 c 0
 370.700288415 225.006552051 367.943487086 234.349700478 360.651367188 243 c 0
 336.96484375 268 308.96484375 268 291.96484375 268 c 2
 223.96484375 268 l 1
 182.94140625 75 l 1xea
 198.94140625 75 l 2
 215.677565495 75 239.232379349 74.2241024203 239.232379349 48.751565639 c 0
 239.232379349 45.3059861572 238.801396661 41.4085319965 237.864257812 37 c 0
 230.212890625 1 201 0 183 0 c 2
 67 0 l 2
 51.0993912455 0 27.5615337642 0.780337527053 27.5615337642 25.7780469301 c 0
 27.5615337642 29.0785477529 27.9718570742 32.8012175091 28.8642578125 37 c 0
 36.7294921875 74 63.94140625 75 82.94140625 75 c 2
 99.94140625 75 l 1
 197.930664062 536 l 1
 180.930664062 536 l 2
 165.030222633 536 141.491931179 536.780321104 141.491931179 561.777257773 c 0
 141.491931179 565.077954351 141.902336103 568.800882859 142.794921875 573 c 0
 150.659179688 610 177.872070312 611 196.872070312 611 c 2
 369.872070312 611 l 2
 475.26175788 611 533.713250468 546.209246901 533.713250468 470.820417103 c 0
 533.713250468 460.369163449 532.589891962 449.714229117 530.3125 439 c 0xf080
 522.022460938 400 491.481445312 341 423.404296875 303 c 1
 434.853515625 291 448.815429688 272 453.713867188 248 c 0
 454.881034508 240.814553091 455.546359751 235.063290829 455.546359751 228.840814014 c 0
 455.546359751 214.279692337 451.903041666 197.138201864 442.521484375 153 c 0xe2
 436.908491063 126.593143487 431.630900512 101.764652911 431.630900512 85.0768613115 c 0
 431.630900512 72.0630409528 434.840475843 64 443.603515625 64 c 0
 450.603515625 64 456.3671875 77 458.705078125 88 c 0
 469.120117188 137 498.120117188 137 511.120117188 137 c 0
 522.490996588 137 545.337932052 137 545.337932052 110.9014301 c 0
 545.337932052 107.162254232 544.868960695 102.8873618 543.830078125 98 c 0xe140
447.3125 439 m 0
 448.406566234 444.147149237 448.965748536 449.417458757 448.965748536 454.711677777 c 0
 448.965748536 494.674673214 417.104288246 536 342.930664062 536 c 2
 279.930664062 536 l 1
 238.907226562 343 l 1
 301.907226562 343 l 2
 384.907226562 343 437.959960938 395 447.3125 439 c 0
310.381835938 -97 m 0
 292.102539062 -183 202.174804688 -225 177.174804688 -225 c 0
 162.89501654 -225 152.289857372 -211.458945539 152.289857372 -198.594732867 c 0
 152.289857372 -176.678574713 175.222467895 -168.95506927 184.715820312 -166 c 0
 192.140625 -164 220.053710938 -155 238.642578125 -124 c 1
 235.642578125 -124 l 2
 211.289638698 -124 191.987408162 -107.357851414 191.987408162 -81.3107906063 c 0
 191.987408162 -77.4100208937 192.420311241 -73.2983213902 193.333984375 -69 c 0
 199.072265625 -42 225.38671875 -17 259.38671875 -17 c 0
 289.800157994 -17 312.807388948 -38.4115112656 312.807388948 -75.2049254911 c 0
 312.807388948 -81.9634062511 312.031101907 -89.2408878395 310.381835938 -97 c 0
EndSplineSet
Validated: 1
EndChar

StartChar: rcedilla
Encoding: 1114137 -1 25
Width: 525
Flags: HMW
HStem: -225 21G<142 162.5> -124 107<173 187 187 190> 0 75<67.5 148 77 148 231 331> 324 75 361 75<67.5 184 77 148> 366 75
VStem: 133 123<-85.5 -72 -140 -55.5> 148 83<75 189 75 361> 391 98<357.5 366>
LayerCount: 2
Fore
SplineSet
568.283203125 373 m 0x05
 561.694335938 342 534.868164062 324 508.868164062 324 c 0xd280
 485.7119512 324 467.970328495 338.277786234 467.970328495 358.355936722 c 0
 467.970328495 360.821710657 468.237907752 363.374965719 468.795898438 366 c 1x0480
 360.158203125 363 289.453125 275 271.172851562 189 c 2
 246.94140625 75 l 1
 346.94140625 75 l 2
 362.911082047 75 388.159529394 74.2128686881 388.159529394 48.1964885556 c 0
 388.159529394 44.8888643482 387.75142313 41.1734441946 386.864257812 37 c 0
 379.212890625 1 349 0 331 0 c 2
 77 0 l 2
 60.2636677819 0 36.7092977364 0.77591361805 36.7092977364 26.2492241673 c 0
 36.7092977364 29.6946094306 37.1401975407 33.5918048458 38.0771484375 38 c 0
 45.7294921875 74 74.94140625 75 92.94140625 75 c 2
 163.94140625 75 l 1
 224.733398438 361 l 1
 153.733398438 361 l 2x29
 136.997239192 361 113.442425338 361.77589758 113.442425338 387.248434361 c 0
 113.442425338 390.694013843 113.873408026 394.591468004 114.810546875 399 c 0x10
 122.25 434 151.674804688 436 169.674804688 436 c 2
 276.674804688 436 l 2x08
 306.523777029 436 316.576271283 429.317791376 316.576271283 410.966947618 c 0
 316.576271283 404.726199347 315.413658514 397.135924892 313.471679688 388 c 2
 310.49609375 374 l 1
 373.548828125 426 434.737304688 441 482.737304688 441 c 0
 555.666248309 441 569.682740493 409.406893386 569.682740493 386.063474718 c 0
 569.682740493 381.239464368 569.084154042 376.767764095 568.283203125 373 c 0x05
235.381835938 -97 m 0
 217.102539062 -183 127.174804688 -225 102.174804688 -225 c 0
 87.8950165403 -225 77.2898573724 -211.458945539 77.2898573724 -198.594732867 c 0
 77.2898573724 -176.678574713 100.222467895 -168.95506927 109.715820312 -166 c 0
 117.140625 -164 145.053710938 -155 163.642578125 -124 c 1
 160.642578125 -124 l 2
 136.289638698 -124 116.987408162 -107.357851414 116.987408162 -81.3107906063 c 0
 116.987408162 -77.4100208937 117.420311241 -73.2983213902 118.333984375 -69 c 0
 124.072265625 -42 150.38671875 -17 184.38671875 -17 c 0
 214.800157994 -17 237.807388948 -38.4115112656 237.807388948 -75.2049254911 c 0
 237.807388948 -81.9634062511 237.031101907 -89.2408878395 235.381835938 -97 c 0
EndSplineSet
Validated: 1
EndChar

StartChar: tilde.dup
Encoding: 1114138 -1 26
Width: 525
Flags: HMW
HStem: 483 79<309.5 318 309.5 324> 537 79<208 216.5>
LayerCount: 2
Fore
SplineSet
563.645507812 577 m 0x40
 559.606445312 558 525.29296875 533 499.891601562 517 c 0
 473.278320312 500 440.665039062 483 412.665039062 483 c 0x80
 376.665039062 483 360.340820312 505 349.31640625 519 c 0
 340.442382812 529 333.142578125 537 328.142578125 537 c 0x40
 316.142578125 537 289.954101562 522 256.427734375 496 c 0
 246.940429688 489 238.665039062 483 225.665039062 483 c 0x80
 208.025621832 483 195.248667996 498.557452012 195.248667996 515.265075713 c 0
 195.248667996 517.500961861 195.477489758 519.757446369 195.954101562 522 c 0
 200.206054688 542 234.306640625 566 259.708007812 582 c 0
 286.534179688 600 318.934570312 616 346.934570312 616 c 0x40
 382.934570312 616 399.258789062 594 410.495117188 581 c 0
 419.370117188 571 426.45703125 562 431.45703125 562 c 0x80
 443.45703125 562 469.857421875 578 503.171875 603 c 0
 512.659179688 610 520.934570312 616 533.934570312 616 c 0
 551.573987543 616 564.350941379 600.442547988 564.350941379 583.734924287 c 0
 564.350941379 581.499038139 564.122119617 579.242553631 563.645507812 577 c 0x40
EndSplineSet
Validated: 1
EndChar

StartChar: A
Encoding: 65 65 27
Width: 525
Flags: HMW
HStem: 0 75<65 85 78 85 439 446.5> 161 75<207 317 207 335 189 317> 603 20G<245.5 279.5>
LayerCount: 2
Fore
SplineSet
506.864257812 37 m 0
 499.424804688 2 469 0 449 0 c 2
 350 0 l 2
 330.621873937 0 307.529665408 0.775850763882 307.529665408 25.5627410596 c 0
 307.529665408 28.9164245598 307.952397803 32.7096608306 308.864257812 37 c 0
 315.87890625 70 334.729492188 74 369.94140625 75 c 1
 369.221679688 161 l 1
 223.221679688 161 l 1
 185.94140625 75 l 1
 215.577092855 74.1481081581 232.412047617 71.1190571855 232.412047617 49.8387448648 c 0
 232.412047617 46.1389936674 231.903184472 41.887569218 230.864257812 37 c 0
 223.212890625 1 196 0 174 0 c 2
 75 0 l 2
 57.1561588023 0 31.690398253 1.59201334343 31.690398253 26.791955826 c 0
 31.690398253 29.8369884062 32.0622256955 33.2267220959 32.8642578125 37 c 0
 36.265625 53 46.81640625 65 61.3037109375 72 c 0
 67.7294921875 74 86.94140625 75 100.94140625 75 c 1
 325.283203125 580 l 2
 344.209960938 622 361.422851562 623 394.422851562 623 c 0
 429.422851562 623 443.998046875 621 445.0703125 579 c 2
 454.94140625 75 l 1
 469.94140625 75 487.729492188 74 493.091796875 71 c 0
 503.075825771 66.2922583626 507.965241151 57.8907115044 507.965241151 46.7614416831 c 0
 507.965241151 43.7064966365 507.596832011 40.4460223002 506.864257812 37 c 0
367.163085938 236 m 1
 367.427734375 496 l 1
 257.163085938 236 l 1
 367.163085938 236 l 1
EndSplineSet
Validated: 1
EndChar

StartChar: a
Encoding: 97 97 28
Width: 525
Flags: HMW
HStem: -6 75<194.5 226 194.5 234.5> 0 75<459.5 480.5> 369 75<216 257>
VStem: 48 82<115.5 155 115.5 180.5>
LayerCount: 2
Fore
SplineSet
529.077148438 38 m 0x70
 521.424804688 2 497 0 464 0 c 0x40
 427 0 382.424804688 2 363.1640625 29 c 1
 311.212890625 1 250.724609375 -6 215.724609375 -6 c 0x80
 123.085840564 -6 73.6129542756 46.9317025946 73.6129542756 108.155149189 c 0
 73.6129542756 116.324484633 74.4938107627 124.641453196 76.2705078125 133 c 0
 96.462890625 228 226.728515625 281 400.579101562 285 c 1
 401.490311408 290.635341798 401.934191496 295.960502435 401.934191496 300.983324278 c 0
 401.934191496 348.547639005 362.129652077 369 302.43359375 369 c 0
 286.43359375 369 253.795898438 366 253.795898438 366 c 1
 243.65625 323 208.530273438 313 191.530273438 313 c 0
 168.286997006 313 150.102484179 326.339503686 150.102484179 351.742569611 c 0
 150.102484179 355.848371852 150.57751901 360.269311062 151.583007812 365 c 0
 167.737304688 441 272.375 444 317.375 444 c 0
 443.112064768 444 487.056360227 380.214880219 487.056360227 316.519710243 c 0
 487.056360227 306.255027301 485.915110773 295.992680389 483.791015625 286 c 2
 440.216796875 81 l 1
 447.579101562 78 460.94140625 75 489.94140625 75 c 0
 505.901656069 75 530.343524832 74.2137976103 530.343524832 48.9396404626 c 0
 530.343524832 45.7095552688 529.944307857 42.079500363 529.077148438 38 c 0x70
368.333007812 138 m 2
 384.061523438 212 l 1
 252.999023438 207 167.622070312 177 158.270507812 133 c 0
 157.533902884 129.534988762 157.172447065 126.128783906 157.172447065 122.803702525 c 0
 157.172447065 92.5422122208 187.111033285 69 236.666015625 69 c 0x90
 244.666015625 69 286.666015625 69 324.067382812 85 c 0
 360.255859375 100 364.293945312 119 368.333007812 138 c 2
EndSplineSet
Validated: 1
EndChar

StartChar: ampersand
Encoding: 38 38 29
Width: 525
Flags: HMW
HStem: -11 75<132.5 158.5 132.5 179 373.5 395.5> 361 75<420 445 420 420> 398 75 547 75<197.5 220.5>
VStem: 26 81<132.5 164.5 132.5 164.5> 99 69<469.5 498 469.5 524.5> 107 72 153 81 228 81 234 72<469 484> 275 70 364 81 419 70<112 116> 420 69 420 72<361 416.5>
LayerCount: 2
Fore
SplineSet
576.59765625 398 m 0x4090
 568.9453125 362 539.733398438 361 521.733398438 361 c 2x4010
 496.733398438 361 l 1x4002
 409.487304688 214 l 2x0010
 394.385742188 190 367.24609375 147 340.231445312 114 c 1
 349.04296875 99 371.603515625 64 402.603515625 64 c 0
 415.603515625 64 431.154296875 76 442.806640625 112 c 0x8008
 444.506835938 120 453.883789062 150 485.883789062 150 c 1
 485.883789062 150 513.767551627 150.791884318 513.767551627 122.074366318 c 0
 513.767551627 118.520616274 513.340548232 114.514968286 512.380859375 110 c 0
 501.752929688 60 455.662109375 -11 386.662109375 -11 c 0
 332.662109375 -11 300.588867188 31 286.265625 53 c 1
 247.826171875 18 201.662109375 -11 151.662109375 -11 c 0
 85.8909791817 -11 51.8157813203 40.2918243793 51.8157813203 102.48093189 c 0
 51.8157813203 114.989331916 53.1943019237 127.938584242 55.970703125 141 c 0x8824
 65.9609375 188 89.6123046875 224 116.138671875 250 c 0
 119.3515625 251 175.192382812 302 192.380859375 317 c 1
 190.372656232 336.287791322 189.472819928 354.955551155 189.472819928 372.803962197 c 0
 189.472819928 410.4779614 193.481928719 444.501453926 199.5390625 473 c 0
 221.432617188 576 289.209960938 622 340.209960938 622 c 0
 395.432004607 622 413.577487596 578.56337101 413.577487596 529.922383805 c 0
 413.577487596 513.382280018 411.479319728 496.240394664 408.02734375 480 c 0x3440
 403.350585938 458 390.810546875 399 271.916992188 296 c 1
 278.051757812 259 297.999023438 207 309.259765625 180 c 1
 343.67578125 229 385.766601562 300 421.733398438 361 c 1x4020
 406.656392809 361.847590105 392.343398299 366.287225141 392.343398299 386.497232071 c 0
 392.343398299 390.131305917 392.806189482 394.275293257 393.810546875 399 c 0
 401.25 434 430.674804688 436 447.674804688 436 c 2
 537.674804688 436 l 2
 554.411136906 436 577.965506951 435.224086382 577.965506951 409.750775833 c 0
 577.965506951 406.305390569 577.534607147 402.408195154 576.59765625 398 c 0x4090
336.02734375 480 m 0
 336.874205377 483.984773379 340.410677723 500.622661803 340.410677723 516.320092823 c 0
 340.410677723 532.137489932 336.819944534 547 323.268554688 547 c 0
 304.268554688 547 279.166992188 523 268.5390625 473 c 0xb440
 267.108444408 466.266795481 259.522005573 426.225477666 259.522005573 384.024704746 c 0
 259.522005573 382.352547681 259.533916657 380.677000165 259.55859375 379 c 1
 309.336914062 425 330.712890625 455 336.02734375 480 c 0
252.018554688 113 m 1
 236.608398438 144 218.385742188 190 204.013671875 240 c 1
 158.0859375 198 146.323242188 185 137.608398438 144 c 0x09
 135.885855823 135.895860238 134.010910217 123.570509203 134.010910217 111.004822901 c 0
 134.010910217 87.9083916392 140.34531783 64 165.603515625 64 c 0
 178.603515625 64 209.666015625 69 252.018554688 113 c 1
EndSplineSet
Validated: 33
Substitution2: "'lnum' Lining Figures lookup 5 subtable" ampersand
Substitution2: "'onum' Oldstyle Figures lookup 4 subtable" ampersand
Substitution2: "'aalt' Access All Alternates lookup 0 subtable" ampersand
EndChar

StartChar: asciicircum
Encoding: 94 94 30
Width: 525
Flags: W
HStem: 473.846 147.154
LayerCount: 2
Fore
SplineSet
551.630859375 544 m 2
 562.197308808 538.241886201 566.588221106 529.250886678 566.588221106 519.60387351 c 0
 566.588221106 498.321447574 545.2178885 473.846238716 521.638820687 473.846238716 c 0
 516.926331885 473.846238716 512.125618208 474.823867109 507.389648438 477 c 2
 376.568359375 539 l 1
 219.389648438 477 l 2
 213.84943511 474.823867109 208.739363402 473.846238716 204.120272603 473.846238716 c 0
 186.538579933 473.846238716 176.070217556 488.010116664 176.070217556 504.157479819 c 0
 176.070217556 518.857948283 184.746583721 535.202364799 204.630859375 544 c 2
 379.998046875 621 l 2
 389.84765625 625 400.84765625 625 408.998046875 621 c 2
 551.630859375 544 l 2
EndSplineSet
Validated: 1
EndChar

StartChar: asciitilde
Encoding: 126 126 31
Width: 525
Flags: HMW
HStem: 239 79<309.5 318 309.5 324> 293 79<208 216.5>
LayerCount: 2
Fore
SplineSet
511.78125 333 m 0x40
 507.743164062 314 473.428710938 289 448.028320312 273 c 0
 421.4140625 256 388.80078125 239 360.80078125 239 c 0x80
 324.80078125 239 308.477539062 261 297.453125 275 c 0
 288.579101562 285 281.279296875 293 276.279296875 293 c 0x40
 264.279296875 293 238.090820312 278 204.564453125 252 c 0
 195.076171875 245 186.80078125 239 173.80078125 239 c 0x80
 156.161826475 239 143.385080139 254.556636277 143.385080139 271.263761635 c 0
 143.385080139 273.500077735 143.613999851 275.757007036 144.090820312 278 c 0
 148.341796875 298 182.443359375 322 207.84375 338 c 0
 234.669921875 356 267.071289062 372 295.071289062 372 c 0x40
 331.071289062 372 347.39453125 350 358.631835938 337 c 0
 367.505859375 327 374.592773438 318 379.592773438 318 c 0x80
 391.592773438 318 417.994140625 334 451.307617188 359 c 0
 460.795898438 366 469.071289062 372 482.071289062 372 c 0
 499.710243837 372 512.486990174 356.443363723 512.486990174 339.736238365 c 0
 512.486990174 337.499922265 512.258070462 335.242992964 511.78125 333 c 0x40
EndSplineSet
Validated: 1
EndChar

StartChar: asterisk
Encoding: 42 42 32
Width: 525
Flags: HMW
HStem: 88 21G<242.5 281.5> 503 20G<242.5 281.5>
VStem: 222 80<131 136 475 480> 379 80<193 226>
LayerCount: 2
Fore
SplineSet
504.912109375 216 m 0
 501.0859375 198 480.41015625 176 456.41015625 176 c 0
 447.41015625 176 444.41015625 176 420.0234375 193 c 2
 351.013671875 240 l 1
 330.907226562 136 l 2
 328.782226562 126 319.705078125 88 280.705078125 88 c 0
 254.302504933 88 249.017742346 105.415938924 249.017742346 119.769753519 c 0
 249.017742346 126.618371169 250.220828307 132.769890562 250.907226562 136 c 2
 275.013671875 240 l 1
 151.41015625 176 l 1
 115.392887648 176 109.983959588 195.450550168 109.983959588 207.346102368 c 0
 109.983959588 211.63395553 110.686743482 214.940185192 110.912109375 216 c 0
 115.80078125 239 131.501953125 247 148.202148438 255 c 2
 251.041992188 306 l 1
 168.8828125 357 l 2
 157.007657175 363.643534277 147.744893032 369.597434997 147.744893032 384.59761104 c 0
 147.744893032 387.660321908 148.131046459 391.100161047 148.959960938 395 c 0
 152.786132812 413 173.461914062 435 197.461914062 435 c 0
 205.461914062 435 208.461914062 435 222.336914062 425 c 2
 302.858398438 371 l 1
 322.96484375 475 l 2
 325.08984375 485 334.166992188 523 373.166992188 523 c 0
 399.569565379 523 404.854327966 505.584061076 404.854327966 491.230246481 c 0
 404.854327966 484.381628831 403.651242006 478.230109438 402.96484375 475 c 2
 378.858398438 371 l 1
 502.461914062 435 l 1
 538.479182665 435 543.888110724 415.549449832 543.888110724 403.653897632 c 0
 543.888110724 399.36604447 543.185326831 396.059814808 542.959960938 395 c 0
 538.283203125 373 522.370117188 364 505.669921875 356 c 2
 402.830078125 305 l 1
 429.428710938 289 476.90234375 263 494.926757812 249 c 0
 497.75248501 246.478758655 505.883704037 239.013450041 505.883704037 224.823333185 c 0
 505.883704037 222.128771127 505.590506649 219.191724369 504.912109375 216 c 0
EndSplineSet
Validated: 1
EndChar

StartChar: at
Encoding: 64 64 33
Width: 525
Flags: HMW
HStem: -6 75<253 319.5 253 351> 103 75<314.5 355.5 314.5 358> 433 75<316 342.5 293.5 355.5> 542 75<254.5 314>
VStem: 42 70<238 375 238 396> 185 72<269.5 343 269.5 363.5> 333 70 335 68 414 68<268 342>
LayerCount: 2
Fore
SplineSet
500.280273438 86 m 0xbd
 493.903320312 56 395.724609375 -6 303.724609375 -6 c 0
 184.83161141 -6 98.5877613422 89.9197694056 98.5877613422 228.47442967 c 0
 98.5877613422 253.071954724 101.305881701 279.013190255 107.041992188 306 c 0
 145.302734375 486 298.147460938 617 434.147460938 617 c 0
 541.294039564 617 566.31983644 532.350954997 566.31983644 451.118329704 c 0
 566.31983644 398.159319005 555.683142466 346.65238638 550.23046875 321 c 0
 512.8203125 145 404.893554688 103 354.893554688 103 c 0xde80
 292.57374958 103 243.669092272 159.616562651 243.669092272 248.180041536 c 0
 243.669092272 266.200030056 245.693742022 285.542618907 250.041992188 306 c 0
 274.486328125 421 360.978515625 508 441.978515625 508 c 0
 458.978515625 508 474.916015625 503 485.853515625 498 c 1
 471.717773438 535 440.206054688 542 418.206054688 542 c 0
 321.206054688 542 206.587890625 445 176.830078125 305 c 0
 172.416838315 284.237224378 170.327619713 264.242714029 170.327619713 245.276868292 c 0
 170.327619713 141.839843866 232.470516472 69 318.666015625 69 c 0
 349.666015625 69 386.791992188 79 426.168945312 109 c 0
 439.506835938 120 443.719726562 121 462.719726562 121 c 0
 473.549394934 121 501.309256916 120.185543632 501.309256916 95.0358512348 c 0
 501.309256916 92.3179951157 500.985062992 89.3159396133 500.280273438 86 c 0xbd
478.830078125 305 m 0
 481.962792762 319.738891366 483.419434478 333.684375433 483.419434478 346.56780754 c 0
 483.419434478 398.368614717 459.870966861 433 427.037109375 433 c 0x2180
 389.037109375 433 337.984375 381 321.830078125 305 c 0
 318.762740915 290.569581692 317.314227295 276.758793335 317.314227295 263.911862439 c 0
 317.314227295 213.549808386 339.574510054 178 373.834960938 178 c 0
 412.834960938 178 463.100585938 231 478.830078125 305 c 0
EndSplineSet
Validated: 1
EndChar

StartChar: B
Encoding: 66 66 34
Width: 525
Flags: HMW
HStem: 0 75<59.5 87 69 87 171 287 287 308> 280 75<171 263 263 298 171 263> 536 75<68 69 69 87 171 171 171 285>
VStem: 87 84<75 280 355 536> 381 82<432.5 466> 402 82<150 192.5>
LayerCount: 2
Fore
SplineSet
520.34765625 171 m 0xb8
 503.342773438 91 423 0 308 0 c 2
 68 0 l 2
 52.8760295537 0 27.6314610455 0.791468796053 27.6314610455 26.3147077494 c 0
 27.6314610455 29.4806985026 28.0198936378 33.0272315333 28.8642578125 37 c 0
 36.7294921875 74 65.94140625 75 84.94140625 75 c 2
 102.94140625 75 l 1
 200.930664062 536 l 1
 182.930664062 536 l 2
 166.130587021 536 141.677837647 536.781835425 141.677837647 562.541366189 c 0
 141.677837647 565.914504479 142.097133043 569.715939501 143.0078125 574 c 0
 150.659179688 610 180.872070312 611 197.872070312 611 c 2
 417.872070312 611 l 2
 516.694221708 611 562.272909938 547.878371889 562.272909938 482.215400057 c 0
 562.272909938 472.130387422 561.197748582 461.985426714 559.075195312 452 c 0
 547.172851562 396 501.756835938 347 442.23046875 321 c 1
 496.02265334 300.210436065 523.777129608 254.525808338 523.777129608 202.923225899 c 0
 523.777129608 192.472339348 522.638725562 181.778716326 520.34765625 171 c 0xb8
476.86328125 451 m 0
 477.927124084 456.005552437 478.582155738 461.707092518 478.582155738 467.733014627 c 0
 478.582155738 497.82251945 462.249931223 536 398.930664062 536 c 2
 284.930664062 536 l 1
 246.458007812 355 l 1
 338.458007812 355 l 2
 427.458007812 355 468.998046875 414 476.86328125 451 c 0
438.559570312 172 m 0
 440.067989203 179.0965328 440.933083376 186.97199494 440.933083376 195.144138881 c 0
 440.933083376 234.186305229 421.18799023 280 357.515625 280 c 2
 230.515625 280 l 1
 186.94140625 75 l 1
 302.94140625 75 l 2
 381.94140625 75 429.20703125 128 438.559570312 172 c 0
EndSplineSet
Validated: 1
EndChar

StartChar: b
Encoding: 98 98 35
Width: 525
Flags: HMW
HStem: -6 75<266.5 311.5 243.5 336> 366 75<270.5 321> 536 75<48.5 129 58 93>
VStem: 10 83<48 591.5> 93 82 93 83<403 536 536 536> 408 82<174 258>
LayerCount: 2
Fore
SplineSet
536.336914062 218 m 0x64
 509.129882812 90 389.724609375 -6 279.724609375 -6 c 0
 250.724609375 -6 213.424804688 2 182.2265625 34 c 1xca
 176.975585938 14 166 0 135 0 c 0
 107.045960828 0 100.057797672 11.1566206694 100.057797672 25.8632129539 c 0
 100.057797672 32.7266800067 101.579837572 40.3633400033 103.203125 48 c 2
 206.930664062 536 l 1
 170.930664062 536 l 2
 155.806848486 536 130.561869214 536.791452587 130.561869214 562.313923681 c 0
 130.561869214 565.480112959 130.950380219 569.026903573 131.794921875 573 c 0x30
 139.659179688 610 168.872070312 611 187.872070312 611 c 2
 258.872070312 611 l 2
 288.721042654 611 298.773536908 604.317791376 298.773536908 585.966947618 c 0
 298.773536908 579.726199347 297.610924139 572.135924892 295.668945312 563 c 2
 261.66015625 403 l 1
 299.76171875 427 342.737304688 441 385.737304688 441 c 0
 477.358797208 441 541.976183416 369.145620283 541.976183416 270.012656337 c 0
 541.976183416 253.373361498 540.15571546 235.965546121 536.336914062 218 c 0x64
454.336914062 218 m 0
 457.040605165 230.719598871 458.340005541 243.135844875 458.340005541 255.023657284 c 0
 458.340005541 317.904318504 421.984239397 366 364.795898438 366 c 0
 307.795898438 366 244.805664062 319 233.327148438 265 c 2
 218.236328125 194 l 2
 216.565705033 186.140378613 215.633263179 177.100165805 215.633263179 167.551918203 c 0
 215.633263179 123.646841047 235.3485865 69 293.666015625 69 c 0
 358.666015625 69 435.6328125 130 454.336914062 218 c 0
EndSplineSet
Validated: 1
EndChar

StartChar: backslash
Encoding: 92 92 36
Width: 525
Flags: HMW
HStem: -81 21G<414 439> 672 20G<85 110>
LayerCount: 2
Fore
SplineSet
460.709960938 -39 m 0
 456.034179688 -61 433.783203125 -81 409.783203125 -81 c 0
 383.783203125 -81 377.821289062 -62 375.372070312 -50 c 2
 195.422851562 623 l 2
 193.91015625 630 191.249023438 641 193.162109375 650 c 0
 197.837890625 672 220.088867188 692 244.088867188 692 c 0
 270.088867188 692 276.05078125 673 278.5 661 c 2
 458.44921875 -12 l 2
 459.9609375 -19 462.623046875 -30 460.709960938 -39 c 0
EndSplineSet
Validated: 1
EndChar

StartChar: bar
Encoding: 124 124 37
Width: 525
Flags: HMW
HStem: -81 21G<241.5 282.5> 672 20G<241.5 282.5>
VStem: 220 84<-27 638>
LayerCount: 2
Fore
SplineSet
298.260742188 -27 m 2
 295.28515625 -41 285.783203125 -81 244.783203125 -81 c 0
 217.606321906 -81 211.739798733 -63.4251547219 211.739798733 -47.4971384644 c 0
 211.739798733 -39.3955885149 213.257525654 -31.7200893397 214.260742188 -27 c 2
 355.611328125 638 l 2
 358.586914062 652 368.088867188 692 409.088867188 692 c 0
 436.265748407 692 442.13227158 674.425154722 442.13227158 658.497138464 c 0
 442.13227158 650.395588515 440.614544658 642.72008934 439.611328125 638 c 2
 298.260742188 -27 l 2
EndSplineSet
Validated: 1
EndChar

StartChar: braceleft
Encoding: 123 123 38
Width: 525
Flags: HMW
HStem: -81 75<429 431.5> 268 75<89 95> 617 75<420 431.5 385.5 440>
VStem: 221 83<57 211 400.5 416>
CounterMasks: 1 e0
LayerCount: 2
Fore
SplineSet
460.860351562 -43 m 0
 452.995117188 -80 424.783203125 -81 403.783203125 -81 c 0
 355.783203125 -81 302.270507812 -74 265.159179688 -51 c 0
 235.553659311 -31.6418876406 227.858136736 -6.43461012858 227.858136736 17.3167489082 c 0
 227.858136736 31.6007166879 230.641429631 45.3581123594 233.116210938 57 c 2
 267.549804688 219 l 2
 274.90234375 263 175.752929688 267 151.96484375 268 c 0
 141.348378535 268 117.75921088 269.565407412 117.75921088 294.855013351 c 0
 117.75921088 298.150747742 118.159831133 301.849395645 119.041992188 306 c 0
 125.418945312 336 152.907226562 343 160.907226562 343 c 0
 181.907226562 343 230.119140625 344 267.095703125 358 c 0
 300.071289062 372 302.833984375 385 309.423828125 416 c 2
 346.770507812 587 l 2
 366.475585938 675 497.088867188 692 568.088867188 692 c 0
 586.596468172 692 610.376477007 691.223285047 610.376477007 665.71130443 c 0
 610.376477007 662.275633031 609.945209341 658.391369693 609.01171875 654 c 0
 602.635742188 624 575.147460938 617 567.147460938 617 c 0
 557.633947424 617 542.40522921 617.972242513 525.38368692 617.972242513 c 0
 485.150950597 617.972242513 434.902106208 612.540540541 426.432617188 576 c 2
 386.046875 386 l 2
 380.9453125 362 360.143554688 330 318.830078125 305 c 1
 345.650786895 285.192985879 352.457583163 261.462793674 352.457583163 240.428861182 c 0
 352.457583163 229.604484749 350.654949094 219.494154899 348.849609375 211 c 2
 315.690429688 55 l 2
 314.382712413 48.8475962963 313.120003547 42.6951925926 313.120003547 36.791052935 c 0
 313.120003547 14.8654112069 330.533846076 -3.63645555556 427.724609375 -6 c 0
 437.520148278 -6 462.045752956 -7.58599309747 462.045752956 -32.6491324588 c 0
 462.045752956 -35.7309002547 461.674945369 -39.1676237817 460.860351562 -43 c 0
EndSplineSet
Validated: 33
EndChar

StartChar: braceright
Encoding: 125 125 39
Width: 525
Flags: HMW
HStem: -81 75<84 147.5> 268 75<429 435 429 440> 617 75<93 94>
VStem: 221 83<195 210.5 195 225 195 227 399 555>
CounterMasks: 1 e0
LayerCount: 2
Fore
SplineSet
534.830078125 305 m 0
 528.453125 275 500.96484375 268 492.96484375 268 c 0
 470.96484375 268 424.752929688 267 387.776367188 253 c 0
 354.80078125 239 352.038085938 226 345.448242188 195 c 2
 308.1015625 24 l 2
 294.072265625 -42 174.783203125 -81 85.783203125 -81 c 0
 68.0946415459 -81 43.5319246655 -80.2177869732 43.5319246655 -54.4399701563 c 0
 43.5319246655 -51.0714748758 43.9513513163 -47.2761610787 44.8603515625 -43 c 0
 51.236328125 -13 78.724609375 -6 86.724609375 -6 c 0
 219.149414062 -4 226.313476562 25 232.052734375 52 c 2
 268.825195312 225 l 2
 269.67578125 229 280.028320312 273 335.041992188 306 c 1
 311.992512559 323.040032149 302.501253822 344.471182568 302.501253822 370.293451258 c 0
 302.501253822 379.325117976 303.662357036 388.893967557 305.810546875 399 c 2
 338.96875 555 l 2
 340.333159471 561.418783913 341.65179029 567.837567826 341.65179029 573.982098015 c 0
 341.65179029 596.555765566 323.854654799 615.427918928 225.147460938 617 c 0
 210.322162382 617 191.741810042 620.802586112 191.741810042 642.998798763 c 0
 191.741810042 646.254728858 192.141613306 649.906444339 193.01171875 654 c 0
 200.876953125 691 230.088867188 692 250.088867188 692 c 0
 285.088867188 692 347.239257812 688 389.712890625 662 c 0
 419.419123044 642.576035225 427.066037277 617.263042236 427.066037277 593.686906138 c 0
 427.066037277 579.636315279 424.350034968 566.202614734 421.96875 555 c 2
 387.53515625 393 l 2
 379.969726562 348 480.119140625 344 501.907226562 343 c 0
 512.523691778 343 536.112859432 341.434592588 536.112859432 316.144986649 c 0
 536.112859432 312.849252258 535.71223918 309.150604355 534.830078125 305 c 0
EndSplineSet
Validated: 33
EndChar

StartChar: bracketleft
Encoding: 91 91 40
Width: 525
Flags: HMW
HStem: -81 75<244.5 441 300 441 300 441> 617 75<300 441 300 300>
VStem: 218 82<-6 617 -6 644 -6 662.5>
LayerCount: 2
Fore
SplineSet
477.647460938 -44 m 0
 469.995117188 -80 441.783203125 -81 423.783203125 -81 c 2
 246.783203125 -81 l 2
 217.750341491 -81 207.864815333 -74.3498457226 207.864815333 -56.0989471941 c 0
 207.864815333 -49.8333150552 209.029909628 -42.2004354148 210.985351562 -33 c 2
 354.88671875 644 l 2
 362.750976562 681 373.088867188 692 411.088867188 692 c 2
 588.088867188 692 l 2
 604.757477739 692 627.420165499 691.23035297 627.420165499 666.058788858 c 0
 627.420165499 662.538116347 626.976820036 658.540074189 626.01171875 654 c 0
 618.360351562 618 590.147460938 617 572.147460938 617 c 2
 431.147460938 617 l 1
 298.724609375 -6 l 1
 439.724609375 -6 l 2
 456.393394593 -6 479.055631017 -6.76966315965 479.055631017 -31.9420024495 c 0
 479.055631017 -35.4624827178 478.612370099 -39.4602659503 477.647460938 -44 c 0
EndSplineSet
Validated: 1
EndChar

StartChar: bracketright
Encoding: 93 93 41
Width: 525
Flags: HMW
HStem: -81 75<73.5 224 83 224 83 260> 617 75<73.5 260 83 224>
VStem: 224 82<-6 617 617 617>
LayerCount: 2
Fore
SplineSet
298.985351562 -33 m 2
 291.12109375 -70 280.783203125 -81 242.783203125 -81 c 2
 65.783203125 -81 l 2
 49.1145925735 -81 26.4519048132 -80.2303529703 26.4519048132 -55.0587888582 c 0
 26.4519048132 -51.5381163468 26.8952502766 -47.5400741891 27.8603515625 -43 c 0
 35.51171875 -7 63.724609375 -6 81.724609375 -6 c 2
 222.724609375 -6 l 1
 355.147460938 617 l 1
 214.147460938 617 l 2
 197.47867572 617 174.816439296 617.76966316 174.816439296 642.942002449 c 0
 174.816439296 646.462482718 175.259700214 650.46026595 176.224609375 655 c 0
 183.876953125 691 212.088867188 692 230.088867188 692 c 2
 407.088867188 692 l 2
 436.121728821 692 446.007254979 685.349845723 446.007254979 667.098947194 c 0
 446.007254979 660.833315055 444.842160685 653.200435415 442.88671875 644 c 2
 298.985351562 -33 l 2
EndSplineSet
Validated: 1
EndChar

StartChar: C
Encoding: 67 67 42
Width: 525
Flags: HMW
HStem: -11 75<242.5 304 242.5 340> 547 75<242.5 304.5 216 312>
VStem: 38 83<235.5 376 235.5 397> 403 83
LayerCount: 2
Fore
SplineSet
522.559570312 172 m 0
 503.004882812 80 396.662109375 -11 278.662109375 -11 c 0
 170.283992486 -11 93.5170098336 82.1325073101 93.5170098336 219.146678653 c 0
 93.5170098336 246.481573208 96.5724817744 275.563041467 103.041992188 306 c 0
 141.727539062 488 283.209960938 622 413.209960938 622 c 0
 460.209960938 622 500.383789062 604 528.0703125 579 c 1
 539.68359375 596 540.108398438 598 542.74609375 601 c 0
 550.659179688 610 562.209960938 622 581.209960938 622 c 0
 605.085977021 622 610.855391212 609.243935049 610.855391212 595.109196397 c 0
 610.855391212 587.931728285 609.367748304 580.398769289 608.0078125 574 c 2
 579.3125 439 l 2
 574.2109375 415 568.109375 391 527.109375 391 c 0
 495.620783537 391 493.130374997 405.569440867 493.130374997 423.056991266 c 0
 493.130374997 425.007092268 493.161343973 426.993480836 493.186523438 429 c 0
 493.362579648 432.349298231 493.449286871 435.634779651 493.449286871 438.855464613 c 0
 493.449286871 507.754774799 453.767745342 547 400.268554688 547 c 0
 317.268554688 547 215.799804688 446 186.041992188 306 c 0
 180.566385534 280.238652576 178.011646162 255.812543865 178.011646162 233.093704088 c 0
 178.011646162 131.465150234 229.133405916 64 298.603515625 64 c 0
 336.603515625 64 415.280273438 86 440.41015625 176 c 0
 450.849609375 211 477.849609375 211 488.849609375 211 c 0
 500.266893956 211 524.025422294 211 524.025422294 184.580595238 c 0
 524.025422294 180.91821834 523.568860516 176.748146258 522.559570312 172 c 0
EndSplineSet
Validated: 1
EndChar

StartChar: c
Encoding: 99 99 43
Width: 525
Flags: HMW
HStem: -6 75<259 330 259 363.5> 369 75<241.5 304>
VStem: 70 83<176 240.5 176 262.5> 304 83 355 102<368 368>
LayerCount: 2
Fore
SplineSet
493.231445312 114 m 0xf0
 489.618164062 97 433.724609375 -6 290.724609375 -6 c 0
 180.770247221 -6 111.213368799 71.2066501909 111.213368799 170.457296499 c 0
 111.213368799 185.843594413 112.885004627 201.759667879 116.336914062 218 c 0
 135.254882812 307 225.375 444 398.375 444 c 0xf0
 442.079955595 444 536.250818342 441.405898854 536.250818342 379.932198147 c 0
 536.250818342 375.297516089 535.715542398 370.32815691 534.583007812 365 c 0
 527.568359375 332 499.530273438 313 471.530273438 313 c 0
 448.589270492 313 431.559804153 323.829004448 431.559804153 351.62104354 c 0
 431.559804153 356.53834402 432.092910324 361.986671031 433.220703125 368 c 1x08
 382.43359375 369 l 2
 257.43359375 369 208.90234375 263 199.336914062 218 c 0
 196.993067423 206.972908574 195.873427139 196.273246025 195.873427139 186.005076926 c 0
 195.873427139 118.054414693 244.905457664 69 312.666015625 69 c 0
 376.666015625 69 405.59375 111 413.14453125 123 c 0
 427.24609375 147 439.670898438 149 458.670898438 149 c 0
 465.01834857 149 494.213677475 148.177752588 494.213677475 122.674174587 c 0
 494.213677475 120.052278221 493.905115655 117.169527926 493.231445312 114 c 0xf0
EndSplineSet
Validated: 1
EndChar

StartChar: colon
Encoding: 58 58 44
Width: 525
Flags: HMW
HStem: 0 137<244.5 280.5 242 283> 298 138<244.5 280.5 242 283>
VStem: 194 137<51 86 349 384>
LayerCount: 2
Fore
SplineSet
408.795898438 366 m 0
 401.568359375 332 367.341796875 298 325.341796875 298 c 0
 294.76727221 298 270.422770687 320.129996078 270.422770687 352.390920258 c 0
 270.422770687 357.060491602 270.932807247 361.942313903 272.0078125 367 c 0
 279.235351562 401 313.674804688 436 355.674804688 436 c 0
 386.160632964 436 410.452532138 413.998215473 410.452532138 381.228759347 c 0
 410.452532138 376.376440726 409.919907044 371.288029733 408.795898438 366 c 0
345.454101562 68 m 0
 338.2265625 34 304 0 262 0 c 0
 231.425475335 0 207.080973812 22.1299960782 207.080973812 54.3909202577 c 0
 207.080973812 59.0604916022 207.591010372 63.9423139026 208.666015625 69 c 0
 215.893554688 103 250.120117188 137 292.120117188 137 c 0
 322.631952214 137 347.10107786 115.720638247 347.10107786 83.0997572188 c 0
 347.10107786 78.3013602857 346.571634604 73.2575646827 345.454101562 68 c 0
EndSplineSet
Validated: 1
EndChar

StartChar: comma
Encoding: 44 44 45
Width: 525
Flags: HMW
HStem: 0 137<244 263.5>
VStem: 194 158<48 64.5 -24.5 86.5>
LayerCount: 2
Fore
SplineSet
358.801757812 32 m 0
 334.783203125 -81 217.3046875 -135 184.3046875 -135 c 0
 166.544884786 -135 152.925616143 -119.229470378 152.925616143 -102.392689611 c 0
 152.925616143 -100.268921053 153.14231172 -98.1281874219 153.594726562 -96 c 0
 158.696289062 -72 181.18359375 -65 193.821289062 -62 c 0
 204.671875 -58 244.22265625 -46 270.212890625 1 c 1
 267 0 265 0 262 0 c 0
 230.797643613 0 206.911656999 20.2830634187 206.911656999 53.0358646586 c 0
 206.911656999 58.0719031464 207.476365553 63.4027491181 208.666015625 69 c 0
 216.10546875 104 248.120117188 137 292.120117188 137 c 0
 331.85674507 137 361.942137768 108.407884193 361.942137768 60.2887132133 c 0
 361.942137768 51.4931142041 360.936942917 42.0450890991 358.801757812 32 c 0
EndSplineSet
Validated: 1
EndChar

StartChar: D
Encoding: 68 68 46
Width: 525
Flags: HMW
HStem: 0 75<56 79 65 79 162 248 248 266> 536 75<56 266 65 79 162 162 162 248>
VStem: 79 83<75 536 75 536> 405 82<246 355.5>
LayerCount: 2
Fore
SplineSet
550.979492188 301 m 0
 516.7578125 140 397 0 266 0 c 2
 65 0 l 2
 48.9829602918 0 23.6328014869 0.791807287078 23.6328014869 26.3310828492 c 0
 23.6328014869 29.4929261264 24.021349073 33.0340794164 24.8642578125 37 c 0
 32.7294921875 74 61.94140625 75 80.94140625 75 c 2
 94.94140625 75 l 1
 192.930664062 536 l 1
 178.930664062 536 l 2
 162.913787895 536 137.563209988 536.791791118 137.563209988 562.330300555 c 0
 137.563209988 565.492342029 137.951836027 569.033752334 138.794921875 573 c 0
 146.659179688 610 175.872070312 611 194.872070312 611 c 2
 395.872070312 611 l 2
 503.364938276 611 560.775240365 513.670994246 560.775240365 391.340672759 c 0
 560.775240365 362.312740754 557.542626791 331.877054571 550.979492188 301 c 0
468.979492188 301 m 0
 474.214280031 325.627442777 477.030032167 351.122715361 477.030032167 375.836461393 c 0
 477.030032167 460.504689845 443.981040811 536 361.930664062 536 c 2
 275.930664062 536 l 1
 177.94140625 75 l 1
 263.94140625 75 l 2
 367.94140625 75 445.598632812 191 468.979492188 301 c 0
EndSplineSet
Validated: 1
EndChar

StartChar: d
Encoding: 100 100 47
Width: 525
Flags: HMW
HStem: -6 75<203 257.5> 0 75<375.5 467 431 466> 366 75<212.5 261 187 274> 536 75<303.5 384 313 348>
VStem: 265 83<406 591.5> 348 83<406 536 536 536> 431 83<19.5 563 19.5 75>
CounterMasks: 1 0e
LayerCount: 2
Fore
SplineSet
522.077148438 38 m 0x7e
 514.212890625 1 485 0 466 0 c 2
 395 0 l 2x4e
 363.497447357 0 355.051900052 7.17719858842 355.051900052 24.6938345954 c 0
 355.051900052 28.8627049036 355.530269194 33.6172172819 356.290039062 39 c 1
 322.975585938 14 280.724609375 -6 231.724609375 -6 c 0x8e
 139.954679099 -6 74.5415584628 66.0873936661 74.5415584628 165.469379985 c 0
 74.5415584628 181.962740897 76.3431977678 199.207862472 80.125 217 c 0
 107.544921875 346 225.737304688 441 335.737304688 441 c 0
 373.737304688 441 408.186523438 429 434.297851562 406 c 1
 461.930664062 536 l 1
 425.930664062 536 l 2
 410.806848486 536 385.561869214 536.791452587 385.561869214 562.313923681 c 0
 385.561869214 565.480112959 385.950380219 569.026903573 386.794921875 573 c 0
 394.659179688 610 423.872070312 611 442.872070312 611 c 2
 513.872070312 611 l 2
 543.721042654 611 553.773536908 604.317791376 553.773536908 585.966947618 c 0
 553.773536908 579.726199347 552.610924139 572.135924892 550.668945312 563 c 2
 446.94140625 75 l 1
 482.94140625 75 l 2
 498.065221826 75 523.310201098 74.2085474132 523.310201098 48.6860763192 c 0
 523.310201098 45.5198870412 522.921690093 41.9730964267 522.077148438 38 c 0x7e
388.874023438 197 m 2
 403.540039062 266 l 2
 404.859664623 272.208290794 405.500935591 278.416581589 405.500935591 284.529158234 c 0
 405.500935591 327.645724097 373.594281116 366 322.795898438 366 c 0
 257.795898438 366 181.041992188 306 162.125 217 c 0
 159.358757949 203.985891276 158.038341813 191.374797486 158.038341813 179.366599734 c 0
 158.038341813 115.712895729 195.140786061 69 250.666015625 69 c 0xae
 320.666015625 69 378.033203125 146 388.874023438 197 c 2
EndSplineSet
Validated: 1
EndChar

StartChar: dollar
Encoding: 36 36 48
Width: 525
Flags: HMW
HStem: -81 21G<244.5 281> 672 20G<244.5 281>
VStem: 55 76<436 472.5 430.5 485> 225 75<-33 -4 -4 -4 74 267 367 538 538 538 615 644> 393 76<149 193>
LayerCount: 2
Fore
SplineSet
505.984375 174 m 0
 491.318359375 105 423.0390625 19 299.362304688 -3 c 1
 292.985351562 -33 l 2
 288.947265625 -52 281.783203125 -81 245.783203125 -81 c 0
 221.086924457 -81 215.175249364 -68.0801466604 215.175249364 -53.8376623845 c 0
 215.175249364 -46.7420363611 216.642554695 -39.3181271703 217.985351562 -33 c 2
 224.149414062 -4 l 1
 130.546541316 7.91055513474 87.1666653681 65.4193928609 87.1666653681 133.428158354 c 0
 87.1666653681 145.358800062 88.5016803198 157.61257687 91.134765625 170 c 0
 102.1875 222 145.038085938 226 155.038085938 226 c 0
 175.260964463 226 196.226734535 211.311282606 196.226734535 185.332568041 c 0
 196.226734535 181.765022204 195.8313546 177.984565593 194.984375 174 c 0
 190.521484375 153 180.395507812 143 172.120117188 137 c 1
 177.830078125 98 205.791992188 79 240.303710938 72 c 1
 285.153320312 283 l 1
 166.059114318 308.034875921 147.072262608 376.234008894 147.072262608 418.176275967 c 0
 147.072262608 431.520674495 148.99423508 442.207182488 150.225585938 448 c 0
 165.954101562 522 244.108398438 598 355.509765625 614 c 1
 361.88671875 644 l 2
 365.924804688 663 373.088867188 692 410.088867188 692 c 0
 433.964883271 692 439.734297462 679.243935049 439.734297462 665.109196397 c 0
 439.734297462 657.931728285 438.246654554 650.398769289 436.88671875 644 c 2
 430.72265625 615 l 1
 526.809545211 604.746103349 568.889881334 549.952719281 568.889881334 486.182809747 c 0
 568.889881334 475.323635289 567.66965268 464.204163157 565.288085938 453 c 0
 556.360351562 411 525.59765625 398 501.59765625 398 c 0
 474.853342318 398 460.093187248 415.862851056 460.093187248 437.462137416 c 0
 460.093187248 440.899121526 460.466925168 444.430714911 461.225585938 448 c 0
 463.98828125 461 471.751953125 474 482.665039062 483 c 1
 475.7421875 521 441.504882812 534 414.568359375 539 c 1
 374.607421875 351 l 1
 484.461756114 327.546886254 509.369950845 258.310897234 509.369950845 206.764997358 c 0
 509.369950845 194.573897848 507.976666514 183.37232505 505.984375 174 c 0
303.0078125 367 m 1
 339.35546875 538 l 1
 283.017578125 527 235.790039062 493 227.075195312 452 c 0
 226.140715265 447.603480558 225.692875503 443.332408709 225.692875503 439.195335348 c 0
 225.692875503 402.869911754 260.219774967 376.87530898 303.0078125 367 c 1
429.34765625 171 m 0
 430.543662844 176.627325927 431.129978679 182.156510955 431.129978679 187.549900252 c 0
 431.129978679 224.327363002 403.867106039 254.790512795 356.752929688 267 c 1
 315.729492188 74 l 1
 374.280273438 86 419.995117188 127 429.34765625 171 c 0
EndSplineSet
Validated: 1
Substitution2: "'onum' Oldstyle Figures lookup 4 subtable" dollar.oldstyle
Substitution2: "'aalt' Access All Alternates lookup 0 subtable" dollar.oldstyle
EndChar

StartChar: E
Encoding: 69 69 49
Width: 525
Flags: HMW
HStem: 0 75<63 93 72 93 176 421> 279 75<176 288 176 288> 536 75<63 436 72 93 176 176 176 399>
VStem: 93 83<75 279 354 536> 288 83<279 279 354 354> 399 83<492 536 536 536> 421 83<75 134>
LayerCount: 2
Fore
SplineSet
514.203125 48 m 2xfa
 506.125976562 10 495 0 457 0 c 2
 72 0 l 2
 55.9829602918 0 30.6328014869 0.791807287078 30.6328014869 26.3310828492 c 0
 30.6328014869 29.4929261264 31.021349073 33.0340794164 31.8642578125 37 c 0
 39.7294921875 74 68.94140625 75 87.94140625 75 c 2
 108.94140625 75 l 1
 206.930664062 536 l 1
 185.930664062 536 l 2
 169.960988265 536 144.712540919 536.787131312 144.712540919 562.803511444 c 0
 144.712540919 566.111135652 145.120647183 569.826555805 146.0078125 574 c 0
 153.659179688 610 183.872070312 611 201.872070312 611 c 2
 565.872070312 611 l 2
 594.904340366 611 604.790055236 604.35011673 604.790055236 586.100062834 c 0
 604.790055236 579.83422112 603.624752901 572.200981489 601.668945312 563 c 2
 586.578125 492 l 2
 581.689453125 469 576.375 444 534.375 444 c 0
 507.225640983 444 500.588680315 455.977675044 500.588680315 470.55265398 c 0
 500.588680315 477.451447484 502.07564161 484.932147459 503.578125 492 c 2
 512.930664062 536 l 1xb4
 289.930664062 536 l 1
 251.245117188 354 l 1
 363.245117188 354 l 1
 372.747070312 394 379.935546875 409 416.935546875 409 c 0
 444.213745832 409 450.883404764 397.373435338 450.883404764 383.000554848 c 0
 450.883404764 376.297439063 449.43273206 368.996990574 447.9453125 362 c 2
 428.602539062 271 l 2
 423.713867188 248 417.400390625 223 377.400390625 223 c 0
 351.620398818 223 343.408814768 230.282045043 343.408814768 248.566930942 c 0
 343.408814768 256.524907467 344.964234989 266.567017948 347.303710938 279 c 1
 235.303710938 279 l 1
 191.94140625 75 l 1
 436.94140625 75 l 1
 449.482421875 134 l 2
 454.583984375 158 460.685546875 182 501.685546875 182 c 0
 528.827787761 182 535.565958284 170.48904312 535.565958284 155.902824801 c 0
 535.565958284 148.993075443 534.053856009 141.393211491 532.482421875 134 c 2
 514.203125 48 l 2xfa
EndSplineSet
Validated: 1
EndChar

StartChar: e
Encoding: 101 101 50
Width: 525
Flags: HMW
HStem: -6 75<257.5 303.5 257.5 352> 186 74<140 381 140 420 139 381> 369 75<239 293>
LayerCount: 2
Fore
SplineSet
491.231445312 114 m 0
 485.705078125 88 418.724609375 -6 282.724609375 -6 c 0
 169.24676802 -6 93.6238890703 71.7205022971 93.6238890703 173.286398203 c 0
 93.6238890703 188.074200165 95.2270039721 203.367496051 98.5498046875 219 c 0
 124.907226562 343 244.375 444 364.375 444 c 0
 472.772358957 444 522.256845636 376.21556113 522.256845636 287.670763474 c 0
 522.256845636 269.207709604 520.10530257 249.84201313 515.887695312 230 c 0
 506.53515625 186 484.53515625 186 459.53515625 186 c 2
 178.53515625 186 l 1
 180.806640625 112 238.666015625 69 305.666015625 69 c 0
 330.666015625 69 381.3671875 77 411.14453125 123 c 0
 424.8203125 145 434.670898438 149 456.670898438 149 c 0
 463.01834857 149 492.213677475 148.177752588 492.213677475 122.674174587 c 0
 492.213677475 120.052278221 491.905115655 117.169527926 491.231445312 114 c 0
436.264648438 260 m 1
 436.777199296 265.951789742 437.02384733 271.599371917 437.02384733 276.956513974 c 0
 437.02384733 349.907137998 391.286670438 369 348.43359375 369 c 0
 286.43359375 369 224.65625 323 195.264648438 260 c 1
 436.264648438 260 l 1
EndSplineSet
Validated: 1
EndChar

StartChar: eight
Encoding: 56 56 51
Width: 525
Flags: HMW
HStem: -11 75<224 300 224 326> 291 75<229 295 229 304> 547 75<226 297.5>
VStem: 42 83<146.5 206 146.5 212> 55 83<431.5 480.5 431.5 499> 386 83<431.5 480.5> 399 83<146.5 206>
LayerCount: 2
Fore
SplineSet
519.622070312 177 m 0x2c
 498.791992188 79 387.662109375 -11 259.662109375 -11 c 0
 146.983933779 -11 76.1283582799 59.8458932978 76.1283582799 144.268348972 c 0
 76.1283582799 154.998763975 77.2730567595 165.948513452 79.6220703125 177 c 0xd2
 94.501953125 247 159.404296875 303 231.930664062 329 c 1
 178.71343407 353.015052935 149.955428591 391.742421368 149.955428591 435.718256133 c 0
 149.955428591 443.015403224 150.747267392 450.457064485 152.350585938 458 c 0
 169.780273438 540 272.209960938 622 394.209960938 622 c 0
 502.599662408 622 569.08921876 557.003447977 569.08921876 483.795528377 c 0
 569.08921876 475.278356465 568.189248557 466.650039487 566.350585938 458 c 0
 555.084960938 405 507.095703125 358 431.930664062 329 c 1
 484.123767218 306.560126307 522.628726905 261.773450928 522.628726905 204.926320679 c 0
 522.628726905 195.907421255 521.659541938 186.584955443 519.622070312 177 c 0x2c
483.138671875 457 m 0
 484.087713891 461.464857689 484.550785349 465.893617678 484.550785349 470.252845541 c 0
 484.550785349 511.781689338 442.523769669 547 378.268554688 547 c 0
 306.268554688 547 245.12890625 504 235.138671875 457 c 0xac
 234.130770729 452.258388482 233.644434941 447.611860269 233.644434941 443.083721234 c 0
 233.644434941 398.907935485 279.932101579 366 339.795898438 366 c 0
 405.795898438 366 472.084960938 405 483.138671875 457 c 0
436.834960938 178 m 0
 438.191173134 184.3803948 438.862125988 190.773770926 438.862125988 197.094344322 c 0
 438.862125988 246.24872527 398.282923425 291 323.853515625 291 c 0
 239.853515625 291 174.73828125 234 162.834960938 178 c 0x52
 161.377096232 171.141061267 160.672495103 164.424359996 160.672495103 157.900224657 c 0
 160.672495103 104.499560788 207.877790922 64 275.603515625 64 c 0
 351.603515625 64 423.444335938 115 436.834960938 178 c 0
EndSplineSet
Validated: 1
Substitution2: "'onum' Oldstyle Figures lookup 4 subtable" eight.taboldstyle
Substitution2: "'aalt' Access All Alternates lookup 0 subtable" eight.taboldstyle
EndChar

StartChar: equal
Encoding: 61 61 52
Width: 525
Flags: HMW
HStem: 190 84<88 93 93 431> 338 84<81 431 93 431 431 436>
LayerCount: 2
Fore
SplineSet
568.771484375 380 m 0
 560.056640625 339 521.84375 338 507.84375 338 c 2
 159.84375 338 l 2
 147.264586906 338 115.481538924 338.807323184 115.481538924 368.712151713 c 0
 115.481538924 372.089950675 115.887029258 375.838977632 116.771484375 380 c 0
 125.2734375 420 166.69921875 422 182.69921875 422 c 2
 520.69921875 422 l 2
 535.209174813 422 569.929393139 420.35516543 569.929393139 390.215709283 c 0
 569.929393139 387.120654157 569.563252107 383.725109843 568.771484375 380 c 0
537.313476562 232 m 0
 528.810546875 192 487.385742188 190 471.385742188 190 c 2
 133.385742188 190 l 2
 118.875907055 190 84.1553434064 191.644807153 84.1553434064 221.783537148 c 0
 84.1553434064 224.878794687 84.5215536192 228.274587831 85.3134765625 232 c 0
 94.0283203125 273 132.240234375 274 146.240234375 274 c 2
 494.240234375 274 l 2
 506.819429136 274 538.60339388 273.192672751 538.60339388 243.287622436 c 0
 538.60339388 239.90988221 538.197911967 236.160929628 537.313476562 232 c 0
EndSplineSet
Validated: 1
EndChar

StartChar: exclam
Encoding: 33 33 53
Width: 525
Flags: HMW
HStem: 0 113<246 278> 602 20G<257 267>
VStem: 205 114<41 72.5 558 588>
LayerCount: 2
Fore
SplineSet
437.606445312 558 m 2
 359.73828125 234 l 2
 346.9609375 188 341.047851562 179 300.047851562 179 c 0
 285.3983445 179 259.368578485 180.676625447 259.368578485 204.753841362 c 0
 259.368578485 206.973445743 259.589790583 209.383419934 260.061523438 212 c 2
 323.606445312 558 l 2
 336.360351562 618 384.209960938 622 394.209960938 622 c 0
 403.011469992 622 439.817443683 618.901337534 439.817443683 577.249235131 c 0
 439.817443683 571.577518238 439.134989428 565.190945672 437.606445312 558 c 2
331.116210938 57 m 0
 324.313476562 25 294 0 262 0 c 0
 234.260778113 0 215.774273253 18.7857527071 215.774273253 44.6324594617 c 0
 215.774273253 48.6025449561 216.210431508 52.7392218868 217.116210938 57 c 0
 223.705078125 88 254.018554688 113 286.018554688 113 c 0
 313.862988156 113 332.38438257 94.0714727742 332.38438257 68.7319536011 c 0
 332.38438257 64.9502261716 331.971850811 61.0257050776 331.116210938 57 c 0
EndSplineSet
Validated: 1
EndChar

StartChar: F
Encoding: 70 70 54
Width: 525
Flags: HMW
HStem: 0 75<65 98 74 98 181 224> 268 75<181 298 181 298> 536 75<65 445 74 98 181 409 181 181>
VStem: 98 83<75 268 343 536> 298 83<249 260 260 268 343 351> 409 83<492 536 536 536>
CounterMasks: 1 e0
LayerCount: 2
Fore
SplineSet
596.578125 492 m 2
 591.689453125 469 585.375 444 544.375 444 c 0
 517.225640983 444 510.588680315 455.977675044 510.588680315 470.55265398 c 0
 510.588680315 477.451447484 512.07564161 484.932147459 513.578125 492 c 2
 522.930664062 536 l 1
 294.930664062 536 l 1
 253.907226562 343 l 1
 370.907226562 343 l 1
 379.622070312 384 386.810546875 399 424.810546875 399 c 0
 451.959939205 399 458.596432964 387.022295562 458.596432964 372.447292368 c 0
 458.596432964 365.54851373 457.109587635 358.067834218 455.607421875 351 c 2
 436.264648438 260 l 2
 431.588867188 238 425.061523438 212 385.061523438 212 c 0
 358.998647183 212 350.429640269 219.05616536 350.429640269 236.717519959 c 0
 350.429640269 244.806641562 352.227207743 255.120471748 354.96484375 268 c 1
 237.96484375 268 l 1
 196.94140625 75 l 1
 239.94140625 75 l 2
 256.677565495 75 280.232379349 74.2241024203 280.232379349 48.751565639 c 0
 280.232379349 45.3059861572 279.801396661 41.4085319965 278.864257812 37 c 0
 271.212890625 1 242 0 224 0 c 2
 74 0 l 2
 57.9829602918 0 32.6328014869 0.791807287078 32.6328014869 26.3310828492 c 0
 32.6328014869 29.4929261264 33.021349073 33.0340794164 33.8642578125 37 c 0
 41.7294921875 74 70.94140625 75 89.94140625 75 c 2
 113.94140625 75 l 1
 211.930664062 536 l 1
 187.930664062 536 l 2
 171.913787895 536 146.563209988 536.791791118 146.563209988 562.330300555 c 0
 146.563209988 565.492342029 146.951836027 569.033752334 147.794921875 573 c 0
 155.659179688 610 184.872070312 611 203.872070312 611 c 2
 574.872070312 611 l 2
 604.721042654 611 614.773536908 604.317791376 614.773536908 585.966947618 c 0
 614.773536908 579.726199347 613.610924139 572.135924892 611.668945312 563 c 2
 596.578125 492 l 2
EndSplineSet
Validated: 1
EndChar

StartChar: f
Encoding: 102 102 55
Width: 525
Flags: HMW
HStem: 0 75<78 178 87 178 260 351> 361 75<78 178 88 178 88 178 260 372> 542 75<326.5 341>
VStem: 178 82<75 361 75 361 436 474>
LayerCount: 2
Fore
SplineSet
557.119140625 551 m 0
 550.104492188 518 519.278320312 500 496.278320312 500 c 0
 464.278320312 500 457.229492188 528 456.206054688 542 c 1
 427.206054688 542 374.142578125 537 360.751953125 474 c 2
 352.674804688 436 l 1
 464.674804688 436 l 2
 481.343589905 436 504.005826329 435.23033684 504.005826329 410.057997551 c 0
 504.005826329 406.537517282 503.562565411 402.53973405 502.59765625 398 c 0
 494.9453125 362 465.733398438 361 448.733398438 361 c 2
 336.733398438 361 l 1
 275.94140625 75 l 1
 366.94140625 75 l 2
 382.911082047 75 408.159529394 74.2128686881 408.159529394 48.1964885556 c 0
 408.159529394 44.8888643482 407.75142313 41.1734441946 406.864257812 37 c 0
 399.212890625 1 369 0 351 0 c 2
 87 0 l 2
 71.03016336 0 45.7821369612 0.787147167614 45.7821369612 26.8042975442 c 0
 45.7821369612 30.1117243275 46.190163545 33.8268864266 47.0771484375 38 c 0
 54.7294921875 74 84.94140625 75 102.94140625 75 c 2
 193.94140625 75 l 1
 254.733398438 361 l 1
 163.733398438 361 l 2
 147.773148619 361 123.331279856 361.78620239 123.331279856 387.060359537 c 0
 123.331279856 390.290444731 123.73049683 393.920499637 124.59765625 398 c 0
 132.25 434 161.674804688 436 180.674804688 436 c 2
 270.674804688 436 l 1
 279.814453125 479 l 2
 298.944335938 569 387.147460938 617 469.147460938 617 c 0
 485.80358098 617 558.608732179 615.28749176 558.608732179 564.322903914 c 0
 558.608732179 560.21088455 558.134779069 555.778239848 557.119140625 551 c 0
EndSplineSet
Validated: 1
EndChar

StartChar: five
Encoding: 53 53 56
Width: 525
Flags: HMW
HStem: -11 75<236 287 236 311.5> 320 75<261 313.5> 536 75<167 394 167 167>
VStem: 50 102<140.5 165.5 140.5 168.5> 85 82<371 536 371 563 371 582> 392 82<156 222.5>
LayerCount: 2
Fore
SplineSet
515.0234375 193 m 0xec
 491.216796875 81 372.662109375 -11 245.662109375 -11 c 0
 143.752731286 -11 78.217132588 47.3366465067 78.217132588 119.718521033 c 0
 78.217132588 128.30597289 79.1395898403 137.091120697 81.033203125 146 c 0
 90.5986328125 191 126.723632812 201 143.723632812 201 c 0
 164.736070518 201 184.952781942 186.435888492 184.952781942 160.663230014 c 0
 184.952781942 156.998856381 184.544094237 153.107898155 183.670898438 149 c 0x94
 180.057617188 132 172.14453125 123 165.869140625 117 c 1
 183.091796875 71 237.603515625 64 261.603515625 64 c 0
 339.603515625 64 417.293945312 119 433.0234375 193 c 0
 434.998071286 202.289789351 436.003670899 211.802704722 436.003670899 221.238171504 c 0
 436.003670899 271.727910684 407.209500428 320 344.018554688 320 c 0
 290.018554688 320 248.404296875 303 217.240234375 274 c 0
 205.689453125 262 199.4140625 256 178.4140625 256 c 0
 152.901163988 256 146.653725599 268.170717274 146.653725599 282.524979245 c 0
 146.653725599 289.550567731 148.150325326 297.099233388 149.6171875 304 c 2
 204.668945312 563 l 2
 212.74609375 601 222.872070312 611 260.872070312 611 c 2
 523.872070312 611 l 2
 540.54085553 611 563.203091954 610.23033684 563.203091954 585.057997551 c 0
 563.203091954 581.537517282 562.759831036 577.53973405 561.794921875 573 c 0
 554.142578125 537 524.930664062 536 507.930664062 536 c 2
 280.930664062 536 l 1
 245.858398438 371 l 1
 287.684570312 389 328.959960938 395 360.959960938 395 c 0
 463.269780833 395 519.562320172 321.083615231 519.562320172 235.529203449 c 0
 519.562320172 221.572395169 518.064228996 207.305868661 515.0234375 193 c 0xec
EndSplineSet
Validated: 1
Substitution2: "'onum' Oldstyle Figures lookup 4 subtable" five.taboldstyle
Substitution2: "'aalt' Access All Alternates lookup 0 subtable" five.taboldstyle
EndChar

StartChar: four
Encoding: 52 52 57
Width: 525
Flags: HMW
HStem: 0 75<250 312 259 312 382 434> 165 75<56 310 116 310 116 312 382 450 116 382> 603 20G<307 334 334 354>
VStem: 312 70<75 165 75 165>
LayerCount: 2
Fore
SplineSet
539.936523438 202 m 0
 532.284179688 166 503.072265625 165 485.072265625 165 c 2
 417.072265625 165 l 1
 397.94140625 75 l 1
 449.94140625 75 l 2
 467.492403282 75 490.270862815 74.229906258 490.270862815 49.0368710578 c 0
 490.270862815 45.5215255837 489.827356929 41.530655491 488.864257812 37 c 0
 481.212890625 1 452 0 434 0 c 2
 259 0 l 2
 243.039584719 0 218.598142422 0.78621869122 218.598142422 26.061145611 c 0
 218.598142422 29.2910336684 218.997279391 32.9208305628 219.864257812 37 c 0
 227.729492188 74 255.94140625 75 274.94140625 75 c 2
 327.94140625 75 l 1
 347.072265625 165 l 1
 109.072265625 165 l 2
 80.9737743487 165 69.1410835081 169.87361242 69.1410835081 190.081620014 c 0
 69.1410835081 195.764264919 70.0767855183 202.659518569 71.849609375 211 c 0
 76.525390625 233 77.1630859375 236 90.138671875 250 c 2
 386.321289062 599 l 2
 405.998046875 621 412.422851562 623 439.422851562 623 c 2
 466.422851562 623 l 2
 496.591022628 623 507.347516099 617.311759091 507.347516099 598.213105158 c 0
 507.347516099 591.988839923 506.205055105 584.340237488 504.219726562 575 c 2
 433.013671875 240 l 1
 501.013671875 240 l 2
 517.750004093 240 541.304374139 239.224086382 541.304374139 213.750775833 c 0
 541.304374139 210.305390569 540.873474334 206.408195154 539.936523438 202 c 0
361.013671875 240 m 1
 425.84375 545 l 1
 167.013671875 240 l 1
 361.013671875 240 l 1
EndSplineSet
Validated: 1
Substitution2: "'onum' Oldstyle Figures lookup 4 subtable" four.taboldstyle
Substitution2: "'aalt' Access All Alternates lookup 0 subtable" four.taboldstyle
EndChar

StartChar: G
Encoding: 71 71 58
Width: 525
Flags: HMW
HStem: -11 75<226 285> 204 75<324.5 450 334 366 452 459 334 464.5> 547 75<228.5 281>
VStem: 36 83<236 377 236 396.5> 287 83 369 83 415 83
LayerCount: 2
Fore
SplineSet
549.438476562 242 m 0xf8
 542.424804688 209 520.361328125 204 495.361328125 204 c 1
 462.203125 48 l 2x44
 457.313476562 25 451 0 411 0 c 0
 383.486913969 0 376.267609623 10.2399674695 376.267609623 25.1271856652 c 0
 376.267609623 27.0139405364 376.383567219 28.9753402759 376.588867188 31 c 1
 349.125976562 10 306.662109375 -11 258.662109375 -11 c 0
 160.791989464 -11 90.8367552652 78.9617632515 90.8367552652 213.268645939 c 0
 90.8367552652 242.265119315 94.0974792569 273.328588771 101.041992188 306 c 0
 139.514648438 487 273.209960938 622 393.209960938 622 c 0
 433.209960938 622 468.447265625 609 495.920898438 583 c 1
 516.296875 613 526.209960938 622 547.209960938 622 c 0xba
 571.085977021 622 576.855391212 609.243935049 576.855391212 595.109196397 c 0
 576.855391212 587.931728285 575.367748304 580.398769289 574.0078125 574 c 2
 545.3125 439 l 2
 540.2109375 415 534.109375 391 493.109375 391 c 0
 465.512362838 391 459.29357496 402.09503759 459.29357496 419.346566201 c 0
 459.29357496 421.473852361 459.388133859 423.694750175 459.548828125 426 c 0x04
 459.873411094 431.317537666 460.029605628 436.412927804 460.029605628 441.294693342 c 0
 460.029605628 527.299879352 411.549754634 547 381.268554688 547 c 0
 308.268554688 547 214.4375 449 183.830078125 305 c 0
 177.81880203 276.719364531 175.017767593 249.908630448 175.017767593 225.153044681 c 0
 175.017767593 129.10968873 217.178358347 64 277.603515625 64 c 0
 325.603515625 64 376.53125 106 409.361328125 204 c 1
 377.361328125 204 l 2
 360.624995907 204 337.070625861 204.775913618 337.070625861 230.249224167 c 0
 337.070625861 233.694609431 337.501525666 237.591804846 338.438476562 242 c 0
 345.877929688 277 375.303710938 279 393.303710938 279 c 2
 509.303710938 279 l 2
 525.356529061 279 550.614886695 277.409302656 550.614886695 252.239284924 c 0
 550.614886695 249.186200911 550.243252579 245.786186983 549.438476562 242 c 0xf8
EndSplineSet
Validated: 1
EndChar

StartChar: g
Encoding: 103 103 59
Width: 525
Flags: HMW
HStem: -223 74<216 308 216 327> 4 71<212 277> 113 74<215.5 256.5 209 281> 367 74<209.5 255.5 186 257>
VStem: 27 72<-92.5 -66.5> 65 82<257.5 302.5 253 321.5> 151 82 319 84<252.5 292 232.5 301.5> 425 72<-92.5 -53 -115 -34>
LayerCount: 2
Fore
SplineSet
593.046875 386 m 0x14
 585.8203125 352 555.84375 338 535.84375 338 c 0
 524.84375 338 502.33203125 345 498.858398438 371 c 1
 487.43359375 369 472.795898438 366 456.307617188 359 c 1
 462.269287886 342.638437205 465.374603352 325.880867402 465.374603352 308.727290591 c 0
 465.374603352 298.622285648 464.296974021 288.379855451 462.090820312 278 c 0
 442.748046875 187 352.018554688 113 258.018554688 113 c 0
 221.018554688 113 191.782226562 126 179.482421875 134 c 1
 175.995117188 127 173.719726562 121 173.08203125 118 c 2
 173.08203125 118 170.04296875 99 176.705078125 88 c 0
 183.888253348 76.4285714286 195.571338887 74.362244898 207.782248628 74.362244898 c 0
 214.566087372 74.362244898 221.512834821 75 227.94140625 75 c 2
 296.94140625 75 l 2
 386.94140625 75 424.265625 53 435.77734375 46 c 0
 471.741905729 24.131740233 484.465448399 -12.3759313269 484.465448399 -45.4199470055 c 0
 484.465448399 -54.6853079696 483.465109635 -63.6783525409 481.696289062 -72 c 0
 463.416015625 -158 344.599609375 -223 214.599609375 -223 c 0
 95.8544079074 -223 9.31783925889 -169.601948889 9.31783925889 -94.0523918373 c 0
 9.31783925889 -86.8917231676 10.0952364798 -79.5320574794 11.6962890625 -72 c 0xeb80
 14.0341796875 -61 28.0625 5 106.840820312 51 c 1
 102.819828245 60.3442928003 99.2056057499 73.6979849448 99.2056057499 90.7637351522 c 0
 99.2056057499 99.2665868721 100.102814141 108.690934058 102.293945312 119 c 0
 108.24609375 147 120.921875 169 134.323242188 185 c 1
 126.739247847 199.111038802 120.425041443 219.195720085 120.425041443 244.20036509 c 0
 120.425041443 254.635556027 121.524751478 265.927629543 124.090820312 278 c 0
 142.583007812 365 231.737304688 441 327.737304688 441 c 0
 370.737304688 441 400.336914062 425 415.998046875 414 c 1
 468.587890625 445 515.799804688 446 526.799804688 446 c 0
 577.879782045 446 594.151326967 419.765945694 594.151326967 396.499566136 c 0
 594.151326967 392.892081121 593.760143723 389.355941798 593.046875 386 c 0x14
378.090820312 278 m 0
 379.413419973 284.222294862 380.051357433 290.356955154 380.051357433 296.318126998 c 0
 380.051357433 335.384566807 352.653128385 367 311.0078125 367 c 0
 264.0078125 367 216.71875 328 205.877929688 277 c 0x97
 204.50498575 270.540447937 203.843307807 264.189556845 203.843307807 258.035064374 c 0
 203.843307807 218.456410686 231.207598938 187 272.748046875 187 c 0
 319.748046875 187 367.25 227 378.090820312 278 c 0
409.696289062 -72 m 0
 410.801238526 -66.801620903 411.330007855 -61.9588095065 411.330007855 -57.4472450776 c 0
 411.330007855 4 313.241808491 4 236.850585938 4 c 0
 167.850585938 4 158.850585938 4 133.874023438 -10 c 0
 101.048828125 -28 87.0966796875 -56 83.6962890625 -72 c 0x4880
 83.1593626139 -74.5260331708 82.8959754518 -77.033087033 82.8959754518 -79.5139117656 c 0
 82.8959754518 -117.299309668 143.997273556 -149 230.329101562 -149 c 0
 322.329101562 -149 400.981445312 -113 409.696289062 -72 c 0
EndSplineSet
Validated: 1
EndChar

StartChar: grave
Encoding: 96 96 60
Width: 525
Flags: HMW
HStem: 476 21G<329 348.5> 602 20G<181 193>
LayerCount: 2
Fore
SplineSet
483.954101562 522 m 0
 482.041992188 513 465.176757812 476 434.176757812 476 c 0
 426.176757812 476 420.6015625 478 414.239257812 481 c 2
 297.568359375 539 l 2
 278.094180404 548.182605956 273.170871765 559.707441137 273.170871765 570.437956039 c 0
 273.170871765 573.730277295 273.634340402 576.947823118 274.283203125 580 c 0
 279.383789062 604 301.209960938 622 325.209960938 622 c 1
 325.209960938 622 334.209960938 622 345.934570312 616 c 2
 462.606445312 558 l 2
 475.592872542 552.139961575 485.07452861 546.27992315 485.07452861 531.619563391 c 0
 485.07452861 528.767662842 484.715719306 525.582736379 483.954101562 522 c 0
EndSplineSet
Validated: 1
EndChar

StartChar: greater
Encoding: 62 62 61
Width: 525
Flags: HMW
HStem: 55 21G<85.5 100.5> 537 20G<85.5 100.5>
LayerCount: 2
Fore
SplineSet
536.041992188 306 m 0
 531.366210938 284 514.240234375 274 501.752929688 267 c 2
 139.028320312 66 l 2
 120.690429688 55 117.690429688 55 106.690429688 55 c 0
 89.9458970814 55 72.4057285425 65.873438257 72.4057285425 86.9358386753 c 0
 72.4057285425 89.77291741 72.7239729711 92.7948621245 73.4052734375 96 c 0
 78.08203125 118 95.20703125 128 108.907226562 136 c 2
 415.041992188 306 l 1
 181.176757812 476 l 2
 172.373750031 482.837417251 161.69034485 491.135780585 161.69034485 507.138276222 c 0
 161.69034485 509.859219626 161.99921311 512.80289744 162.678710938 516 c 0
 168.41796875 543 194.393554688 557 213.393554688 557 c 0
 224.393554688 557 227.393554688 557 241.055664062 546 c 2
 521.907226562 343 l 2
 530.354785731 335.462706429 536.803035621 325.119941531 536.803035621 313.146464249 c 0
 536.803035621 310.822860687 536.560192762 308.437844048 536.041992188 306 c 0
EndSplineSet
Validated: 1
EndChar

StartChar: H
Encoding: 72 72 62
Width: 525
Flags: HMW
HStem: 0 75<58 84 67 84 167 183 341 357 440 457> 280 75<167 357 167 357> 536 75<58 183 67 84 167 167 167 183 341 357 440 440 440 457>
VStem: 84 83<75 280 75 355 355 536> 357 83<75 280 280 280 355 536 75 536>
LayerCount: 2
Fore
SplineSet
511.864257812 37 m 0
 504.212890625 1 475 0 457 0 c 2
 341 0 l 2
 324.263667782 0 300.709297736 0.77591361805 300.709297736 26.2492241673 c 0
 300.709297736 29.6946094306 301.140197541 33.5918048458 302.077148438 38 c 0
 309.729492188 74 338.94140625 75 356.94140625 75 c 2
 372.94140625 75 l 1
 416.515625 280 l 1
 226.515625 280 l 1
 182.94140625 75 l 1
 198.94140625 75 l 2
 215.677565495 75 239.232379349 74.2241024203 239.232379349 48.751565639 c 0
 239.232379349 45.3059861572 238.801396661 41.4085319965 237.864257812 37 c 0
 230.212890625 1 201 0 183 0 c 2
 67 0 l 2
 51.0395847186 0 26.5981424223 0.78621869122 26.5981424223 26.061145611 c 0
 26.5981424223 29.2910336684 26.9972793907 32.9208305628 27.8642578125 37 c 0
 35.7294921875 74 63.94140625 75 82.94140625 75 c 2
 99.94140625 75 l 1
 197.930664062 536 l 1
 180.930664062 536 l 2
 164.970414244 536 140.528545481 536.78620239 140.528545481 562.060359537 c 0
 140.528545481 565.290444731 140.927762455 568.920499637 141.794921875 573 c 0
 149.659179688 610 177.872070312 611 196.872070312 611 c 2
 312.872070312 611 l 2
 329.608402531 611 353.162772576 610.224086382 353.162772576 584.750775833 c 0
 353.162772576 581.305390569 352.731872772 577.408195154 351.794921875 573 c 0
 344.142578125 537 314.930664062 536 296.930664062 536 c 2
 280.930664062 536 l 1
 242.458007812 355 l 1
 432.458007812 355 l 1
 470.930664062 536 l 1
 454.930664062 536 l 2
 438.194504817 536 414.639690963 536.77589758 414.639690963 562.248434361 c 0
 414.639690963 565.694013843 415.070673651 569.591468004 416.0078125 574 c 0
 423.659179688 610 452.872070312 611 470.872070312 611 c 2
 586.872070312 611 l 2
 603.608402531 611 627.162772576 610.224086382 627.162772576 584.750775833 c 0
 627.162772576 581.305390569 626.731872772 577.408195154 625.794921875 573 c 0
 618.142578125 537 588.930664062 536 570.930664062 536 c 2
 553.930664062 536 l 1
 455.94140625 75 l 1
 472.94140625 75 l 2
 489.677565495 75 513.232379349 74.2241024203 513.232379349 48.751565639 c 0
 513.232379349 45.3059861572 512.801396661 41.4085319965 511.864257812 37 c 0
EndSplineSet
Validated: 1
EndChar

StartChar: h
Encoding: 104 104 63
Width: 525
Flags: HMW
HStem: 0 75<49 93 58 93 176 211 211 212 318 348 431 466 466 467> 366 75<268.5 313.5> 536 75<49 129 58 93>
VStem: 93 83<75 240 399 536 536 536> 129 83 176 83<19 240 19 75> 348 83<75 288 288 293 75 314.5>
LayerCount: 2
Fore
SplineSet
520.864257812 37 m 0xd2
 513.212890625 1 483 0 467 0 c 2
 318 0 l 2
 302.825073 0 276.664424139 0.796811105369 276.664424139 26.5735340294 c 0
 276.664424139 29.6736742173 277.042828185 33.1351395292 277.864257812 37 c 0
 285.729492188 74 314.94140625 75 333.94140625 75 c 2
 363.94140625 75 l 1
 409.215820312 288 l 2
 412.337659359 302.686932102 414.157800631 315.22371565 414.157800631 325.674189766 c 0
 414.157800631 352.935820828 401.771637894 366 367.795898438 366 c 0
 321.795898438 366 246.356445312 331 227.013671875 240 c 2
 191.94140625 75 l 1
 226.94140625 75 l 2
 243.741483291 75 268.194232666 74.2181645745 268.194232666 48.4586338109 c 0
 268.194232666 45.0854955213 267.774937269 41.2840604987 266.864257812 37 c 0xc6
 259.212890625 1 229 0 212 0 c 2x88
 57 0 l 2
 42.7687404325 0 17.6301136292 0.791127925302 17.6301136292 26.2982208451 c 0
 17.6301136292 29.4683848315 18.0184276557 33.0203340269 18.8642578125 37 c 0
 26.7294921875 74 54.94140625 75 73.94140625 75 c 2
 108.94140625 75 l 1
 206.930664062 536 l 1xb0
 170.930664062 536 l 2
 156.699550649 536 131.560521464 536.791111676 131.560521464 562.297434985 c 0
 131.560521464 565.467797827 131.948913862 569.02000518 132.794921875 573 c 0
 140.659179688 610 168.872070312 611 187.872070312 611 c 2
 258.872070312 611 l 2x28
 288.721042654 611 298.773536908 604.317791376 298.773536908 585.966947618 c 0
 298.773536908 579.726199347 297.610924139 572.135924892 295.668945312 563 c 2
 260.810546875 399 l 1
 288.848632812 418 334.737304688 441 389.737304688 441 c 0
 457.433653884 441 498.990524958 411.011449947 498.990524958 342.031620988 c 0
 498.990524958 327.456782054 497.135259142 311.141215654 493.279296875 293 c 2
 446.94140625 75 l 1
 481.94140625 75 l 2
 498.677565495 75 522.232379349 74.2241024203 522.232379349 48.751565639 c 0
 522.232379349 45.3059861572 521.801396661 41.4085319965 520.864257812 37 c 0xd2
EndSplineSet
Validated: 1
EndChar

StartChar: hyphen
Encoding: 45 45 64
Width: 525
Flags: HMW
HStem: 264 84<100 417 107 417>
LayerCount: 2
Fore
SplineSet
536.041992188 306 m 0
 527.327148438 265 487.115234375 264 473.115234375 264 c 2
 163.115234375 264 l 2
 150.473959815 264 116.807261116 264.815315421 116.807261116 295.157261794 c 0
 116.807261116 298.418513201 117.196200765 302.020875496 118.041992188 306 c 0
 126.756835938 347 166.969726562 348 180.969726562 348 c 2
 490.969726562 348 l 2
 503.610972107 348 537.276749069 347.184688322 537.276749069 316.842947137 c 0
 537.276749069 313.581640655 536.887801672 309.979209478 536.041992188 306 c 0
EndSplineSet
Validated: 1
EndChar

StartChar: I
Encoding: 73 73 65
Width: 525
Flags: HMW
HStem: 0 75<115 221 124 221 304 401> 536 75<115 401 124 221 304 304 304 401>
VStem: 221 83<75 536 75 536>
LayerCount: 2
Fore
SplineSet
456.864257812 37 m 0
 449.212890625 1 419 0 401 0 c 2
 124 0 l 2
 108.03016336 0 82.7821369612 0.787147167614 82.7821369612 26.8042975442 c 0
 82.7821369612 30.1117243275 83.190163545 33.8268864266 84.0771484375 38 c 0
 91.7294921875 74 121.94140625 75 139.94140625 75 c 2
 236.94140625 75 l 1
 334.930664062 536 l 1
 237.930664062 536 l 2
 221.960988265 536 196.712540919 536.787131312 196.712540919 562.803511444 c 0
 196.712540919 566.111135652 197.120647183 569.826555805 198.0078125 574 c 0
 205.659179688 610 235.872070312 611 253.872070312 611 c 2
 530.872070312 611 l 2
 546.841906952 611 572.089933351 610.212852832 572.089933351 584.195702456 c 0
 572.089933351 580.888275673 571.681906767 577.173113573 570.794921875 573 c 0
 563.142578125 537 532.930664062 536 514.930664062 536 c 2
 417.930664062 536 l 1
 319.94140625 75 l 1
 416.94140625 75 l 2
 432.911082047 75 458.159529394 74.2128686881 458.159529394 48.1964885556 c 0
 458.159529394 44.8888643482 457.75142313 41.1734441946 456.864257812 37 c 0
EndSplineSet
Validated: 1
EndChar

StartChar: i
Encoding: 105 105 66
Width: 525
Flags: HMW
HStem: 0 75<114 233 123 233 316 410> 361 75<122 269 131 233> 493 113<247 279>
VStem: 206 114<534 565.5> 233 83<75 361 361 361>
LayerCount: 2
Fore
SplineSet
465.864257812 37 m 0xc8
 458.212890625 1 428 0 410 0 c 2
 123 0 l 2
 106.982960292 0 81.6328014869 0.791807287078 81.6328014869 26.3310828492 c 0
 81.6328014869 29.4929261264 82.021349073 33.0340794164 82.8642578125 37 c 0
 90.7294921875 74 119.94140625 75 138.94140625 75 c 2
 248.94140625 75 l 1
 309.733398438 361 l 1
 207.733398438 361 l 2
 191.76372264 361 166.515275294 361.787131312 166.515275294 387.803511444 c 0
 166.515275294 391.111135652 166.923381558 394.826555805 167.810546875 399 c 0
 175.25 434 205.674804688 436 223.674804688 436 c 2
 361.674804688 436 l 2
 391.523777029 436 401.576271283 429.317791376 401.576271283 410.966947618 c 0
 401.576271283 404.726199347 400.413658514 397.135924892 398.471679688 388 c 2
 331.94140625 75 l 1
 425.94140625 75 l 2
 441.911082047 75 467.159529394 74.2128686881 467.159529394 48.1964885556 c 0
 467.159529394 44.8888643482 466.75142313 41.1734441946 465.864257812 37 c 0xc8
436.90625 550 m 0x30
 430.104492188 518 399.790039062 493 367.790039062 493 c 0
 340.050486521 493 321.56460543 511.786200567 321.56460543 537.633383753 c 0
 321.56460543 541.603187005 322.000670882 545.739552542 322.90625 550 c 0
 329.495117188 581 359.809570312 606 391.809570312 606 c 0
 419.653859425 606 438.174466763 587.071669039 438.174466763 561.73234771 c 0
 438.174466763 557.950498832 437.761919597 554.025844923 436.90625 550 c 0x30
EndSplineSet
Validated: 1
EndChar

StartChar: J
Encoding: 74 74 67
Width: 525
Flags: HMW
HStem: -11 75<234.5 246.5 234.5 283.5> 83 75 536 75<247.5 433 256 329 411 433 411 411>
VStem: 68 103<101 121 101 122.5> 329 82<144 536>
LayerCount: 2
Fore
SplineSet
603.0078125 574 m 0
 595.142578125 537 565.930664062 536 546.930664062 536 c 2
 524.930664062 536 l 1
 440.333007812 138 l 2
 420.565429688 45 326.662109375 -11 235.662109375 -11 c 0
 142.972378486 -11 88.0429032507 29.491027487 88.0429032507 84.9665610161 c 0
 88.0429032507 91.1373382349 88.7225483814 97.4935194927 90.10546875 104 c 0
 97.970703125 141 127.583984375 158 153.583984375 158 c 0
 178.716947224 158 194.920459791 140.72495375 194.920459791 117.891676425 c 0
 194.920459791 114.378476162 194.536859895 110.733691042 193.743164062 107 c 0
 191.193359375 95 187.705078125 88 183.642578125 83 c 1
 205.603515625 64 244.603515625 64 251.603515625 64 c 0
 268.603515625 64 343.454101562 68 359.608398438 144 c 2
 442.930664062 536 l 1
 369.930664062 536 l 2
 354.851576359 536 329.711102032 536.786778152 329.711102032 562.786004256 c 0
 329.711102032 566.098023796 330.119081593 569.819190884 331.0078125 574 c 0
 338.659179688 610 368.872070312 611 385.872070312 611 c 2
 562.872070312 611 l 2
 578.889110021 611 604.239268826 610.208192713 604.239268826 584.668917151 c 0
 604.239268826 581.507073874 603.850721239 577.965920584 603.0078125 574 c 0
EndSplineSet
Validated: 1
EndChar

StartChar: j
Encoding: 106 106 68
Width: 525
Flags: HMW
HStem: -222 75<182 202.5 182 261.5> 361 75<161 325 171 289> 493 113<303 335>
VStem: 44 103<-144 -139 -144 -123.5> 262 114<534 565.5> 289 83<-30 361 361 361>
LayerCount: 2
Fore
SplineSet
364.560546875 -35 m 2xd4
 350.744140625 -100 287.8125 -222 140.8125 -222 c 0
 101.078957656 -222 12.3670539368 -219.438473141 12.3670539368 -156.719813837 c 0
 12.3670539368 -151.563771038 12.9665983966 -146.001166392 14.2421875 -140 c 0
 21.2568359375 -107 51.294921875 -88 77.294921875 -88 c 0
 98.3820092566 -88 118.667706452 -102.667777484 118.667706452 -127.933586326 c 0
 118.667706452 -131.423736106 118.280616715 -135.116116509 117.455078125 -139 c 2
 116.391601562 -144 l 1
 127.966796875 -146 140.75390625 -147 160.75390625 -147 c 0
 181.75390625 -147 209.75390625 -147 244.831054688 -109 c 0
 272.420898438 -78 279.434570312 -45 282.623046875 -30 c 2
 365.733398438 361 l 1
 246.733398438 361 l 2
 230.773148619 361 206.331279856 361.78620239 206.331279856 387.060359537 c 0
 206.331279856 390.290444731 206.73049683 393.920499637 207.59765625 398 c 0
 215.25 434 244.674804688 436 263.674804688 436 c 2
 417.674804688 436 l 2
 447.523777029 436 457.576271283 429.317791376 457.576271283 410.966947618 c 0
 457.576271283 404.726199347 456.413658514 397.135924892 454.471679688 388 c 2
 364.560546875 -35 l 2xd4
492.90625 550 m 0x28
 486.104492188 518 455.790039062 493 423.790039062 493 c 0
 396.050486521 493 377.56460543 511.786200567 377.56460543 537.633383753 c 0
 377.56460543 541.603187005 378.000670882 545.739552542 378.90625 550 c 0
 385.495117188 581 415.809570312 606 447.809570312 606 c 0
 475.653859425 606 494.174466763 587.071669039 494.174466763 561.73234771 c 0
 494.174466763 557.950498832 493.761919597 554.025844923 492.90625 550 c 0x28
EndSplineSet
Validated: 1
EndChar

StartChar: K
Encoding: 75 75 69
Width: 525
Flags: HMW
HStem: 0 75<62.5 86 72 86 156 169 443 449> 536 75<62.5 169 72 86 156 156 156 169 428 439 439 447>
VStem: 86 70<75 194 307 536> 306 70
LayerCount: 2
Fore
SplineSet
504.864257812 37 m 0
 497.212890625 1 467 0 449 0 c 2
 376 0 l 2
 359.199751774 0 334.747438787 0.781851358581 334.747438787 26.5421536281 c 0
 334.747438787 29.9150960906 335.166652907 33.7162728607 336.077148438 38 c 0
 342.028320312 66 361.516601562 73 377.729492188 74 c 1
 300.12890625 297 l 1
 197.236328125 194 l 1
 171.94140625 75 l 1
 184.94140625 75 l 2
 201.741483291 75 226.194232666 74.2181645745 226.194232666 48.4586338109 c 0
 226.194232666 45.0854955213 225.774937269 41.2840604987 224.864257812 37 c 0
 217.212890625 1 187 0 169 0 c 2
 72 0 l 2
 55.1997517742 0 30.747438787 0.781851358581 30.747438787 26.5421536281 c 0
 30.747438787 29.9150960906 31.1666529072 33.7162728607 32.0771484375 38 c 0
 39.7294921875 74 69.94140625 75 87.94140625 75 c 2
 101.94140625 75 l 1
 199.930664062 536 l 1
 185.930664062 536 l 2
 169.130587021 536 144.677837647 536.781835425 144.677837647 562.541366189 c 0
 144.677837647 565.914504479 145.097133043 569.715939501 146.0078125 574 c 0
 153.659179688 610 183.872070312 611 201.872070312 611 c 2
 298.872070312 611 l 2
 315.672318538 611 340.124631525 610.218148641 340.124631525 584.457846372 c 0
 340.124631525 581.084903909 339.705417405 577.283727139 338.794921875 573 c 0
 331.142578125 537 300.930664062 536 282.930664062 536 c 2
 269.930664062 536 l 1
 221.254882812 307 l 1
 452.142578125 537 l 1
 439.65690626 538.713391583 426.638706791 544.830349239 426.638706791 562.895906013 c 0
 426.638706791 565.917830882 427.002970198 569.274090575 427.794921875 573 c 0
 435.659179688 610 465.872070312 611 483.872070312 611 c 2
 568.872070312 611 l 2
 584.046997312 611 610.207646173 610.203188895 610.207646173 584.426465971 c 0
 610.207646173 581.326325783 609.829242128 577.864860471 609.0078125 574 c 0
 601.780273438 540 579.930664062 536 541.930664062 536 c 1
 360.669921875 356 l 1
 458.94140625 75 l 1
 485.948410447 75 506.238751974 71.9640862613 506.238751974 48.7006111054 c 0
 506.238751974 45.2610974898 505.795210494 41.3794147513 504.864257812 37 c 0
EndSplineSet
Validated: 1
EndChar

StartChar: k
Encoding: 107 107 70
Width: 525
Flags: HMW
HStem: 0 75<56.5 106 66 106 176 216 435 462> 361 75<281 440 290 307 409 409 409 440> 536 75<56.5 130 66 106>
VStem: 106 70<75 143 238 536 536 536> 440 70
LayerCount: 2
Fore
SplineSet
517.864257812 37 m 0
 510.212890625 1 480 0 462 0 c 2
 347 0 l 2
 331.039584719 0 306.598142422 0.78621869122 306.598142422 26.061145611 c 0
 306.598142422 29.2910336684 306.997279391 32.9208305628 307.864257812 37 c 0
 314.454101562 68 331.729492188 74 362.94140625 75 c 1
 288.999023438 207 l 1
 206.395507812 143 l 1
 191.94140625 75 l 1
 231.94140625 75 l 2
 248.677565495 75 272.232379349 74.2241024203 272.232379349 48.751565639 c 0
 272.232379349 45.3059861572 271.801396661 41.4085319965 270.864257812 37 c 0
 263.212890625 1 234 0 216 0 c 2
 66 0 l 2
 49.2636677819 0 25.7092977364 0.77591361805 25.7092977364 26.2492241673 c 0
 25.7092977364 29.6946094306 26.1401975407 33.5918048458 27.0771484375 38 c 0
 34.7294921875 74 63.94140625 75 81.94140625 75 c 2
 121.94140625 75 l 1
 219.930664062 536 l 1
 179.930664062 536 l 2
 163.194504817 536 139.639690963 536.77589758 139.639690963 562.248434361 c 0
 139.639690963 565.694013843 140.070673651 569.591468004 141.0078125 574 c 0
 148.659179688 610 177.872070312 611 195.872070312 611 c 2
 259.872070312 611 l 2
 288.904340366 611 298.790055236 604.35011673 298.790055236 586.100062834 c 0
 298.790055236 579.83422112 297.624752901 572.200981489 295.668945312 563 c 2
 226.588867188 238 l 1
 383.733398438 361 l 1
 366.733398438 361 l 2
 350.832957008 361 327.294665554 361.780321104 327.294665554 386.777257773 c 0
 327.294665554 390.077954351 327.705070478 393.800882859 328.59765625 398 c 0
 336.461914062 435 363.674804688 436 382.674804688 436 c 2
 532.674804688 436 l 2
 548.679880095 436 573.836592111 434.418750378 573.836592111 408.76023385 c 0
 573.836592111 405.562072997 573.445758957 401.989849184 572.59765625 398 c 0
 564.9453125 362 534.733398438 361 516.733398438 361 c 2
 485.733398438 361 l 1
 351.202148438 255 l 1
 450.94140625 75 l 1
 477.94140625 75 l 2
 493.911082047 75 519.159529394 74.2128686881 519.159529394 48.1964885556 c 0
 519.159529394 44.8888643482 518.75142313 41.1734441946 517.864257812 37 c 0
EndSplineSet
Validated: 1
EndChar

StartChar: L
Encoding: 76 76 71
Width: 525
Flags: HMW
HStem: 0 75<68 105 77 105 188 407> 536 75<68 235 77 105 188 188 188 235>
VStem: 105 83<75 536 75 536> 407 83<75 134>
LayerCount: 2
Fore
SplineSet
500.203125 48 m 2
 492.125976562 10 482 0 443 0 c 2
 77 0 l 2
 61.0395847186 0 36.5981424223 0.78621869122 36.5981424223 26.061145611 c 0
 36.5981424223 29.2910336684 36.9972793907 32.9208305628 37.8642578125 37 c 0
 45.7294921875 74 73.94140625 75 92.94140625 75 c 2
 120.94140625 75 l 1
 218.930664062 536 l 1
 190.930664062 536 l 2
 174.970414244 536 150.528545481 536.78620239 150.528545481 562.060359537 c 0
 150.528545481 565.290444731 150.927762455 568.920499637 151.794921875 573 c 0
 159.659179688 610 187.872070312 611 206.872070312 611 c 2
 364.872070312 611 l 2
 379.951310335 611 405.091371896 610.213205953 405.091371896 584.213207855 c 0
 405.091371896 580.90138606 404.683471972 577.180477598 403.794921875 573 c 0
 396.142578125 537 364.930664062 536 348.930664062 536 c 2
 301.930664062 536 l 1
 203.94140625 75 l 1
 422.94140625 75 l 1
 435.482421875 134 l 2
 440.796875 159 446.685546875 182 487.685546875 182 c 0
 514.820852264 182 521.660486326 170.955128022 521.660486326 156.358033418 c 0
 521.660486326 149.437633534 520.123172965 141.718816767 518.482421875 134 c 2
 500.203125 48 l 2
EndSplineSet
Validated: 1
EndChar

StartChar: l
Encoding: 108 108 72
Width: 525
Flags: HMW
HStem: 0 75<93.5 221 103 221 304 423> 536 75<93.5 257 103 221>
VStem: 221 83<75 536 536 536>
LayerCount: 2
Fore
SplineSet
477.864257812 37 m 0
 470.212890625 1 441 0 423 0 c 2
 102 0 l 2
 86.8760295537 0 61.6314610455 0.791468796053 61.6314610455 26.3147077494 c 0
 61.6314610455 29.4806985026 62.0198936378 33.0272315333 62.8642578125 37 c 0
 70.7294921875 74 99.94140625 75 118.94140625 75 c 2
 236.94140625 75 l 1
 334.930664062 536 l 1
 215.930664062 536 l 2
 200.806848486 536 175.561869214 536.791452587 175.561869214 562.313923681 c 0
 175.561869214 565.480112959 175.950380219 569.026903573 176.794921875 573 c 0
 184.659179688 610 213.872070312 611 232.872070312 611 c 2
 386.872070312 611 l 2
 416.721042654 611 426.773536908 604.317791376 426.773536908 585.966947618 c 0
 426.773536908 579.726199347 425.610924139 572.135924892 423.668945312 563 c 2
 319.94140625 75 l 1
 438.94140625 75 l 2
 455.677565495 75 479.232379349 74.2241024203 479.232379349 48.751565639 c 0
 479.232379349 45.3059861572 478.801396661 41.4085319965 477.864257812 37 c 0
EndSplineSet
Validated: 1
EndChar

StartChar: less
Encoding: 60 60 73
Width: 525
Flags: HMW
HStem: 55 21G<423.5 438.5> 537 20G<423.5 438.5>
LayerCount: 2
Fore
SplineSet
491.405273438 96 m 0
 485.666015625 69 459.690429688 55 440.690429688 55 c 0
 429.690429688 55 426.690429688 55 413.028320312 66 c 2
 132.177734375 269 l 2
 123.730029387 276.537423678 117.281017748 286.880415539 117.281017748 298.854155802 c 0
 117.281017748 301.177563606 117.523837707 303.562372797 118.041992188 306 c 0
 122.71875 328 139.84375 338 152.33203125 345 c 2
 515.055664062 546 l 2
 533.393554688 557 536.393554688 557 547.393554688 557 c 0
 564.138087294 557 581.678255832 546.126561743 581.678255832 525.064161325 c 0
 581.678255832 522.22708259 581.360011404 519.205137876 580.678710938 516 c 0
 576.002929688 494 558.876953125 484 545.176757812 476 c 2
 239.041992188 306 l 1
 472.907226562 136 l 2
 481.710068592 129.162711491 492.393950536 120.864531914 492.393950536 104.862627703 c 0
 492.393950536 102.141432323 492.084988444 99.1974565999 491.405273438 96 c 0
EndSplineSet
Validated: 1
EndChar

StartChar: M
Encoding: 77 77 74
Width: 525
Flags: HMW
HStem: 0 75<53 62 62 67 138 142 373 382 382 387 457 462> 536 75<62 67 457 462 462 471>
VStem: 67 71<75 483 75 536 75 536> 387 70<75 483 483 483>
LayerCount: 2
Fore
SplineSet
516.864257812 37 m 0
 509.212890625 1 480 0 462 0 c 2
 382 0 l 2
 366.039584719 0 341.598142422 0.78621869122 341.598142422 26.061145611 c 0
 341.598142422 29.2910336684 341.997279391 32.9208305628 342.864257812 37 c 0
 349.87890625 70 370.94140625 75 402.94140625 75 c 1
 489.665039062 483 l 1
 350.825195312 225 l 2
 338.211914062 208 319.298828125 199 304.298828125 199 c 0
 290.298828125 199 277.999023438 207 272.336914062 218 c 1
 240.665039062 483 l 1
 153.94140625 75 l 1
 180.588308722 75 198.322549878 71.3056326153 198.322549878 49.3091604905 c 0
 198.322549878 45.7157676548 197.849272289 41.6339425301 196.864257812 37 c 0
 189.212890625 1 160 0 142 0 c 2
 62 0 l 2
 46.0395847186 0 21.5981424223 0.78621869122 21.5981424223 26.061145611 c 0
 21.5981424223 29.2910336684 21.9972793907 32.9208305628 22.8642578125 37 c 0
 29.87890625 70 50.94140625 75 82.94140625 75 c 1
 180.930664062 536 l 1
 153.411117267 536 135.552277275 539.697878202 135.552277275 561.722199866 c 0
 135.552277275 565.307976307 136.025662373 569.379532633 137.0078125 574 c 0
 144.659179688 610 173.872070312 611 191.872070312 611 c 2
 246.872070312 611 l 2
 262.872070312 611 289.659179688 610 295.920898438 583 c 2
 325.979492188 301 l 1
 467.51953125 567 l 2
 483.68359375 596 492.872070312 611 536.872070312 611 c 2
 591.872070312 611 l 2
 607.832485594 611 632.27392789 610.213781309 632.27392789 584.938854389 c 0
 632.27392789 581.708966332 631.874790922 578.079169437 631.0078125 574 c 0
 623.993164062 541 602.930664062 536 570.930664062 536 c 1
 472.94140625 75 l 1
 500.460953046 75 518.319793038 71.3021217976 518.319793038 49.2778001339 c 0
 518.319793038 45.6920236929 517.84640794 41.6204673668 516.864257812 37 c 0
EndSplineSet
Validated: 1
EndChar

StartChar: m
Encoding: 109 109 75
Width: 525
Flags: HMW
HStem: 0 75<39.5 48 48 55 126 133 296 304 467 474> 361 75<48 55> 366 75<187.5 207.5 358 378>
VStem: 55 71<75 242 75 361> 226 70<75 242 75 294 75 322> 396 71<75 294 294 303 75 322>
CounterMasks: 1 1c
LayerCount: 2
Fore
SplineSet
529.864257812 37 m 0xbc
 522.212890625 1 492 0 474 0 c 2
 401 0 l 2
 386.873400078 0 363.558342047 0.779534474101 363.558342047 25.7394681603 c 0
 363.558342047 29.0495315838 363.96837832 32.7848498256 364.864257812 37 c 0
 371.666015625 69 391.729492188 74 411.94140625 75 c 1
 458.491210938 294 l 2
 462.837224104 314.446121832 464.983447472 329.560051088 464.983447472 340.509887687 c 0
 464.983447472 359.550621159 458.493712069 366 445.795898438 366 c 0
 408.795898438 366 364.443359375 322 347.438476562 242 c 2
 311.94140625 75 l 1
 342.386275466 75 358.482586147 71.4240352564 358.482586147 50.360967349 c 0
 358.482586147 46.5176893201 357.94668252 42.0922032191 356.864257812 37 c 0
 349.212890625 1 322 0 304 0 c 2
 231 0 l 2
 215.986607279 0 192.559942562 0.779937581315 192.559942562 25.7588311565 c 0
 192.559942562 29.0640968426 192.970124769 32.7930669389 193.864257812 37 c 0
 200.666015625 69 220.729492188 74 241.94140625 75 c 1
 288.491210938 294 l 2
 292.71455668 313.869024388 294.734653593 328.702613442 294.734653593 339.572722743 c 0
 294.734653593 359.339554088 288.054622306 366 275.795898438 366 c 0xbc
 237.795898438 366 194.443359375 322 177.438476562 242 c 2
 141.94140625 75 l 1
 172.170895003 75 187.54901364 71.474452198 187.54901364 50.8053750636 c 0
 187.54901364 46.8598520996 186.988649693 42.2896353096 185.864257812 37 c 0
 178.212890625 1 151 0 133 0 c 2
 48 0 l 2
 32.8250730001 0 6.6644241393 0.796811105369 6.6644241393 26.5735340294 c 0
 6.6644241393 29.6736742173 7.04282818498 33.1351395292 7.8642578125 37 c 0
 14.87890625 70 34.94140625 75 70.94140625 75 c 1
 131.733398438 361 l 1
 100.895834465 361 83.3118438264 364.668809228 83.3118438264 386.462839921 c 0
 83.3118438264 390.111321667 83.8046392691 394.267766975 84.810546875 399 c 0
 92.25 434 122.674804688 436 140.674804688 436 c 2
 171.674804688 436 l 2xdc
 189.674804688 436 208.461914062 435 210.786132812 413 c 1
 237.612304688 431 266.737304688 441 295.737304688 441 c 0
 326.737304688 441 350.548828125 426 361.384765625 397 c 1
 397.399414062 430 437.737304688 441 465.737304688 441 c 0
 524.775586134 441 537.118983358 393.849383153 537.118983358 354.040040424 c 0
 537.118983358 331.139751656 533.034410865 310.668775157 531.404296875 303 c 2
 482.94140625 75 l 1
 513.778970223 75 531.362960861 71.3311907725 531.362960861 49.537160079 c 0
 531.362960861 45.8886783335 530.870165418 41.732233025 529.864257812 37 c 0xbc
EndSplineSet
Validated: 1
EndChar

StartChar: N
Encoding: 78 78 76
Width: 525
Flags: HMW
HStem: 0 75<63.5 90 73 90 160 176> 536 75<63.5 139 73 90 348 364 434 451 434 434>
VStem: 90 70<75 487 75 536 75 536> 364 70<124 536>
LayerCount: 2
Fore
SplineSet
619.794921875 573 m 0
 612.142578125 537 582.930664062 536 564.930664062 536 c 2
 547.930664062 536 l 1
 444.203125 48 l 2
 434.850585938 4 421 0 386 0 c 0
 357 0 339.212890625 1 333.501953125 40 c 2
 263.514648438 487 l 1
 175.94140625 75 l 1
 191.94140625 75 l 2
 208.677565495 75 232.232379349 74.2241024203 232.232379349 48.751565639 c 0
 232.232379349 45.3059861572 231.801396661 41.4085319965 230.864257812 37 c 0
 223.212890625 1 194 0 176 0 c 2
 73 0 l 2
 56.2636677819 0 32.7092977364 0.77591361805 32.7092977364 26.2492241673 c 0
 32.7092977364 29.6946094306 33.1401975407 33.5918048458 34.0771484375 38 c 0
 41.7294921875 74 70.94140625 75 88.94140625 75 c 2
 105.94140625 75 l 1
 203.930664062 536 l 1
 186.930664062 536 l 2
 170.194504817 536 146.639690963 536.77589758 146.639690963 562.248434361 c 0
 146.639690963 565.694013843 147.070673651 569.591468004 148.0078125 574 c 0
 155.659179688 610 184.872070312 611 202.872070312 611 c 2
 268.872070312 611 l 2
 298.872070312 611 315.021484375 607 320.370117188 571 c 2
 390.357421875 124 l 1
 477.930664062 536 l 1
 461.930664062 536 l 2
 445.970414244 536 421.528545481 536.78620239 421.528545481 562.060359537 c 0
 421.528545481 565.290444731 421.927762455 568.920499637 422.794921875 573 c 0
 430.659179688 610 458.872070312 611 477.872070312 611 c 2
 580.872070312 611 l 2
 597.608402531 611 621.162772576 610.224086382 621.162772576 584.750775833 c 0
 621.162772576 581.305390569 620.731872772 577.408195154 619.794921875 573 c 0
EndSplineSet
Validated: 1
EndChar

StartChar: n
Encoding: 110 110 77
Width: 525
Flags: HMW
HStem: 0 75<49 93 58 93 176 211 211 212 318 348 431 466 466 467> 361 75<49 129 58 93> 366 75<268 313.5>
VStem: 93 83<75 240 75 361> 129 83 176 83<19 240 19 75> 348 83<75 288 288 293 75 314.5>
LayerCount: 2
Fore
SplineSet
520.864257812 37 m 0xb2
 513.212890625 1 483 0 467 0 c 2
 318 0 l 2
 302.825073 0 276.664424139 0.796811105369 276.664424139 26.5735340294 c 0
 276.664424139 29.6736742173 277.042828185 33.1351395292 277.864257812 37 c 0
 285.729492188 74 314.94140625 75 333.94140625 75 c 2
 363.94140625 75 l 1
 409.215820312 288 l 2
 412.337659359 302.686932102 414.157800631 315.22371565 414.157800631 325.674189766 c 0
 414.157800631 352.935820828 401.771637894 366 367.795898438 366 c 0
 321.795898438 366 246.356445312 331 227.013671875 240 c 2
 191.94140625 75 l 1
 226.94140625 75 l 2
 243.741483291 75 268.194232666 74.2181645745 268.194232666 48.4586338109 c 0
 268.194232666 45.0854955213 267.774937269 41.2840604987 266.864257812 37 c 0xa6
 259.212890625 1 229 0 212 0 c 2x88
 57 0 l 2
 42.7687404325 0 17.6301136292 0.791127925302 17.6301136292 26.2982208451 c 0
 17.6301136292 29.4683848315 18.0184276557 33.0203340269 18.8642578125 37 c 0
 26.7294921875 74 54.94140625 75 73.94140625 75 c 2
 108.94140625 75 l 1
 169.733398438 361 l 1xd0
 133.733398438 361 l 2
 119.502285024 361 94.3632558393 361.791111676 94.3632558393 387.297434985 c 0
 94.3632558393 390.467797827 94.7516482366 394.02000518 95.59765625 398 c 0
 103.25 434 131.674804688 436 150.674804688 436 c 2
 221.674804688 436 l 2x48
 253.189720417 436 262.143500421 428.164182142 262.143500421 411.964885873 c 0
 262.143500421 408.117403026 261.63841189 403.798130942 260.810546875 399 c 1
 288.848632812 418 333.737304688 441 389.737304688 441 c 0
 457.433653884 441 498.990524958 411.011449947 498.990524958 342.031620988 c 0
 498.990524958 327.456782054 497.135259142 311.141215654 493.279296875 293 c 2
 446.94140625 75 l 1
 481.94140625 75 l 2
 498.677565495 75 522.232379349 74.2241024203 522.232379349 48.751565639 c 0
 522.232379349 45.3059861572 521.801396661 41.4085319965 520.864257812 37 c 0xb2
EndSplineSet
Validated: 1
EndChar

StartChar: nine
Encoding: 57 57 78
Width: 525
Flags: HMW
HStem: -11 75<213.5 259.5 213.5 283> 75 76 210 76<219 274.5> 312 75 547 75<232 306>
VStem: 51 82<381 455 381 476.5> 169 82 382 91<362 421>
LayerCount: 2
Fore
SplineSet
539.317382812 312 m 0
 497.231445312 114 346.662109375 -11 214.662109375 -11 c 0
 106.060842769 -11 85.4163883548 39.7671965758 85.4163883548 76.1434405888 c 0
 85.4163883548 83.9809001519 86.3747255122 91.1503166516 87.6181640625 97 c 0
 95.0576171875 132 122.095703125 151 151.095703125 151 c 0
 176.765893432 151 191.534951048 134.159945089 191.534951048 111.756898251 c 0
 191.534951048 107.978160026 191.114774097 104.041155713 190.255859375 100 c 0
 187.705078125 88 184.004882812 80 179.94140625 75 c 1
 196.81640625 65 223.603515625 64 230.603515625 64 c 0
 315.603515625 64 402.458007812 148 441.202148438 255 c 1
 392.400390625 223 342.63671875 210 295.63671875 210 c 0
 199.589060609 210 134.336747552 277.386067453 134.336747552 370.046309661 c 0
 134.336747552 384.471311218 135.9181441 399.508835011 139.2109375 415 c 0
 165.35546875 538 285.209960938 622 397.209960938 622 c 0
 474.165128187 622 553.447071858 577.379207966 553.447071858 431.793528779 c 0
 553.447071858 397.655870116 549.087895513 357.966837113 539.317382812 312 c 0
464.259765625 387 m 0
 467.348562142 401.532370208 469.071865944 417.160881163 469.071865944 432.753287348 c 0
 469.071865944 490.12101123 445.744225907 547 381.268554688 547 c 0
 315.268554688 547 238.215820312 495 221.2109375 415 c 0
 219.103838888 405.087055565 218.069686867 395.322870921 218.069686867 385.874738014 c 0
 218.069686867 330.511346773 253.578631628 286 316.791015625 286 c 0
 392.791015625 286 453.631835938 337 464.259765625 387 c 0
EndSplineSet
Validated: 1
Substitution2: "'onum' Oldstyle Figures lookup 4 subtable" nine.taboldstyle
Substitution2: "'aalt' Access All Alternates lookup 0 subtable" nine.taboldstyle
EndChar

StartChar: numbersign
Encoding: 35 35 79
Width: 525
Flags: HMW
HStem: 0 21G<130.5 160.5 300.5 330.5> 159 84<80 127 87 116 212 285 87 201 382 437> 369 84<80 155 87 143 87 228 240 313 409 437> 591 20G<193 220 363 390>
LayerCount: 2
Fore
SplineSet
533.723632812 201 m 0
 525.008789062 160 484.796875 159 470.796875 159 c 2
 403.796875 159 l 1
 364.990234375 47 l 2
 360.014648438 33 348 0 313 0 c 0
 291.424416503 0 278.973474102 14.8961857038 278.973474102 33.1183767675 c 0
 278.973474102 36.0105521659 279.28712771 38.9865134775 279.927734375 42 c 2
 279.927734375 42 280.990234375 47 318.796875 159 c 1
 234.796875 159 l 1
 195.990234375 47 l 2
 191.014648438 33 178 0 143 0 c 0
 121.424416503 0 108.973474102 14.8961857038 108.973474102 33.1183767675 c 0
 108.973474102 36.0105521659 109.28712771 38.9865134775 109.927734375 42 c 2
 109.927734375 42 110.990234375 47 149.796875 159 c 1
 120.796875 159 l 2
 108.15560044 159 74.4889017408 159.815315421 74.4889017408 190.157261794 c 0
 74.4889017408 193.418513201 74.8778413902 197.020875496 75.7236328125 201 c 0
 84.2265625 241 124.651367188 243 138.651367188 243 c 2
 178.651367188 243 l 1
 221.43359375 369 l 1
 165.43359375 369 l 2
 152.769049656 369 119.17581733 370.636639562 119.17581733 400.559296564 c 0
 119.17581733 403.714592855 119.54935274 407.184411698 120.360351562 411 c 0
 129.075195312 452 169.288085938 453 183.288085938 453 c 2
 251.288085938 453 l 1
 287.881835938 564 l 2
 292.857421875 578 304.872070312 611 340.872070312 611 c 0
 355.108916734 611 374.764602224 604.118624209 374.764602224 579.470418148 c 0
 374.764602224 572.955282556 373.391305198 565.198819859 370.181640625 556 c 2
 336.288085938 453 l 1
 420.288085938 453 l 1
 457.881835938 564 l 2
 461.857421875 578 474.872070312 611 510.872070312 611 c 0
 525.108916734 611 544.764602224 604.118624209 544.764602224 579.470418148 c 0
 544.764602224 572.955282556 543.391305198 565.198819859 540.181640625 556 c 2
 505.288085938 453 l 1
 533.288085938 453 l 2
 545.929331482 453 579.595108444 452.184688322 579.595108444 421.842947137 c 0
 579.595108444 418.581640655 579.206161047 414.979209478 578.360351562 411 c 0
 569.858398438 371 529.43359375 369 515.43359375 369 c 2
 476.43359375 369 l 1
 433.651367188 243 l 1
 488.651367188 243 l 2
 501.315775016 243 534.908420709 241.363395657 534.908420709 211.441669296 c 0
 534.908420709 208.28611524 534.53480755 204.815977633 533.723632812 201 c 0
391.43359375 369 m 1
 306.43359375 369 l 1
 263.651367188 243 l 1
 348.651367188 243 l 1
 391.43359375 369 l 1
EndSplineSet
Validated: 1
EndChar

StartChar: O
Encoding: 79 79 80
Width: 525
Flags: HMW
HStem: -11 75<222 302.5 222 354.5> 547 75<225 296>
VStem: 53 83<287.5 342 287.5 450.5> 388 83<284 343.5>
LayerCount: 2
Fore
SplineSet
535.830078125 305 m 0
 474.188476562 15 444.662109375 -11 259.662109375 -11 c 0
 134.775398589 -11 85.8643380322 0.721411544815 85.8643380322 96.2064081243 c 0
 85.8643380322 142.931973838 97.5767392868 209.715839397 117.830078125 305 c 0
 179.68359375 596 208.209960938 622 394.209960938 622 c 0
 519.016490625 622 567.849043259 609.843389813 567.849043259 514.230897851 c 0
 567.849043259 467.351458105 556.109668211 400.409174144 535.830078125 305 c 0
454.743164062 314 m 0
 466.385234284 368.775119892 480.410186651 434.75508864 480.410186651 479.932243168 c 0
 480.410186651 483.416819047 480.326748725 486.777633816 480.15234375 490 c 0
 477.780273438 540 446.268554688 547 378.268554688 547 c 0
 304.268554688 547 273.142578125 537 246.176757812 476 c 0
 227.82421875 432 214.645507812 370 202.743164062 314 c 0
 192.003555704 263.474685781 175.082538474 183.867906249 175.082538474 134.958648391 c 0
 175.082538474 132.56311564 175.123131231 130.241224858 175.20703125 128 c 0
 176.4296875 82 195.603515625 64 275.603515625 64 c 0
 356.603515625 64 384.4296875 82 405.270507812 133 c 0
 427.323242188 185 441.989257812 254 454.743164062 314 c 0
EndSplineSet
Validated: 1
EndChar

StartChar: o
Encoding: 111 111 81
Width: 525
Flags: HMW
HStem: -6 75<228 296 228 317.5> 369 75<229.5 295>
VStem: 54 83<182 267 182 281.5> 387 83<182 267>
LayerCount: 2
Fore
SplineSet
516.336914062 218 m 0
 489.342773438 91 371.724609375 -6 260.724609375 -6 c 0
 164.971551255 -6 94.8211103156 65.4382129193 94.8211103156 167.230990988 c 0
 94.8211103156 183.439648983 96.5997606914 200.417940895 100.336914062 218 c 0
 127.33203125 345 243.375 444 356.375 444 c 0
 453.590545325 444 521.90878314 370.726026859 521.90878314 269.387628914 c 0
 521.90878314 252.933765041 520.107738874 235.740050829 516.336914062 218 c 0
434.825195312 225 m 0
 437.444722164 237.324083665 438.684459936 249.131558356 438.684459936 260.308732427 c 0
 438.684459936 325.314311373 396.750385156 369 340.43359375 369 c 0
 275.43359375 369 202.6796875 309 184.825195312 225 c 0
 181.927718404 211.368747984 180.547715852 198.139466831 180.547715852 185.527189805 c 0
 180.547715852 118.568212267 219.444214894 69 276.666015625 69 c 0
 344.666015625 69 416.544921875 139 434.825195312 225 c 0
EndSplineSet
Validated: 1
EndChar

StartChar: one
Encoding: 49 49 82
Width: 525
Flags: HMW
HStem: 0 75<145 235 154 235 318 399> 428 75 602 20G<269.5 298.5>
VStem: 235 83<75 462 462 462>
LayerCount: 2
Fore
SplineSet
452.864257812 37 m 0
 445.212890625 1 417 0 399 0 c 2
 154 0 l 2
 138.039584719 0 113.598142422 0.78621869122 113.598142422 26.061145611 c 0
 113.598142422 29.2910336684 113.997279391 32.9208305628 114.864257812 37 c 0
 122.729492188 74 150.94140625 75 169.94140625 75 c 2
 250.94140625 75 l 1
 333.201171875 462 l 1
 287.037109375 433 249.974609375 428 231.974609375 428 c 0
 216.402700957 428 199.540080342 432.490450588 199.540080342 453.77295196 c 0
 199.540080342 457.091483064 199.95006869 460.81828672 200.838867188 465 c 0
 207.853515625 498 232.703125 502 251.916015625 503 c 0
 269.340820312 505 319.678710938 516 370.258789062 594 c 0
 379.234375 608 390.209960938 622 413.209960938 622 c 0
 436.876616898 622 442.636165335 608.740238754 442.636165335 594.278602068 c 0
 442.636165335 587.353301587 441.31538442 580.152386764 440.0078125 574 c 2
 333.94140625 75 l 1
 414.94140625 75 l 2
 431.610016802 75 454.272704562 74.2303529703 454.272704562 49.0587888582 c 0
 454.272704562 45.5381163468 453.829359098 41.5400741891 452.864257812 37 c 0
EndSplineSet
Validated: 1
Substitution2: "'onum' Oldstyle Figures lookup 4 subtable" one.taboldstyle
Substitution2: "'aalt' Access All Alternates lookup 0 subtable" one.taboldstyle
EndChar

StartChar: P
Encoding: 80 80 83
Width: 525
Flags: HMW
HStem: 0 75<63 93 72 93 176 197> 239 75<177 272 272 290 176 272> 536 75<63 290 72 93 177 177 177 272>
VStem: 93 83<75 239 75 536> 400 82<400.5 449>
LayerCount: 2
Fore
SplineSet
572.336914062 425 m 0
 552.143554688 330 458.80078125 239 340.80078125 239 c 2
 226.80078125 239 l 1
 191.94140625 75 l 1
 212.94140625 75 l 2
 228.911082047 75 254.159529394 74.2128686881 254.159529394 48.1964885556 c 0
 254.159529394 44.8888643482 253.75142313 41.1734441946 252.864257812 37 c 0
 245.212890625 1 215 0 197 0 c 2
 72 0 l 2
 55.9829602918 0 30.6328014869 0.791807287078 30.6328014869 26.3310828492 c 0
 30.6328014869 29.4929261264 31.021349073 33.0340794164 31.8642578125 37 c 0
 39.7294921875 74 68.94140625 75 87.94140625 75 c 2
 108.94140625 75 l 1
 206.930664062 536 l 1
 185.930664062 536 l 2
 169.960988265 536 144.712540919 536.787131312 144.712540919 562.803511444 c 0
 144.712540919 566.111135652 145.120647183 569.826555805 146.0078125 574 c 0
 153.659179688 610 183.872070312 611 201.872070312 611 c 2
 419.872070312 611 l 2
 521.18220328 611 576.339109664 542.020208937 576.339109664 462.491661967 c 0
 576.339109664 450.175102008 575.016192488 437.605534197 572.336914062 425 c 0
490.336914062 425 m 0
 491.690710439 431.36946487 492.396326724 438.003057884 492.396326724 444.718523923 c 0
 492.396326724 488.610507085 462.2533118 536 385.930664062 536 c 2
 290.930664062 536 l 1
 243.743164062 314 l 1
 338.743164062 314 l 2
 426.743164062 314 479.920898438 376 490.336914062 425 c 0
EndSplineSet
Validated: 1
EndChar

StartChar: p
Encoding: 112 112 84
Width: 525
Flags: HMW
HStem: -216 75<48.5 93 58 93 176 211 211 212> -6 75<266.5 311.5 243.5 336> 361 75<48.5 129 58 93> 366 75<270.5 321>
VStem: 93 82 129 82 177 82 408 82<174 258>
LayerCount: 2
Fore
SplineSet
536.336914062 218 m 0x18
 509.129882812 90 389.724609375 -6 279.724609375 -6 c 0
 250.724609375 -6 214.212890625 1 183.2265625 34 c 1
 146.029296875 -141 l 1
 181.029296875 -141 l 2xc5
 197.829373916 -141 222.282123291 -141.781835425 222.282123291 -167.541366189 c 0
 222.282123291 -170.914504479 221.862827894 -174.715939501 220.952148438 -179 c 0
 213.30078125 -215 183.087890625 -216 166.087890625 -216 c 2
 11.087890625 -216 l 2
 -4.03607982126 -216 -29.2806483295 -215.208531204 -29.2806483295 -189.685292251 c 0
 -29.2806483295 -186.519301497 -28.8922157372 -182.972768467 -28.0478515625 -179 c 0
 -20.1826171875 -142 9.029296875 -141 28.029296875 -141 c 2
 63.029296875 -141 l 1
 169.733398438 361 l 1xaa
 133.733398438 361 l 2
 118.609582861 361 93.3646035894 361.791452587 93.3646035894 387.313923681 c 0
 93.3646035894 390.480112959 93.7531145942 394.026903573 94.59765625 398 c 0
 102.25 434 131.674804688 436 150.674804688 436 c 2
 221.674804688 436 l 2x24
 251.872140459 436 261.427031062 428.260285521 261.427031062 412.190657682 c 0
 261.427031062 409.102747698 261.074219065 405.707257701 260.447265625 402 c 1
 298.76171875 427 342.737304688 441 385.737304688 441 c 0
 477.358797208 441 541.976183416 369.145620283 541.976183416 270.012656337 c 0
 541.976183416 253.373361498 540.15571546 235.965546121 536.336914062 218 c 0x18
454.336914062 218 m 0
 457.040605165 230.719598871 458.340005541 243.135844875 458.340005541 255.023657284 c 0
 458.340005541 317.904318504 421.984239397 366 364.795898438 366 c 0
 307.795898438 366 244.805664062 319 233.327148438 265 c 2
 218.236328125 194 l 2x13
 216.565705033 186.140378613 215.633263179 177.100165805 215.633263179 167.551918203 c 0
 215.633263179 123.646841047 235.3485865 69 293.666015625 69 c 0
 358.666015625 69 435.6328125 130 454.336914062 218 c 0
EndSplineSet
Validated: 1
EndChar

StartChar: parenleft
Encoding: 40 40 85
Width: 525
Flags: HMW
HStem: -80 21G<391 419.5> 672 20G<388.5 419.5>
VStem: 169 82<252.5 353.5 252.5 434>
LayerCount: 2
Fore
SplineSet
431.434570312 -45 m 0
 429.309570312 -55 418.995117188 -80 385.995117188 -80 c 0
 361.995117188 -80 296.686523438 -25 259.415039062 49 c 0
 242.060978582 84.6023519094 223.839949123 139.978132218 223.839949123 211.517184226 c 0
 223.839949123 240.44769135 226.819828205 272.021550506 234.041992188 306 c 0
 288.45703125 562 521.088867188 692 550.088867188 692 c 0
 576.206899059 692 581.457308371 676.339954343 581.457308371 664.850630135 c 0
 581.457308371 661.823251832 581.092774758 659.085444887 580.649414062 657 c 0
 576.823242188 639 568.760742188 634 547.998046875 621 c 0
 401.504882812 534 336.235351562 401 316.041992188 306 c 0
 310.346972871 279.206583519 307.144277143 251.159106129 307.144277143 222.909548489 c 0
 307.144277143 138.343979711 335.844120464 51.9675390793 412.299804688 -8 c 0
 426.031362066 -19.2921245094 432.549450304 -24.7291026749 432.549450304 -35.8551798441 c 0
 432.549450304 -38.5232368291 432.174627244 -41.5184457979 431.434570312 -45 c 0
EndSplineSet
Validated: 1
EndChar

StartChar: parenright
Encoding: 41 41 86
Width: 525
Flags: HMW
HStem: -80 21G<106.5 136.5> 672 20G<106.5 134>
VStem: 274 82<258.5 337>
LayerCount: 2
Fore
SplineSet
421.041992188 306 m 0
 366.627929688 50 133.995117188 -80 104.995117188 -80 c 0
 79.4393039707 -80 73.8057147838 -63.0098962234 73.8057147838 -51.4398006004 c 0
 73.8057147838 -48.9750086904 74.0613800895 -46.7561892849 74.4345703125 -45 c 0
 78.2607421875 -27 87.5361328125 -21 107.086914062 -9 c 0
 254.579101562 78 318.849609375 211 339.041992188 306 c 0
 343.273761592 325.908601403 347.975161944 355.303264643 347.975161944 389.482499571 c 0
 347.975161944 461.745325675 326.960014294 555.395073321 236.060546875 626 c 0
 231.64394023 629.43011392 222.861880834 636.537003312 222.861880834 649.843019919 c 0
 222.861880834 652.05370849 223.10429354 654.435512642 223.649414062 657 c 0
 225.775390625 667 238.088867188 692 269.088867188 692 c 0
 293.088867188 692 358.3984375 637 395.668945312 563 c 0
 413.023560716 527.397936186 431.244635947 472.022763987 431.244635947 400.484552461 c 0
 431.244635947 371.553572229 428.264581895 339.9791294 421.041992188 306 c 0
EndSplineSet
Validated: 1
EndChar

StartChar: percent
Encoding: 37 37 87
Width: 525
Flags: HMW
HStem: -81 76<397 407 397 428> 118 76<397 407> 416 76<117 127 117 147.5> 616 76<116.5 127.5>
VStem: 29 71<535.5 571.5 535.5 593.5> 144 71<535.5 571.5> 309 71<38 75.5 38 95.5> 424 71<38 75.5>
LayerCount: 2
Fore
SplineSet
332.755859375 554 m 0
 315.96484375 475 261.423828125 416 210.423828125 416 c 0
 169.9147955 416 141.95286298 453.414383313 141.95286298 510.693860236 c 0
 141.95286298 524.114018939 143.487778226 538.624632853 146.755859375 554 c 0
 163.547851562 633 218.088867188 692 269.088867188 692 c 0
 309.597523635 692 337.559313007 654.586311564 337.559313007 597.307735497 c 0
 337.559313007 583.887131327 336.024255433 569.375976555 332.755859375 554 c 0
578.162109375 650 m 0
 576.4609375 642 573.3984375 637 567.060546875 626 c 2
 156.796875 -48 l 2
 149.034179688 -61 136.783203125 -81 108.783203125 -81 c 0
 88.7274902564 -81 74.7836343209 -66.553117666 74.7836343209 -47.6047485565 c 0
 74.7836343209 -44.8230254786 75.0841499074 -41.9442871314 75.7099609375 -39 c 0
 77.4111328125 -31 80.4736328125 -26 86.8115234375 -15 c 2
 495.224609375 655 l 2
 504.625 671 518.088867188 692 545.088867188 692 c 0
 565.952643355 692 579.069508162 676.885515418 579.069508162 658.481992124 c 0
 579.069508162 655.715591263 578.773121733 652.874871847 578.162109375 650 c 0
507.116210938 57 m 0
 490.536132812 -21 436.783203125 -81 384.783203125 -81 c 0
 342.858627177 -81 316.374071032 -41.9984452265 316.374071032 13.9933844811 c 0
 316.374071032 27.4494878516 317.903685593 41.8868639227 321.116210938 57 c 0
 337.482421875 134 391.236328125 194 443.236328125 194 c 0
 485.249760626 194 511.757018142 154.832947252 511.757018142 99.1777904918 c 0
 511.757018142 85.9485933858 510.259331519 71.7878018736 507.116210938 57 c 0
261.755859375 554 m 0
 264.145379802 565.240374343 265.224805665 575.655631851 265.224805665 584.616423167 c 0
 265.224805665 603.557522525 260.401881233 616 252.934570312 616 c 0
 241.934570312 616 225.196289062 589 217.755859375 554 c 0
 215.34536289 542.659022624 214.30191462 532.445447158 214.30191462 523.733633768 c 0
 214.30191462 504.023108876 219.64325402 492 226.578125 492 c 0
 236.578125 492 253.891601562 517 261.755859375 554 c 0
436.116210938 57 m 0
 438.495111717 68.1923249375 439.523175866 78.1951058374 439.523175866 86.7038699399 c 0
 439.523175866 106.323691592 434.057078564 118 427.08203125 118 c 0
 417.08203125 118 399.98046875 94 392.116210938 57 c 0
 389.636079552 45.3318979018 388.567890865 34.9837573633 388.567890865 26.2450792535 c 0
 388.567890865 6.5241359631 394.008053184 -5 400.9375 -5 c 0
 410.9375 -5 428.0390625 19 436.116210938 57 c 0
EndSplineSet
Validated: 1
EndChar

StartChar: period
Encoding: 46 46 88
Width: 525
Flags: HMW
HStem: 0 137<244.5 280.5 242 283>
VStem: 194 137<51 86>
LayerCount: 2
Fore
SplineSet
345.454101562 68 m 0
 338.2265625 34 304 0 262 0 c 0
 231.425475335 0 207.080973812 22.1299960782 207.080973812 54.3909202577 c 0
 207.080973812 59.0604916022 207.591010372 63.9423139026 208.666015625 69 c 0
 215.893554688 103 250.120117188 137 292.120117188 137 c 0
 322.631952214 137 347.10107786 115.720638247 347.10107786 83.0997572188 c 0
 347.10107786 78.3013602857 346.571634604 73.2575646827 345.454101562 68 c 0
EndSplineSet
Validated: 1
EndChar

StartChar: plus
Encoding: 43 43 89
Width: 525
Flags: HMW
HStem: 79 21G<241.5 282.5> 264 84<83 220 90 220 304 434> 513 20G<241.5 282.5>
VStem: 220 84<133 264 348 479>
LayerCount: 2
Fore
SplineSet
553.041992188 306 m 0
 544.327148438 265 504.115234375 264 490.115234375 264 c 2
 360.115234375 264 l 1
 332.270507812 133 l 2
 329.293945312 119 319.791992188 79 278.791992188 79 c 0
 251.615769689 79 245.748872196 96.5739933207 245.748872196 112.50170333 c 0
 245.748872196 120.603679949 247.26691421 128.279685731 248.270507812 133 c 2
 276.115234375 264 l 1
 146.115234375 264 l 2
 133.473959815 264 99.8072611158 264.815315421 99.8072611158 295.157261794 c 0
 99.8072611158 298.418513201 100.196200765 302.020875496 101.041992188 306 c 0
 109.756835938 347 149.969726562 348 163.969726562 348 c 2
 293.969726562 348 l 1
 321.814453125 479 l 2
 324.790039062 493 334.29296875 533 375.29296875 533 c 0
 402.469179824 533 408.335654756 515.426021455 408.335654756 499.498316757 c 0
 408.335654756 491.396332739 406.817718294 483.72031817 405.814453125 479 c 2
 377.969726562 348 l 1
 507.969726562 348 l 2
 520.610972107 348 554.276749069 347.184688322 554.276749069 316.842947137 c 0
 554.276749069 313.581640655 553.887801672 309.979209478 553.041992188 306 c 0
EndSplineSet
Validated: 1
EndChar

StartChar: Q
Encoding: 81 81 90
Width: 525
Flags: HMW
HStem: -135 21G<400.5 410 410 419> -11 75<254 262> 64 75<234 273 234 273> 547 75<220 302.5>
VStem: 53 83<279 332 279 450.5> 146 83 229 83 388 83<282.5 332>
LayerCount: 2
Fore
SplineSet
535.830078125 305 m 0xdb
 526.264648438 260 512.236328125 194 494.970703125 141 c 0
 469.390625 63 443.739257812 27 400.700195312 8 c 1
 417.860351562 -43 l 2
 423.759424691 -65.2011777437 434.874987358 -102.310250934 434.874987358 -108.458701456 c 0
 434.874987358 -132.916119397 405.848916979 -135 390.3046875 -135 c 2
 381.3046875 -135 l 2
 362.3046875 -135 350.517578125 -134 343.493164062 -120 c 2
 309.874023438 -10 l 1
 259.662109375 -11 l 2
 134.775398589 -11 85.8643380322 0.721411544815 85.8643380322 96.2064081243 c 0
 85.8643380322 142.931973838 97.5767392868 209.715839397 117.830078125 305 c 0
 179.68359375 596 208.209960938 622 394.209960938 622 c 0
 519.016490625 622 567.849043259 609.843389813 567.849043259 514.230897851 c 0
 567.849043259 467.351458105 556.109668211 400.409174144 535.830078125 305 c 0xdb
453.041992188 306 m 0
 464.095703125 358 478.124023438 424 479.5390625 473 c 0
 479.662517749 475.86651511 479.726128268 478.629168115 479.726128268 481.291284879 c 0
 479.726128268 533.42214252 455.333169536 547 378.268554688 547 c 0
 294.268554688 547 270.655273438 530 248.02734375 480 c 0
 228.25 434 212.307617188 359 200.830078125 305 c 0
 189.776367188 253 175.748046875 187 174.333007812 138 c 0
 174.271352359 135.864993752 174.238365073 133.775551037 174.238365073 131.731754573 c 0
 174.238365073 86.8688842087 190.132811667 64 267.603515625 64 c 2
 286.603515625 64 l 1
 263.544921875 139 l 2x3d
 261.033203125 146 260.883789062 150 262.159179688 156 c 0
 267.259765625 180 288.685546875 182 306.685546875 182 c 2
 317.685546875 182 l 2
 341.685546875 182 342.47265625 181 349.646484375 163 c 2
 375.280273438 86 l 1
 396.255859375 100 415.844726562 131 453.041992188 306 c 0
EndSplineSet
Validated: 1
EndChar

StartChar: q
Encoding: 113 113 91
Width: 525
Flags: HMW
HStem: -216 75<319.5 369 329 369 452 492> -6 75<214 273.5> 366 75<222 279.5 198.5 293>
VStem: 39 81<175.5 259.5 175.5 281.5> 248 81 369 83<-141 42 42 42> 411 81
LayerCount: 2
Fore
SplineSet
499.952148438 -179 m 0x82
 492.30078125 -215 464.087890625 -216 446.087890625 -216 c 2xfa
 283.087890625 -216 l 2
 266.351558407 -216 242.797188361 -215.224086382 242.797188361 -189.750775833 c 0
 242.797188361 -186.305390569 243.228088166 -182.408195154 244.165039062 -178 c 0
 251.604492188 -143 281.029296875 -141 299.029296875 -141 c 2
 339.029296875 -141 l 1
 377.927734375 42 l 1
 348.250976562 20 300.724609375 -6 243.724609375 -6 c 0
 148.032115536 -6 79.7127191488 66.8342854447 79.7127191488 167.012113257 c 0
 79.7127191488 183.037118509 81.4609434815 199.761817387 85.125 217 c 0
 112.544921875 346 235.737304688 441 348.737304688 441 c 0
 397.737304688 441 431.69921875 422 453.59765625 398 c 1xfc
 461.186523438 429 470.737304688 441 504.737304688 441 c 0x22
 532.015503645 441 538.685162576 429.373435338 538.685162576 415.000554848 c 0
 538.685162576 408.297439063 537.234489873 400.996990574 535.747070312 394 c 2
 422.029296875 -141 l 1x84
 462.029296875 -141 l 2
 478.697907427 -141 501.360595187 -141.76964703 501.360595187 -166.941211142 c 0
 501.360595187 -170.461883653 500.917249723 -174.459925811 499.952148438 -179 c 0x82
409.874023438 197 m 2
 417.951171875 235 l 2
 420.039369601 244.82455535 421.090999127 254.94403869 421.090999127 264.998453078 c 0
 421.090999127 316.34782154 393.661402375 366 336.795898438 366 c 0
 262.795898438 366 184.192382812 302 166.125 217 c 0
 163.564344186 204.953323428 162.348238857 193.28583157 162.348238857 182.141227259 c 0
 162.348238857 116.500989527 204.535581973 69 262.666015625 69 c 0
 337.666015625 69 398.8203125 145 409.874023438 197 c 2
EndSplineSet
Validated: 1
EndChar

StartChar: question
Encoding: 63 63 92
Width: 525
Flags: HMW
HStem: 0 113<231 263> 113 113<231 294> 542 75<235 298.5>
VStem: 59 103<472 493.5 472 518.5> 154 93 201 93<215.5 226 226 243 206 258> 201 103 382 83<480 502>
LayerCount: 2
Fore
SplineSet
568.727539062 488 m 0x30
 557.25 434 512.873046875 404 478.259765625 387 c 0
 382.056640625 339 354.791015625 286 345.651367188 243 c 2
 342.038085938 226 l 2x45
 333.53515625 186 320.047851562 179 285.047851562 179 c 0x08
 255.18789952 179 246.01151222 185.164263854 246.01151222 202.459614723 c 0
 246.01151222 211.228967105 248.370621316 222.859952042 251.588867188 238 c 0x04
 260.090820312 278 279.220703125 368 454.712890625 455 c 0
 469.4140625 463 482.327148438 472 485.727539062 488 c 0
 486.189187049 490.172033324 486.425636732 492.332031626 486.425636732 494.468791847 c 0
 486.425636732 519.877320883 452.991801147 542 367.206054688 542 c 0
 333.206054688 542 292.142578125 537 263.466796875 515 c 1x29
 265.978515625 508 268.065429688 499 265.727539062 488 c 0
 258.92578125 456 227.887695312 437 203.887695312 437 c 0
 182.9514633 437 161.72094516 449.936699279 161.72094516 477.137773021 c 0
 161.72094516 481.118325917 162.175593173 485.404348018 163.15234375 490 c 0
 175.268554688 547 239.147460938 617 383.147460938 617 c 0
 542.8366062 617 570.926535614 552.036625418 570.926535614 508.966564985 c 0
 570.926535614 501.061079094 569.980174642 493.893187725 568.727539062 488 c 0x30
316.116210938 57 m 0
 309.313476562 25 279 0 247 0 c 0x88
 219.260778113 0 200.774273253 18.7857527071 200.774273253 44.6324594617 c 0
 200.774273253 48.6025449561 201.210431508 52.7392218868 202.116210938 57 c 0
 208.705078125 88 239.018554688 113 271.018554688 113 c 0x48
 298.862988156 113 317.38438257 94.0714727742 317.38438257 68.7319536011 c 0
 317.38438257 64.9502261716 316.971850811 61.0257050776 316.116210938 57 c 0
EndSplineSet
Validated: 1
EndChar

StartChar: quotedbl
Encoding: 34 34 93
Width: 525
Flags: HMW
HStem: 320 21G<157.5 189 334.5 366> 602 20G<163 181.5 340 358.5>
LayerCount: 2
Fore
SplineSet
521.03125 560 m 2
 465.733398438 361 l 2
 460.481445312 341 449.018554688 320 419.018554688 320 c 0
 393.549887706 320 387.797285277 334.295382871 387.797285277 349.095074913 c 0
 387.797285277 353.471488073 388.300317301 357.892000171 388.9453125 362 c 2
 418.03125 560 l 2
 425.659179688 610 461.209960938 622 483.209960938 622 c 0
 495.864158411 622 524.237240945 615.594851452 524.237240945 581.771069095 c 0
 524.237240945 575.500903463 523.262205944 568.28850226 521.03125 560 c 2
344.03125 560 m 2
 288.733398438 361 l 2
 283.481445312 341 272.018554688 320 242.018554688 320 c 0
 216.549887706 320 210.797285277 334.295382871 210.797285277 349.095074913 c 0
 210.797285277 353.471488073 211.300317301 357.892000171 211.9453125 362 c 2
 241.03125 560 l 2
 248.659179688 610 284.209960938 622 306.209960938 622 c 0
 318.864158411 622 347.237240945 615.594851452 347.237240945 581.771069095 c 0
 347.237240945 575.500903463 346.262205944 568.28850226 344.03125 560 c 2
EndSplineSet
Validated: 1
EndChar

StartChar: quotesingle
Encoding: 39 39 94
Width: 525
Flags: HMW
HStem: 320 21G<246.5 278> 602 20G<252 270.5>
LayerCount: 2
Fore
SplineSet
433.03125 560 m 2
 377.733398438 361 l 2
 372.481445312 341 361.018554688 320 331.018554688 320 c 0
 305.549887706 320 299.797285277 334.295382871 299.797285277 349.095074913 c 0
 299.797285277 353.471488073 300.300317301 357.892000171 300.9453125 362 c 2
 330.03125 560 l 2
 337.659179688 610 373.209960938 622 395.209960938 622 c 0
 407.864158411 622 436.237240945 615.594851452 436.237240945 581.771069095 c 0
 436.237240945 575.500903463 435.262205944 568.28850226 433.03125 560 c 2
EndSplineSet
Validated: 1
EndChar

StartChar: R
Encoding: 82 82 95
Width: 525
Flags: HMW
HStem: 0 75<58 84 67 84 167 183> 268 75<167 229 229 235 167 167> 536 75<58 240 67 84 166 166 166 229>
VStem: 84 82<343 536 343 536 343 536> 84 83<75 268 75 536> 328 82<133 184.5 129.5 185> 347 83 354 83<419.5 461> 440 83<82.5 112.5>
CounterMasks: 1 e0
LayerCount: 2
Fore
SplineSet
543.830078125 98 m 0xe280
 535.328125 58 494.662109375 -11 428.662109375 -11 c 0
 392.662109375 -11 366.275390625 6 355.077148438 38 c 0xf280
 350.585577428 49.7828675709 348.612468554 61.2945711414 348.612468554 74.432195106 c 0
 348.612468554 96.9738287022 354.42129189 124.302164365 363.284179688 166 c 0
 367.479675166 185.738256566 370.700288415 200.889823984 370.700288415 213.416723092 c 0
 370.700288415 225.006552051 367.943487086 234.349700478 360.651367188 243 c 0
 336.96484375 268 308.96484375 268 291.96484375 268 c 2
 223.96484375 268 l 1
 182.94140625 75 l 1xec
 198.94140625 75 l 2
 215.677565495 75 239.232379349 74.2241024203 239.232379349 48.751565639 c 0
 239.232379349 45.3059861572 238.801396661 41.4085319965 237.864257812 37 c 0
 230.212890625 1 201 0 183 0 c 2
 67 0 l 2
 51.0993912455 0 27.5615337642 0.780337527053 27.5615337642 25.7780469301 c 0
 27.5615337642 29.0785477529 27.9718570742 32.8012175091 28.8642578125 37 c 0
 36.7294921875 74 63.94140625 75 82.94140625 75 c 2
 99.94140625 75 l 1
 197.930664062 536 l 1
 180.930664062 536 l 2
 165.030222633 536 141.491931179 536.780321104 141.491931179 561.777257773 c 0
 141.491931179 565.077954351 141.902336103 568.800882859 142.794921875 573 c 0
 150.659179688 610 177.872070312 611 196.872070312 611 c 2
 369.872070312 611 l 2
 475.26175788 611 533.713250468 546.209246901 533.713250468 470.820417103 c 0
 533.713250468 460.369163449 532.589891962 449.714229117 530.3125 439 c 0xf1
 522.022460938 400 491.481445312 341 423.404296875 303 c 1
 434.853515625 291 448.815429688 272 453.713867188 248 c 0
 454.881034508 240.814553091 455.546359751 235.063290829 455.546359751 228.840814014 c 0
 455.546359751 214.279692337 451.903041666 197.138201864 442.521484375 153 c 0xe4
 436.908491063 126.593143487 431.630900512 101.764652911 431.630900512 85.0768613115 c 0
 431.630900512 72.0630409528 434.840475843 64 443.603515625 64 c 0
 450.603515625 64 456.3671875 77 458.705078125 88 c 0
 469.120117188 137 498.120117188 137 511.120117188 137 c 0
 522.490996588 137 545.337932052 137 545.337932052 110.9014301 c 0
 545.337932052 107.162254232 544.868960695 102.8873618 543.830078125 98 c 0xe280
447.3125 439 m 0
 448.406566234 444.147149237 448.965748536 449.417458757 448.965748536 454.711677777 c 0
 448.965748536 494.674673214 417.104288246 536 342.930664062 536 c 2
 279.930664062 536 l 1
 238.907226562 343 l 1
 301.907226562 343 l 2
 384.907226562 343 437.959960938 395 447.3125 439 c 0
EndSplineSet
Validated: 1
EndChar

StartChar: r
Encoding: 114 114 96
Width: 525
Flags: HMW
HStem: 0 75<67.5 148 77 148 231 331> 324 75 361 75<67.5 184 77 148> 366 75
VStem: 148 83<75 189 75 361> 391 98<357.5 366>
LayerCount: 2
Fore
SplineSet
568.283203125 373 m 0x18
 561.694335938 342 534.868164062 324 508.868164062 324 c 0x44
 485.7119512 324 467.970328495 338.277786234 467.970328495 358.355936722 c 0
 467.970328495 360.821710657 468.237907752 363.374965719 468.795898438 366 c 1x14
 360.158203125 363 289.453125 275 271.172851562 189 c 2
 246.94140625 75 l 1
 346.94140625 75 l 2
 362.911082047 75 388.159529394 74.2128686881 388.159529394 48.1964885556 c 0
 388.159529394 44.8888643482 387.75142313 41.1734441946 386.864257812 37 c 0
 379.212890625 1 349 0 331 0 c 2
 77 0 l 2
 60.2636677819 0 36.7092977364 0.77591361805 36.7092977364 26.2492241673 c 0
 36.7092977364 29.6946094306 37.1401975407 33.5918048458 38.0771484375 38 c 0
 45.7294921875 74 74.94140625 75 92.94140625 75 c 2
 163.94140625 75 l 1
 224.733398438 361 l 1
 153.733398438 361 l 2xa8
 136.997239192 361 113.442425338 361.77589758 113.442425338 387.248434361 c 0
 113.442425338 390.694013843 113.873408026 394.591468004 114.810546875 399 c 0x40
 122.25 434 151.674804688 436 169.674804688 436 c 2
 276.674804688 436 l 2x20
 306.523777029 436 316.576271283 429.317791376 316.576271283 410.966947618 c 0
 316.576271283 404.726199347 315.413658514 397.135924892 313.471679688 388 c 2
 310.49609375 374 l 1
 373.548828125 426 434.737304688 441 482.737304688 441 c 0
 555.666248309 441 569.682740493 409.406893386 569.682740493 386.063474718 c 0
 569.682740493 381.239464368 569.084154042 376.767764095 568.283203125 373 c 0x18
EndSplineSet
Validated: 1
EndChar

StartChar: S
Encoding: 83 83 97
Width: 525
Flags: HMW
HStem: -11 75<271.5 320 271.5 342> 90 75 356 75 547 75<205.5 260 182.5 290.5>
VStem: 50 78<437 481 437 497.5> 201 78<356 374> 293 78 396 78<141 202.5 124.5 204.5>
LayerCount: 2
Fore
SplineSet
510.134765625 170 m 0
 490.791992188 79 398.662109375 -11 280.662109375 -11 c 0
 221.662109375 -11 167.637695312 3 133.1640625 29 c 1
 118.212890625 1 106.662109375 -11 84.662109375 -11 c 0
 60.7860932912 -11 55.016679101 1.75606495133 55.016679101 15.8908036032 c 0
 55.016679101 23.0682717149 56.5043220081 30.6012307109 57.8642578125 37 c 2
 85.2841796875 166 l 2
 90.1728515625 189 95.2744140625 213 136.274414062 213 c 0
 164.314053998 213 170.403660115 202.144872083 170.403660115 188.610715542 c 0
 170.403660115 183.320375538 169.473208099 177.620697469 168.559570312 172 c 0
 167.889359969 167.532658147 167.088433625 161.350249297 167.088433625 154.149299866 c 0
 167.088433625 135.559702105 172.426119866 110.182151757 199.129882812 90 c 0
 230.454101562 68 272.603515625 64 297.603515625 64 c 0
 369.603515625 64 420.869140625 117 431.072265625 165 c 0
 432.771408765 172.993828641 433.549386235 180.363081239 433.549386235 187.157488484 c 0
 433.549386235 247.509650986 372.166183565 262.505938522 349.752929688 267 c 2
 243.491210938 294 l 2
 176.095571556 314.244392704 143.103723711 365.795658987 143.103723711 422.245938721 c 0
 143.103723711 432.718225321 144.239146175 443.359112661 146.500976562 454 c 0
 164.993164062 541 258.209960938 622 371.209960938 622 c 0
 413.209960938 622 460.872070312 611 494.708007812 582 c 1
 508.234375 608 519.209960938 622 543.209960938 622 c 0
 567.085977021 622 572.855391212 609.243935049 572.855391212 595.109196397 c 0
 572.855391212 587.931728285 571.367748304 580.398769289 570.0078125 574 c 2
 542.587890625 445 l 2
 537.69921875 422 531.59765625 398 490.59765625 398 c 0
 468.004931957 398 456.478023295 404.203156835 456.478023295 426.619914228 c 0
 456.478023295 431.900711873 456.866387989 435.980566536 456.866387989 442.184048799 c 0
 456.866387989 477.700769613 447.980268097 547 354.268554688 547 c 0
 289.268554688 547 235.12890625 504 225.350585938 458 c 0
 224.226415255 452.710826747 223.694372338 447.596102979 223.694372338 442.673803245 c 0
 223.694372338 408.509353698 249.325009971 383.614740339 280.49609375 374 c 2
 354.669921875 356 l 2
 428.84375 338 454.356445312 331 486.853515625 291 c 0
 495.071717402 280.56398912 514.002471876 250.794784792 514.002471876 205.831082754 c 0
 514.002471876 194.784098983 512.859774494 182.8199456 510.134765625 170 c 0
EndSplineSet
Validated: 1
EndChar

StartChar: s
Encoding: 115 115 98
Width: 525
Flags: HMW
HStem: -6 75<255.5 311 248.5 349.5> 322 75 369 75<217.5 271 176.5 296.5>
VStem: 69 75<310.5 333.5 310.5 340> 387 75<113 152.5>
LayerCount: 2
Fore
SplineSet
489.6328125 130 m 0x50
 479.216796875 81 428.724609375 -6 267.724609375 -6 c 0
 240.724609375 -6 192.149414062 -4 151.739257812 27 c 1
 131.724609375 -6 114.724609375 -6 104.724609375 -6 c 0
 80.8491827391 -6 75.079463981 6.75543511912 75.079463981 20.8897567362 c 0
 75.079463981 28.0675392325 76.5674035527 35.6009196134 77.927734375 42 c 2
 97.9072265625 136 l 2
 103.008789062 160 109.110351562 184 150.110351562 184 c 0
 181.110351562 184 183.559570312 172 184.883789062 150 c 0
 192.791992188 79 241.666015625 69 284.666015625 69 c 0
 366.666015625 69 407.405273438 96 414.6328125 130 c 0
 415.214676781 132.737625698 415.49300565 135.353117263 415.49300565 137.852779081 c 0
 415.49300565 176.441561867 349.161798571 187.425852886 309.236328125 194 c 0
 226.114788986 206.784499191 134.883946735 224.572368369 134.883946735 299.145267166 c 0
 134.883946735 306.235370381 135.70862538 313.838780282 137.443359375 322 c 0xd8
 145.095703125 358 185.375 444 356.375 444 c 0
 374.375 444 414.375 444 452.76171875 427 c 1
 458.461914062 435 468.375 444 490.375 444 c 0x20
 514.170512062 444 519.961794243 431.057682416 519.961794243 416.80045107 c 0
 519.961794243 410.087211353 518.677783541 403.082436309 517.384765625 397 c 2
 502.930664062 329 l 2
 498.041992188 306 491.94140625 282 450.94140625 282 c 0
 423.166781048 282 416.946533783 293.269975239 416.946533783 307.349943601 c 0
 416.946533783 312.02662184 417.632778909 317.01331092 418.443359375 322 c 0x40
 418.58313582 323.702179333 418.663829605 325.40983582 418.663829605 327.112835658 c 0
 418.663829605 348.420922563 406.031024563 369 338.43359375 369 c 0x20
 253.43359375 369 217.33203125 345 212.443359375 322 c 0
 212.020745239 320.011704329 211.818962529 318.113086987 211.818962529 316.299625694 c 0
 211.818962529 297.135517937 234.353288812 287.481314173 256.94140625 282 c 2
 354.115234375 264 l 2
 383.459518697 259.405842408 492.311009876 239.615160351 492.311009876 154.205844543 c 0
 492.311009876 146.660887343 491.461560585 138.603859051 489.6328125 130 c 0x50
EndSplineSet
Validated: 1
EndChar

StartChar: semicolon
Encoding: 59 59 99
Width: 525
Flags: HMW
HStem: -135 21G<202.5 224.5> 298 138<244.5 280.5 242 283>
VStem: 194 137<349 384>
LayerCount: 2
Fore
SplineSet
408.795898438 366 m 0
 401.568359375 332 367.341796875 298 325.341796875 298 c 0
 294.76727221 298 270.422770687 320.129996078 270.422770687 352.390920258 c 0
 270.422770687 357.060491602 270.932807247 361.942313903 272.0078125 367 c 0
 279.235351562 401 313.674804688 436 355.674804688 436 c 0
 386.160632964 436 410.452532138 413.998215473 410.452532138 381.228759347 c 0
 410.452532138 376.376440726 409.919907044 371.288029733 408.795898438 366 c 0
343.2265625 34 m 0
 318.783203125 -81 207.3046875 -135 184.3046875 -135 c 0
 165.774941265 -135 152.890622801 -119.428503604 152.890622801 -102.712304648 c 0
 152.890622801 -100.483820087 153.11960707 -98.2349915019 153.594726562 -96 c 0
 157.6328125 -77 175.545898438 -68 184.396484375 -64 c 0
 198.883789062 -57 233.28515625 -41 256 0 c 1
 219.250953989 4.0889063712 206.971959198 28.9095653299 206.971959198 53.1327019444 c 0
 206.971959198 58.5301220453 207.581600669 63.8978756787 208.666015625 69 c 0
 216.743164062 107 251.120117188 137 291.120117188 137 c 0
 323.513542681 137 347.371522361 115.357485937 347.371522361 69.9479876087 c 0
 347.371522361 59.2849988355 346.056000224 47.3115053871 343.2265625 34 c 0
EndSplineSet
Validated: 1
EndChar

StartChar: seven
Encoding: 55 55 100
Width: 525
Flags: HMW
HStem: -11 21G<186 216.5> 536 75<125 356 125 125>
VStem: 83 82 165 82<35 36 19 96>
LayerCount: 2
Fore
SplineSet
603.794921875 573 m 0xe0
 600.393554688 557 598.755859375 554 571.504882812 534 c 0
 500.389648438 477 317.6796875 309 254.65234375 36 c 0x10
 247.424804688 2 224.662109375 -11 203.662109375 -11 c 0
 177.311238779 -11 171.390920277 5.49124905307 171.390920277 21.3201115104 c 0
 171.390920277 29.5190888917 172.979339146 37.5403482385 174.139648438 43 c 0
 196.670898438 149 272.095703125 358 469.930664062 536 c 1
 238.930664062 536 l 1
 231.978515625 508 224.15234375 490 187.15234375 490 c 0
 160.010102864 490 153.271932341 501.51095688 153.271932341 516.097175199 c 0
 153.271932341 523.006924557 154.784034616 530.606788509 156.35546875 538 c 2
 165.0703125 579 l 2
 169.74609375 601 176.2734375 627 216.2734375 627 c 0
 225.2734375 627 243.060546875 626 248.872070312 611 c 1
 564.872070312 611 l 2
 582.42325065 611 605.201250621 610.229890172 605.201250621 585.03608169 c 0
 605.201250621 581.520928156 604.757829333 577.530316376 603.794921875 573 c 0xe0
EndSplineSet
Validated: 1
Substitution2: "'onum' Oldstyle Figures lookup 4 subtable" seven.taboldstyle
Substitution2: "'aalt' Access All Alternates lookup 0 subtable" seven.taboldstyle
EndChar

StartChar: six
Encoding: 54 54 101
Width: 525
Flags: HMW
HStem: -11 75<234 297 234 319> 224 75 325 76<249.5 305> 547 75<279.5 329.5>
VStem: 51 92<218.5 252.5 218.5 400> 273 82 355 102<497 518> 391 82<156.5 230>
LayerCount: 2
Fore
SplineSet
514.661132812 196 m 0x34
 488.729492188 74 371.662109375 -11 261.662109375 -11 c 0
 181.161230221 -11 100.86116382 36.6061821455 100.86116382 182.357254979 c 0
 100.86116382 215.850885585 105.101661565 254.527366047 114.5546875 299 c 0
 157.491210938 501 317.209960938 622 451.209960938 622 c 0
 538.144021741 622 568.529492667 579.030017271 568.529492667 535.177220818 c 0
 568.529492667 528.081834236 567.734023208 520.963336236 566.25390625 514 c 0xda
 558.814453125 479 531.776367188 460 502.776367188 460 c 0
 477.10617688 460 462.337119265 476.840054911 462.337119265 499.243101749 c 0
 462.337119265 503.021839974 462.757296215 506.958844287 463.616210938 511 c 0
 466.591796875 525 470.080078125 532 475.35546875 538 c 1
 469.206054688 542 456.268554688 547 435.268554688 547 c 0
 356.268554688 547 258.176757812 476 213.669921875 356 c 1
 261.471679688 388 311.235351562 401 358.235351562 401 c 0
 454.283009704 401 519.535322761 333.613932547 519.535322761 240.953690339 c 0
 519.535322761 226.528688782 517.953926213 211.491164989 514.661132812 196 c 0x34
432.661132812 196 m 0
 434.768231425 205.912944435 435.802383445 215.677129079 435.802383445 225.125261986 c 0
 435.802383445 280.488653227 400.293438685 325 337.081054688 325 c 0
 268.081054688 325 202.728515625 281 190.612304688 224 c 0
 188.745099242 215.214618988 185.617716189 197.498982823 185.617716189 179.513785006 c 0
 185.617716189 174.980076049 185.816443664 170.429237976 186.284179688 166 c 0
 192.380859375 110 217.603515625 64 277.603515625 64 c 0
 343.603515625 64 415.869140625 117 432.661132812 196 c 0
EndSplineSet
Validated: 1
Substitution2: "'onum' Oldstyle Figures lookup 4 subtable" six.taboldstyle
Substitution2: "'aalt' Access All Alternates lookup 0 subtable" six.taboldstyle
EndChar

StartChar: slash
Encoding: 47 47 102
Width: 525
Flags: HMW
HStem: -81 21G<85 110> 672 20G<414 439>
LayerCount: 2
Fore
SplineSet
607.162109375 650 m 0
 605.673828125 643 604.249023438 641 592.422851562 623 c 2
 127.584960938 -49 l 2
 118.396484375 -64 105.783203125 -81 79.783203125 -81 c 0
 58.9194269576 -81 45.8025621505 -65.885515418 45.8025621505 -47.4819921241 c 0
 45.8025621505 -44.7155912628 46.0989485795 -41.8748718466 46.7099609375 -39 c 0
 48.1982421875 -32 49.623046875 -30 61.44921875 -12 c 2
 526.287109375 660 l 2
 535.475585938 675 548.088867188 692 574.088867188 692 c 0
 594.952643355 692 608.069508162 676.885515418 608.069508162 658.481992124 c 0
 608.069508162 655.715591263 607.773121733 652.874871847 607.162109375 650 c 0
EndSplineSet
Validated: 1
EndChar

StartChar: T
Encoding: 84 84 104
Width: 525
Flags: HMW
HStem: 0 75<168.5 221 178 221 304 347> 536 75<107 221 107 107 304 417 304 304>
VStem: 24 83<492 536 480.5 563 480.5 582.5> 221 83<75 536 75 536> 417 83<492 536 536 536>
LayerCount: 2
Fore
SplineSet
604.578125 492 m 2
 599.689453125 469 593.375 444 552.375 444 c 0
 525.225640983 444 518.588680315 455.977675044 518.588680315 470.55265398 c 0
 518.588680315 477.451447484 520.07564161 484.932147459 521.578125 492 c 2
 530.930664062 536 l 1
 417.930664062 536 l 1
 319.94140625 75 l 1
 362.94140625 75 l 2
 379.677565495 75 403.232379349 74.2241024203 403.232379349 48.751565639 c 0
 403.232379349 45.3059861572 402.801396661 41.4085319965 401.864257812 37 c 0
 394.212890625 1 365 0 347 0 c 2
 178 0 l 2
 161.263667782 0 137.709297736 0.77591361805 137.709297736 26.2492241673 c 0
 137.709297736 29.6946094306 138.140197541 33.5918048458 139.077148438 38 c 0
 146.729492188 74 175.94140625 75 193.94140625 75 c 2
 236.94140625 75 l 1
 334.930664062 536 l 1
 220.930664062 536 l 1
 211.578125 492 l 2
 206.689453125 469 200.375 444 159.375 444 c 0
 132.225640983 444 125.588680315 455.977675044 125.588680315 470.55265398 c 0
 125.588680315 477.451447484 127.07564161 484.932147459 128.578125 492 c 2
 143.668945312 563 l 2
 151.958984375 602 163.872070312 611 201.872070312 611 c 2
 582.872070312 611 l 2
 612.721042654 611 622.773536908 604.317791376 622.773536908 585.966947618 c 0
 622.773536908 579.726199347 621.610924139 572.135924892 619.668945312 563 c 2
 604.578125 492 l 2
EndSplineSet
Validated: 1
EndChar

StartChar: t
Encoding: 116 116 105
Width: 525
Flags: HMW
HStem: -6 75<263.5 307.5 263.5 331> 361 75<60 147 70 147 70 147 230 382>
VStem: 147 83<131 136 136 361 436 508> 369 82<132 141.5 85 142>
LayerCount: 2
Fore
SplineSet
478.844726562 131 m 0
 459.290039062 39 367.724609375 -6 291.724609375 -6 c 0
 225.931852327 -6 170.688881939 22.4782031577 170.688881939 94.3564129826 c 0
 170.688881939 105.50776738 172.018533214 117.703722997 174.844726562 131 c 2
 223.733398438 361 l 1
 145.733398438 361 l 2
 129.832957008 361 106.294665554 361.780321104 106.294665554 386.777257773 c 0
 106.294665554 390.077954351 106.705070478 393.800882859 107.59765625 398 c 0
 115.25 434 143.674804688 436 162.674804688 436 c 2
 239.674804688 436 l 1
 254.978515625 508 l 2
 259.8671875 531 265.96875 555 306.96875 555 c 0
 334.246948957 555 340.916607889 543.373435338 340.916607889 529.000554848 c 0
 340.916607889 522.297439063 339.465935185 514.996990574 337.978515625 508 c 2
 322.674804688 436 l 1
 474.674804688 436 l 2
 491.411136906 436 514.965506951 435.224086382 514.965506951 409.750775833 c 0
 514.965506951 406.305390569 514.534607147 402.408195154 513.59765625 398 c 0
 505.9453125 362 476.733398438 361 458.733398438 361 c 2
 306.733398438 361 l 1
 258.907226562 136 l 2
 257.538319202 129.558646852 255.669315118 120.765194476 255.669315118 111.66859492 c 0
 255.669315118 91.1086011683 265.216999479 69 311.666015625 69 c 0
 332.666015625 69 384.579101562 78 397.057617188 132 c 0
 401.30859375 152 407.41015625 176 446.41015625 176 c 0
 474.993859133 176 481.761633033 164.88397183 481.761633033 151.16273459 c 0
 481.761633033 144.722414512 480.27064486 137.708148558 478.844726562 131 c 0
EndSplineSet
Validated: 1
EndChar

StartChar: three
Encoding: 51 51 106
Width: 525
Flags: HMW
HStem: -11 75<246 305.5 246 330.5> 291 78<215.5 216 216 261> 547 75<260 294.5>
VStem: 42 102<135 157 135 158.5> 70 102<482 503.5 482 535> 371 83<462 496> 380 102 399 83<149 204>
LayerCount: 2
Fore
SplineSet
519.622070312 177 m 0x02
 499.642578125 83 394.662109375 -11 261.662109375 -11 c 0
 148.59498763 -11 69.0455731325 38.9094153726 69.0455731325 115.045669565 c 0
 69.0455731325 123.080937803 69.9316159989 131.408327656 71.7578125 140 c 0
 79.6220703125 177 108.236328125 194 134.236328125 194 c 0
 159.369290974 194 175.572803541 176.72495375 175.572803541 153.891676425 c 0
 175.572803541 150.378476162 175.189203645 146.733691042 174.395507812 143 c 0
 170.995117188 127 164.08203125 118 157.806640625 112 c 1
 176.516601562 73 241.603515625 64 277.603515625 64 c 0
 360.603515625 64 424.719726562 121 436.622070312 177 c 0x91
 438.041629801 183.67823392 438.76183859 190.448234935 438.76183859 197.185164834 c 0
 438.76183859 244.922848869 402.59945476 291 322.853515625 291 c 2
 277.853515625 291 l 2
 261.117183407 291 237.562813361 291.775913618 237.562813361 317.249224167 c 0
 237.562813361 320.694609431 237.993713166 324.591804846 238.930664062 329 c 0
 245.733398438 361 262.43359375 369 325.43359375 369 c 0
 358.43359375 369 382.283203125 373 417.384765625 397 c 0
 446.635742188 417 466.225585938 448 472.176757812 476 c 0
 472.95042844 479.639966562 473.327346179 483.205405493 473.327346179 486.679738689 c 0
 473.327346179 521.385241887 435.717605681 547 380.268554688 547 c 0
 372.268554688 547 312.268554688 547 277.166992188 523 c 1
 278.891601562 517 280.19140625 509 277.853515625 498 c 0
 271.051757812 466 240.799804688 446 216.799804688 446 c 0
 196.763806389 446 174.75578853 458.141889689 174.75578853 486.392107345 c 0
 174.75578853 490.571269868 175.237421108 495.102953711 176.278320312 500 c 0
 191.157226562 570 272.209960938 622 395.209960938 622 c 0
 499.631225137 622 557.949776056 566.242382264 557.949776056 500.935725622 c 0
 557.949776056 493.068791754 557.103517989 485.06329218 555.389648438 477 c 0x6c
 544.336914062 425 507.858398438 371 450.994140625 334 c 1
 495.157297047 307.434817629 523.252858348 263.640413716 523.252858348 210.626492976 c 0
 523.252858348 199.780680325 522.07692675 188.548987462 519.622070312 177 c 0x02
EndSplineSet
Validated: 1
Substitution2: "'onum' Oldstyle Figures lookup 4 subtable" three.taboldstyle
Substitution2: "'aalt' Access All Alternates lookup 0 subtable" three.taboldstyle
EndChar

StartChar: two
Encoding: 50 50 107
Width: 525
Flags: HMW
HStem: 0 75<189 392 189 428> 547 75<220 282>
VStem: 50 102<432 454 432 494.5> 392 82<29 89 391 464.5>
LayerCount: 2
Fore
SplineSet
484.203125 48 m 2
 476.125976562 10 466 0 428 0 c 2
 97 0 l 2
 80.2636677819 0 56.7092977364 0.77591361805 56.7092977364 26.2492241673 c 0
 56.7092977364 29.6946094306 57.1401975407 33.5918048458 58.0771484375 38 c 0
 61.6904296875 55 68.9658203125 61 81.87890625 70 c 2
 335.564453125 252 l 2
 409.404296875 303 468.095703125 358 482.124023438 424 c 0
 484.061422134 433.114894923 484.982128185 441.735936612 484.982128185 449.858850214 c 0
 484.982128185 513.92064168 427.716307599 547 360.268554688 547 c 0
 312.268554688 547 265.7421875 521 242.452148438 482 c 1
 246.101880174 475.542728415 248.284718974 467.026377506 248.284718974 458.297618719 c 0
 248.284718974 454.860429698 247.946246378 451.390304554 247.225585938 448 c 0
 240.423828125 416 209.384765625 397 185.384765625 397 c 0
 168.788175301 397 144.218720778 406.156126661 144.218720778 436.465260232 c 0
 144.218720778 440.854430746 144.733965293 445.687199664 145.86328125 451 c 0
 164.35546875 538 261.209960938 622 381.209960938 622 c 0
 490.173362387 622 568.73900615 562.542224254 568.73900615 466.018567305 c 0
 568.73900615 452.698613441 567.24287185 438.672809876 564.124023438 424 c 0
 547.119140625 344 488.303710938 279 413.400390625 223 c 0
 366.9609375 188 272.357421875 124 204.94140625 75 c 1
 407.94140625 75 l 1
 413.893554688 103 421.719726562 121 459.719726562 121 c 0
 486.265136005 121 492.85352891 109.989706836 492.85352891 95.8604844915 c 0
 492.85352891 88.6990616495 491.160978524 80.7363895703 489.516601562 73 c 2
 484.203125 48 l 2
EndSplineSet
Validated: 1
Substitution2: "'onum' Oldstyle Figures lookup 4 subtable" two.taboldstyle
Substitution2: "'aalt' Access All Alternates lookup 0 subtable" two.taboldstyle
EndChar

StartChar: U
Encoding: 85 85 108
Width: 525
Flags: HMW
HStem: -11 75<237.5 286 237.5 312.5> 536 75<42 176 51 72 155 155 155 176 348 369 452 473 452 452>
VStem: 72 83<207 211 211 536> 369 83<211 536>
LayerCount: 2
Fore
SplineSet
643.0078125 574 m 0
 635.142578125 537 605.930664062 536 586.930664062 536 c 2
 565.930664062 536 l 1
 495.999023438 207 l 2
 469.4296875 82 360.662109375 -11 259.662109375 -11 c 0
 173.384848357 -11 110.288688271 56.8629758345 110.288688271 154.565193611 c 0
 110.288688271 171.237538484 112.126019497 188.778788388 115.999023438 207 c 2
 185.930664062 536 l 1
 164.930664062 536 l 2
 148.960988265 536 123.712540919 536.787131312 123.712540919 562.803511444 c 0
 123.712540919 566.111135652 124.120647183 569.826555805 125.0078125 574 c 0
 132.659179688 610 162.872070312 611 180.872070312 611 c 2
 305.872070312 611 l 2
 321.889110021 611 347.239268826 610.208192713 347.239268826 584.668917151 c 0
 347.239268826 581.507073874 346.850721239 577.965920584 346.0078125 574 c 0
 338.142578125 537 307.930664062 536 289.930664062 536 c 2
 268.930664062 536 l 1
 199.849609375 211 l 2
 196.398339981 194.763452898 194.825059312 179.871933662 194.825059312 166.325442293 c 0
 194.825059312 98.1084807642 234.721789176 64 275.603515625 64 c 0
 323.603515625 64 393.018554688 113 413.849609375 211 c 2
 482.930664062 536 l 1
 461.930664062 536 l 2
 445.960988265 536 420.712540919 536.787131312 420.712540919 562.803511444 c 0
 420.712540919 566.111135652 421.120647183 569.826555805 422.0078125 574 c 0
 429.659179688 610 459.872070312 611 477.872070312 611 c 2
 602.872070312 611 l 2
 618.889110021 611 644.239268826 610.208192713 644.239268826 584.668917151 c 0
 644.239268826 581.507073874 643.850721239 577.965920584 643.0078125 574 c 0
EndSplineSet
Validated: 1
EndChar

StartChar: u
Encoding: 117 117 109
Width: 525
Flags: HMW
HStem: -6 75<211 258.5> 0 75<385.5 467 431 466> 361 75<49 129 58 93 313 348>
VStem: 312 83 348 83<161 361 361 361> 384 83
CounterMasks: 1 1c
LayerCount: 2
Fore
SplineSet
521.077148438 38 m 0x7c
 513.212890625 1 485 0 466 0 c 2
 395 0 l 2x5c
 376 0 356.212890625 1 354.313476562 25 c 1
 315.637695312 3 275.724609375 -6 238.724609375 -6 c 0
 172.521793223 -6 114.306355455 13.7287282772 114.306355455 84.2522660255 c 0
 114.306355455 94.6888623075 115.581289608 106.237878935 118.293945312 119 c 2
 169.733398438 361 l 1
 133.733398438 361 l 2
 119.502285024 361 94.3632558393 361.791111676 94.3632558393 387.297434985 c 0
 94.3632558393 390.467797827 94.7516482366 394.02000518 95.59765625 398 c 0
 103.25 434 131.674804688 436 150.674804688 436 c 2
 221.674804688 436 l 2
 251.523777029 436 261.576271283 429.317791376 261.576271283 410.966947618 c 0
 261.576271283 404.726199347 260.413658514 397.135924892 258.471679688 388 c 2
 202.569335938 125 l 2
 200.938462869 117.326814471 199.382615666 109.653628942 199.382615666 102.556693541 c 0
 199.382615666 83.7564066624 210.300894766 69 259.666015625 69 c 0xbc
 288.666015625 69 365.004882812 80 382.221679688 161 c 2
 424.733398438 361 l 1
 388.733398438 361 l 2
 373.609582861 361 348.364603589 361.791452587 348.364603589 387.313923681 c 0
 348.364603589 390.480112959 348.753114594 394.026903573 349.59765625 398 c 0
 357.25 434 386.674804688 436 405.674804688 436 c 2
 476.674804688 436 l 2
 506.114299351 436 516.436160792 429.162257625 516.436160792 410.325242613 c 0
 516.436160792 404.207903148 515.34758413 396.825081849 513.471679688 388 c 2
 446.94140625 75 l 1
 482.94140625 75 l 2
 497.172519663 75 522.311548848 74.2088883243 522.311548848 48.7025650151 c 0
 522.311548848 45.5322021726 521.923156451 41.9799948196 521.077148438 38 c 0x7c
EndSplineSet
Validated: 1
EndChar

StartChar: underscore
Encoding: 95 95 110
Width: 525
Flags: HMW
HStem: -159 84<100 417 107 417>
LayerCount: 2
Fore
SplineSet
446.130859375 -117 m 0
 437.416015625 -158 397.203125 -159 383.203125 -159 c 2
 73.203125 -159 l 2
 60.5618794558 -159 26.8961024933 -158.184688322 26.8961024933 -127.842947137 c 0
 26.8961024933 -124.581640655 27.285049891 -120.979209478 28.130859375 -117 c 0
 36.845703125 -76 77.05859375 -75 91.05859375 -75 c 2
 401.05859375 -75 l 2
 413.699839294 -75 447.365616257 -75.8153116781 447.365616257 -106.157052863 c 0
 447.365616257 -109.418359345 446.976668859 -113.020790522 446.130859375 -117 c 0
EndSplineSet
Validated: 1
EndChar

StartChar: V
Encoding: 86 86 111
Width: 525
Flags: HMW
HStem: -8 21G<246 277> 536 75<64 74 159 159 365 365 450 460 460 468.5>
LayerCount: 2
Fore
SplineSet
630.0078125 574 m 0
 622.780273438 540 600.930664062 536 563.930664062 536 c 1
 330.2265625 34 l 2
 311.51171875 -7 290.299804688 -8 260.299804688 -8 c 0
 228.299804688 -8 210.51171875 -7 208.439453125 35 c 2
 187.930664062 536 l 1
 155.945178279 536 136.551622212 538.989251427 136.551622212 561.764572755 c 0
 136.551622212 565.33516641 137.028282841 569.392068017 138.0078125 574 c 0
 145.659179688 610 175.872070312 611 193.872070312 611 c 2
 293.872070312 611 l 2
 308.996040759 611 334.240609267 610.208531204 334.240609267 584.685292251 c 0
 334.240609267 581.519301497 333.852176675 577.972768467 333.0078125 574 c 0
 326.206054688 542 307.142578125 537 272.930664062 536 c 1
 285.59375 111 l 1
 478.930664062 536 l 1
 450.088255942 536.853626576 433.525216273 540.62196648 433.525216273 561.611461075 c 0
 433.525216273 565.210580724 434.012215922 569.316050444 435.0078125 574 c 0
 442.659179688 610 472.872070312 611 489.872070312 611 c 2
 589.872070312 611 l 2
 605.889110021 611 631.239268826 610.208192713 631.239268826 584.668917151 c 0
 631.239268826 581.507073874 630.850721239 577.965920584 630.0078125 574 c 0
EndSplineSet
Validated: 1
EndChar

StartChar: v
Encoding: 118 118 112
Width: 525
Flags: HMW
HStem: -4 21G<250.5 272.5> 361 75<60 183 69 93 167 167 167 183 341 357 431 455 431 431>
LayerCount: 2
Fore
SplineSet
586.59765625 398 m 0
 578.9453125 362 549.733398438 361 531.733398438 361 c 2
 507.733398438 361 l 1
 328.2265625 34 l 2
 308.362304688 -3 282.149414062 -4 261.149414062 -4 c 0
 238.149414062 -4 215.149414062 -4 210.2265625 34 c 2
 169.733398438 361 l 1
 145.733398438 361 l 2
 129.773148619 361 105.331279856 361.78620239 105.331279856 387.060359537 c 0
 105.331279856 390.290444731 105.73049683 393.920499637 106.59765625 398 c 0
 114.461914062 435 142.674804688 436 161.674804688 436 c 2
 275.674804688 436 l 2
 292.411136906 436 315.965506951 435.224086382 315.965506951 409.750775833 c 0
 315.965506951 406.305390569 315.534607147 402.408195154 314.59765625 398 c 0
 306.9453125 362 277.733398438 361 259.733398438 361 c 2
 243.733398438 361 l 1
 278.791992188 79 l 1
 433.733398438 361 l 1
 417.733398438 361 l 2
 400.997239192 361 377.442425338 361.77589758 377.442425338 387.248434361 c 0
 377.442425338 390.694013843 377.873408026 394.591468004 378.810546875 399 c 0
 386.25 434 415.674804688 436 433.674804688 436 c 2
 547.674804688 436 l 2
 564.411136906 436 587.965506951 435.224086382 587.965506951 409.750775833 c 0
 587.965506951 406.305390569 587.534607147 402.408195154 586.59765625 398 c 0
EndSplineSet
Validated: 1
EndChar

